DBRep_DrawableShape

CASCADE Topology V3, (c) Open Cascade
Locations 0
Curve2ds 16
1 -38.100000000000001 -71.186842105263153 1 0 
1 -38.100000000000001 -71.186842105263153 1 0 
1 -12.700000000000003 -71.186842105263153 0 -1 
1 -12.700000000000003 -71.186842105263153 0 -1 
1 -12.700000000000003 -83.886842105263156 1 0 
1 -12.700000000000003 -83.886842105263156 1 0 
1 12.699999999999996 -83.886842105263156 0 1 
1 12.699999999999996 -83.886842105263156 0 1 
1 12.699999999999996 -71.186842105263153 1 0 
1 12.699999999999996 -71.186842105263153 1 0 
1 38.099999999999987 -71.186842105263153 0 1 
1 38.099999999999987 -71.186842105263153 0 1 
1 38.099999999999987 81.213157894736824 -1 0 
1 38.099999999999987 81.213157894736824 -1 0 
1 -38.100000000000001 81.213157894736824 0 -1 
1 -38.100000000000001 81.213157894736824 0 -1 
Curves 24
1 0 0 0 0 0 1 
1 25.399999999999999 0 0 0 0 1 
1 0 0 0 1 0 0 
1 0 0 3.4289999999999998 1 0 0 
1 25.399999999999999 -12.699999999999999 0 0 0 1 
1 25.399999999999999 0 0 0 -1 0 
1 25.399999999999999 0 3.4289999999999998 0 -1 0 
1 50.799999999999997 -12.699999999999999 0 0 0 1 
1 25.399999999999999 -12.699999999999999 0 1 0 0 
1 25.399999999999999 -12.699999999999999 3.4289999999999998 1 0 0 
1 50.799999999999997 0 0 0 0 1 
1 50.799999999999997 -12.699999999999999 0 0 1 0 
1 50.799999999999997 -12.699999999999999 3.4289999999999998 0 1 0 
1 76.199999999999989 0 0 0 0 1 
1 50.799999999999997 0 0 1 0 0 
1 50.799999999999997 0 3.4289999999999998 1 0 0 
1 76.199999999999989 152.39999999999998 0 0 0 1 
1 76.199999999999989 0 0 0 1 0 
1 76.199999999999989 0 3.4289999999999998 0 1 0 
1 0 152.39999999999998 0 0 0 1 
1 76.199999999999989 152.39999999999998 0 -1 0 0 
1 76.199999999999989 152.39999999999998 3.4289999999999998 -1 0 0 
1 0 152.39999999999998 0 0 -1 0 
1 0 152.39999999999998 3.4289999999999998 0 -1 0 
Polygon3D 0
PolygonOnTriangulations 0
Surfaces 10
1 0 0 0 0 1 0 1 0 0 0 0 -1 
1 38.100000000000001 71.186842105263153 0 0 0 1 1 0 -0 -0 1 0 
1 38.100000000000001 71.186842105263153 3.4289999999999998 0 0 1 1 0 -0 -0 1 0 
1 25.399999999999999 0 0 1 0 -0 0 -1 0 0 -0 -1 
1 25.399999999999999 -12.699999999999999 0 0 1 0 1 0 0 0 0 -1 
1 50.799999999999997 -12.699999999999999 0 -1 0 0 0 1 0 0 0 -1 
1 50.799999999999997 0 0 0 1 0 1 0 0 0 0 -1 
1 76.199999999999989 0 0 -1 0 0 0 1 0 0 0 -1 
1 76.199999999999989 152.39999999999998 0 0 -1 0 -1 0 0 -0 -0 -1 
1 0 152.39999999999998 0 1 0 -0 0 -1 0 0 -0 -1 
Triangulations 0

TShapes 62
Ve
2.54e-06
0 0 0
0 0

0101101
*
Ve
2.54e-06
0 0 3.429
0 0

0101101
*
Ed
 2.54e-06 1 1 0
1  1 0 0 3.429
0

0101000
+62 0 -61 0 *
Ve
2.54e-06
25.4 0 0
0 0

0101101
*
Ve
2.54e-06
25.4 0 3.429
0 0

0101101
*
Ed
 2.54e-06 1 1 0
1  2 0 0 3.429
0

0101000
+59 0 -58 0 *
Ed
 2.54e-06 1 1 0
1  3 0 0 25.4
2  1 2 0 0 25.4
0

0101000
+62 0 -59 0 *
Ed
 2.54e-06 1 1 0
1  4 0 0 25.4
2  2 3 0 0 25.4
0

0101000
+61 0 -58 0 *
Wi

0101100
+60 0 -57 0 -56 0 +55 0 *
Fa
0  2.54e-06 1 0

0101000
+54 0 *
Ve
2.54e-06
25.4 -12.7 0
0 0

0101101
*
Ve
2.54e-06
25.4 -12.7 3.429
0 0

0101101
*
Ed
 2.54e-06 1 1 0
1  5 0 0 3.429
0

0101000
+52 0 -51 0 *
Ed
 2.54e-06 1 1 0
1  6 0 0 12.7
2  3 2 0 0 12.7
0

0101000
+59 0 -52 0 *
Ed
 2.54e-06 1 1 0
1  7 0 0 12.7
2  4 3 0 0 12.7
0

0101000
+58 0 -51 0 *
Wi

0101100
+57 0 -50 0 -49 0 +48 0 *
Fa
0  2.54e-06 4 0

0101000
+47 0 *
Ve
2.54e-06
50.8 -12.7 0
0 0

0101101
*
Ve
2.54e-06
50.8 -12.7 3.429
0 0

0101101
*
Ed
 2.54e-06 1 1 0
1  8 0 0 3.429
0

0101000
+45 0 -44 0 *
Ed
 2.54e-06 1 1 0
1  9 0 0 25.4
2  5 2 0 0 25.4
0

0101000
+52 0 -45 0 *
Ed
 2.54e-06 1 1 0
1  10 0 0 25.4
2  6 3 0 0 25.4
0

0101000
+51 0 -44 0 *
Wi

0101100
+50 0 -43 0 -42 0 +41 0 *
Fa
0  2.54e-06 5 0

0101000
+40 0 *
Ve
2.54e-06
50.8 0 0
0 0

0101101
*
Ve
2.54e-06
50.8 0 3.429
0 0

0101101
*
Ed
 2.54e-06 1 1 0
1  11 0 0 3.429
0

0101000
+38 0 -37 0 *
Ed
 2.54e-06 1 1 0
1  12 0 0 12.7
2  7 2 0 0 12.7
0

0101000
+45 0 -38 0 *
Ed
 2.54e-06 1 1 0
1  13 0 0 12.7
2  8 3 0 0 12.7
0

0101000
+44 0 -37 0 *
Wi

0101100
+43 0 -36 0 -35 0 +34 0 *
Fa
0  2.54e-06 6 0

0101000
+33 0 *
Ve
2.54e-06
76.2 0 0
0 0

0101101
*
Ve
2.54e-06
76.2 0 3.429
0 0

0101101
*
Ed
 2.54e-06 1 1 0
1  14 0 0 3.429
0

0101000
+31 0 -30 0 *
Ed
 2.54e-06 1 1 0
1  15 0 0 25.4
2  9 2 0 0 25.4
0

0101000
+38 0 -31 0 *
Ed
 2.54e-06 1 1 0
1  16 0 0 25.4
2  10 3 0 0 25.4
0

0101000
+37 0 -30 0 *
Wi

0101100
+36 0 -29 0 -28 0 +27 0 *
Fa
0  2.54e-06 7 0

0101000
+26 0 *
Ve
2.54e-06
76.2 152.4 0
0 0

0101101
*
Ve
2.54e-06
76.2 152.4 3.429
0 0

0101101
*
Ed
 2.54e-06 1 1 0
1  17 0 0 3.429
0

0101000
+24 0 -23 0 *
Ed
 2.54e-06 1 1 0
1  18 0 0 152.4
2  11 2 0 0 152.4
0

0101000
+31 0 -24 0 *
Ed
 2.54e-06 1 1 0
1  19 0 0 152.4
2  12 3 0 0 152.4
0

0101000
+30 0 -23 0 *
Wi

0101100
+29 0 -22 0 -21 0 +20 0 *
Fa
0  2.54e-06 8 0

0101000
+19 0 *
Ve
2.54e-06
0 152.4 0
0 0

0101101
*
Ve
2.54e-06
0 152.4 3.429
0 0

0101101
*
Ed
 2.54e-06 1 1 0
1  20 0 0 3.429
0

0101000
+17 0 -16 0 *
Ed
 2.54e-06 1 1 0
1  21 0 0 76.2
2  13 2 0 0 76.2
0

0101000
+24 0 -17 0 *
Ed
 2.54e-06 1 1 0
1  22 0 0 76.2
2  14 3 0 0 76.2
0

0101000
+23 0 -16 0 *
Wi

0101100
+22 0 -15 0 -14 0 +13 0 *
Fa
0  2.54e-06 9 0

0101000
+12 0 *
Ed
 2.54e-06 1 1 0
1  23 0 0 152.4
2  15 2 0 0 152.4
0

0101000
+17 0 -62 0 *
Ed
 2.54e-06 1 1 0
1  24 0 0 152.4
2  16 3 0 0 152.4
0

0101000
+16 0 -61 0 *
Wi

0101100
+15 0 -60 0 -10 0 +9 0 *
Fa
0  2.54e-06 10 0

0101000
+8 0 *
Wi

0101100
+56 0 +49 0 +42 0 +35 0 +28 0 +21 0 +14 0 +10 0 *
Fa
0  2.54e-06 2 0

0101000
+6 0 *
Wi

0101100
+55 0 +48 0 +41 0 +34 0 +27 0 +20 0 +13 0 +9 0 *
Fa
0  2.54e-06 3 0

0101000
+4 0 *
Sh

0101100
+53 0 +46 0 +39 0 +32 0 +25 0 +18 0 +11 0 +7 0 +5 0 -3 0 
*
So

1100000
-2 0 *

+1 0 