DBRep_DrawableShape

CASCADE Topology V3, (c) Open Cascade
Locations 0
Curve2ds 68
1 -50.799999999999983 -38.099999999999987 1 0 
1 0 0 1 0 
1 12.699999999999999 0 0 -1 
1 0 0 0 -1 
1 19.049999999999997 0 0 -1 
1 -50.799999999999983 -38.099999999999987 1 0 
1 0 -3.4289999999999998 1 0 
1 0 0 0 -1 
1 50.800000000000011 38.100000000000001 -1 0 
1 50.800000000000011 -38.099999999999987 0 1 
1 -3.1749999999999972 -6.3499999999999996 0 1 
1 0 0 1 0 
1 31.750000000000014 -38.099999999999987 0 1 
1 -3.1749999999999972 6.3499999999999996 1 0 
1 0 -0 1 0 
1 31.750000000000014 -25.399999999999988 -1 0 
1 3.1750000000000114 6.3499999999999996 0 -1 
1 0 0 1 0 
1 25.400000000000006 -25.399999999999988 0 -1 
1 -3.1750000000000007 -6.3500000000000014 0 1 
1 0 0 1 0 
1 -25.399999999999984 -38.099999999999987 0 1 
1 -3.1750000000000007 6.3499999999999979 1 0 
1 0 -0 1 0 
1 -25.399999999999984 -25.399999999999988 -1 0 
1 3.1750000000000007 6.3499999999999979 0 -1 
1 0 0 1 0 
1 -31.749999999999986 -25.399999999999988 0 -1 
1 -50.799999999999983 38.100000000000001 0 -1 
1 0 0 0 -1 
1 6.3500000000000014 0 0 -1 
1 3.1750000000000007 6.3499999999999979 0 -1 
1 0 -3.4289999999999998 1 0 
1 -31.749999999999986 -25.399999999999988 0 -1 
1 50.800000000000011 38.100000000000001 -1 0 
1 50.800000000000011 -38.099999999999987 0 1 
1 -3.1749999999999972 -6.3499999999999996 0 1 
1 0 -3.4289999999999998 1 0 
1 31.750000000000014 -38.099999999999987 0 1 
1 -3.1749999999999972 6.3499999999999996 1 0 
1 0 -3.4289999999999998 1 0 
1 31.750000000000014 -25.399999999999988 -1 0 
1 3.1750000000000114 6.3499999999999996 0 -1 
1 0 -3.4289999999999998 1 0 
1 25.400000000000006 -25.399999999999988 0 -1 
1 -3.1750000000000007 -6.3500000000000014 0 1 
1 0 -3.4289999999999998 1 0 
1 -25.399999999999984 -38.099999999999987 0 1 
1 -3.1750000000000007 6.3499999999999979 1 0 
1 0 -3.4289999999999998 1 0 
1 -25.399999999999984 -25.399999999999988 -1 0 
1 -50.799999999999983 38.100000000000001 0 -1 
1 101.59999999999999 0 0 -1 
1 0 0 0 -1 
1 6.3500000000000085 0 0 -1 
1 82.549999999999997 0 0 -1 
1 12.699999999999999 0 0 -1 
1 0 -0 0 -1 
1 0 0 0 -1 
1 6.3500000000000085 0 0 -1 
1 12.699999999999999 0 0 -1 
1 0 0 0 -1 
1 76.199999999999989 0 0 -1 
1 0 0 0 -1 
1 6.3500000000000014 0 0 -1 
1 25.399999999999999 0 0 -1 
1 12.699999999999999 0 0 -1 
1 0 -0 0 -1 
Curves 32
1 0 0 0 1 0 0 
1 19.049999999999997 0 0 0 0 1 
1 0 0 3.4289999999999998 1 0 0 
1 0 0 0 0 0 1 
1 101.59999999999999 76.199999999999989 0 -1 0 0 
1 101.59999999999999 0 0 0 1 0 
1 82.549999999999997 0 0 0 1 0 
1 82.549999999999997 12.699999999999999 0 -1 0 0 
1 76.199999999999989 12.699999999999999 0 0 -1 0 
1 25.399999999999999 0 0 0 1 0 
1 25.399999999999999 12.699999999999999 0 -1 0 0 
1 19.049999999999997 12.699999999999999 0 0 -1 0 
1 0 76.199999999999989 0 0 -1 0 
1 19.049999999999997 12.699999999999999 0 0 0 1 
1 19.049999999999997 12.699999999999999 3.4289999999999998 0 -1 0 
1 101.59999999999999 76.199999999999989 3.4289999999999998 -1 0 0 
1 101.59999999999999 0 3.4289999999999998 0 1 0 
1 82.549999999999997 0 3.4289999999999998 0 1 0 
1 82.549999999999997 12.699999999999999 3.4289999999999998 -1 0 0 
1 76.199999999999989 12.699999999999999 3.4289999999999998 0 -1 0 
1 25.399999999999999 0 3.4289999999999998 0 1 0 
1 25.399999999999999 12.699999999999999 3.4289999999999998 -1 0 0 
1 0 76.199999999999989 3.4289999999999998 0 -1 0 
1 0 76.199999999999989 0 0 0 1 
1 101.59999999999999 76.199999999999989 0 0 0 1 
1 101.59999999999999 0 0 0 0 1 
1 82.549999999999997 0 0 0 0 1 
1 82.549999999999997 12.699999999999999 0 0 0 1 
1 76.199999999999989 12.699999999999999 0 0 0 1 
1 76.199999999999989 0 0 0 0 1 
1 25.399999999999999 0 0 0 0 1 
1 25.399999999999999 12.699999999999999 0 0 0 1 
Polygon3D 0
PolygonOnTriangulations 0
Surfaces 18
1 0 0 0 0 1 0 1 0 0 0 0 -1 
1 50.799999999999983 38.099999999999987 0 0 0 1 1 0 -0 -0 1 0 
1 19.049999999999997 12.699999999999999 0 1 0 -0 0 -1 0 0 -0 -1 
1 19.049999999999997 0 0 0 1 0 1 0 0 0 0 -1 
1 50.799999999999983 38.099999999999987 3.4289999999999998 0 0 1 1 0 -0 -0 1 0 
1 79.375 6.3499999999999996 0 -0 -0 -1 -1 0 0 0 1 -0 
1 82.549999999999997 0 0 -1 0 0 0 1 0 0 0 -1 
1 82.549999999999997 12.699999999999999 0 0 -1 0 -1 0 0 -0 -0 -1 
1 76.199999999999989 12.699999999999999 0 1 0 -0 0 -1 0 0 -0 -1 
1 22.224999999999998 6.3500000000000014 0 -0 -0 -1 -1 0 0 0 1 -0 
1 25.399999999999999 0 0 -1 0 0 0 1 0 0 0 -1 
1 25.399999999999999 12.699999999999999 0 0 -1 0 -1 0 0 -0 -0 -1 
1 22.224999999999998 6.3500000000000014 3.4289999999999998 -0 -0 -1 -1 0 0 0 1 -0 
1 79.375 6.3499999999999996 3.4289999999999998 -0 -0 -1 -1 0 0 0 1 -0 
1 0 76.199999999999989 0 1 0 -0 0 -1 0 0 -0 -1 
1 101.59999999999999 76.199999999999989 0 0 -1 0 -1 0 0 -0 -0 -1 
1 101.59999999999999 0 0 -1 0 0 0 1 0 0 0 -1 
1 76.199999999999989 0 0 0 1 0 1 0 0 0 0 -1 
Triangulations 0

TShapes 91
Ve
2.54e-06
0 0 0
0 0

0101101
*
Ve
2.54e-06
19.05 0 0
0 0

0101101
*
Ed
 2.54e-06 1 1 0
1  1 0 0 19.05
2  1 2 0 0 19.05
2  2 1 0 0 19.05
0

0101000
+91 0 -90 0 *
Ve
2.54e-06
19.05 0 3.429
0 0

0101101
*
Ed
 2.54e-06 1 1 0
1  2 0 0 3.429
2  3 3 0 0 3.429
2  4 4 0 0 3.429
2  5 1 0 0 3.429
0

0101000
+90 0 -88 0 *
Ve
2.54e-06
0 0 3.429
0 0

0101101
*
Ed
 2.54e-06 1 1 0
1  3 0 0 19.05
2  6 5 0 0 19.05
2  7 1 0 0 19.05
0

0101000
+86 0 -88 0 *
Ed
 2.54e-06 1 1 0
1  4 0 0 3.429
2  8 1 0 0 3.429
0

0101000
+91 0 -86 0 *
Wi

0101100
-89 0 -87 0 +85 0 +84 0 *
Fa
0  2.54e-06 1 0

0101000
+83 0 *
Ve
2.54e-06
101.6 76.2 0
0 0

0101101
*
Ve
2.54e-06
0 76.2 0
0 0

0101101
*
Ed
 2.54e-06 1 1 0
1  5 0 0 101.6
2  9 2 0 0 101.6
0

0101000
+81 0 -80 0 *
Ve
2.54e-06
101.6 0 0
0 0

0101101
*
Ed
 2.54e-06 1 1 0
1  6 0 0 76.2
2  10 2 0 0 76.2
0

0101000
+78 0 -81 0 *
Ve
2.54e-06
82.55 0 0
0 0

0101101
*
Ed
 2.54e-06 1 1 0
1  1 0 82.55 101.6
2  1 2 0 82.55 101.6
2  2 1 0 82.55 101.6
0

0101000
+76 0 -78 0 *
Ve
2.54e-06
82.55 12.7 0
0 0

0101101
*
Ed
 2.54e-06 1 1 0
1  7 0 0 12.7
2  11 6 0 0 12.7
2  12 7 0 0 12.7
2  13 2 0 0 12.7
0

0101000
+76 0 -74 0 *
Ve
2.54e-06
76.2 12.7 0
0 0

0101101
*
Ed
 2.54e-06 1 1 0
1  8 0 0 6.35
2  14 6 0 0 6.35
2  15 8 0 0 6.35
2  16 2 0 0 6.35
0

0101000
+74 0 -72 0 *
Ve
2.54e-06
76.2 0 0
0 0

0101101
*
Ed
 2.54e-06 1 1 0
1  9 0 0 12.7
2  17 6 0 0 12.7
2  18 9 0 0 12.7
2  19 2 0 0 12.7
0

0101000
+72 0 -70 0 *
Ve
2.54e-06
25.4 0 0
0 0

0101101
*
Ed
 2.54e-06 1 1 0
1  1 0 25.4 76.2
2  1 2 0 25.4 76.2
2  2 1 0 25.4 76.2
0

0101000
+68 0 -70 0 *
Ve
2.54e-06
25.4 12.7 0
0 0

0101101
*
Ed
 2.54e-06 1 1 0
1  10 0 0 12.7
2  20 10 0 0 12.7
2  21 11 0 0 12.7
2  22 2 0 0 12.7
0

0101000
+68 0 -66 0 *
Ve
2.54e-06
19.05 12.7 0
0 0

0101101
*
Ed
 2.54e-06 1 1 0
1  11 0 0 6.35
2  23 10 0 0 6.35
2  24 12 0 0 6.35
2  25 2 0 0 6.35
0

0101000
+66 0 -64 0 *
Ed
 2.54e-06 1 1 0
1  12 0 0 12.7
2  26 10 0 0 12.7
2  27 3 0 0 12.7
2  28 2 0 0 12.7
0

0101000
+64 0 -90 0 *
Ed
 2.54e-06 1 1 0
1  13 0 0 76.2
2  29 2 0 0 76.2
0

0101000
+80 0 -91 0 *
Wi

0101100
+79 0 +77 0 +75 0 -73 0 -71 0 -69 0 +67 0 -65 0 -63 0 -62 0 
+89 0 +61 0 *
Fa
0  2.54e-06 2 0

0101000
+60 0 *
Ve
2.54e-06
19.05 12.7 3.429
0 0

0101101
*
Ed
 2.54e-06 1 1 0
1  14 0 0 3.429
2  30 3 0 0 3.429
2  31 12 0 0 3.429
0

0101000
+64 0 -58 0 *
Ed
 2.54e-06 1 1 0
1  15 0 0 12.7
2  32 13 0 0 12.7
2  33 3 0 0 12.7
2  34 5 0 0 12.7
0

0101000
+58 0 -88 0 *
Wi

0101100
+57 0 -87 0 -62 0 +56 0 *
Fa
0  2.54e-06 3 0

0101000
+55 0 *
Ve
2.54e-06
101.6 76.2 3.429
0 0

0101101
*
Ve
2.54e-06
0 76.2 3.429
0 0

0101101
*
Ed
 2.54e-06 1 1 0
1  16 0 0 101.6
2  35 5 0 0 101.6
0

0101000
+53 0 -52 0 *
Ve
2.54e-06
101.6 0 3.429
0 0

0101101
*
Ed
 2.54e-06 1 1 0
1  17 0 0 76.2
2  36 5 0 0 76.2
0

0101000
+50 0 -53 0 *
Ve
2.54e-06
82.55 0 3.429
0 0

0101101
*
Ed
 2.54e-06 1 1 0
1  3 0 82.55 101.6
2  6 5 0 82.55 101.6
2  7 1 0 82.55 101.6
0

0101000
+48 0 -50 0 *
Ve
2.54e-06
82.55 12.7 3.429
0 0

0101101
*
Ed
 2.54e-06 1 1 0
1  18 0 0 12.7
2  37 14 0 0 12.7
2  38 7 0 0 12.7
2  39 5 0 0 12.7
0

0101000
+48 0 -46 0 *
Ve
2.54e-06
76.2 12.7 3.429
0 0

0101101
*
Ed
 2.54e-06 1 1 0
1  19 0 0 6.35
2  40 14 0 0 6.35
2  41 8 0 0 6.35
2  42 5 0 0 6.35
0

0101000
+46 0 -44 0 *
Ve
2.54e-06
76.2 0 3.429
0 0

0101101
*
Ed
 2.54e-06 1 1 0
1  20 0 0 12.7
2  43 14 0 0 12.7
2  44 9 0 0 12.7
2  45 5 0 0 12.7
0

0101000
+44 0 -42 0 *
Ve
2.54e-06
25.4 0 3.429
0 0

0101101
*
Ed
 2.54e-06 1 1 0
1  3 0 25.4 76.2
2  6 5 0 25.4 76.2
2  7 1 0 25.4 76.2
0

0101000
+40 0 -42 0 *
Ve
2.54e-06
25.4 12.7 3.429
0 0

0101101
*
Ed
 2.54e-06 1 1 0
1  21 0 0 12.7
2  46 13 0 0 12.7
2  47 11 0 0 12.7
2  48 5 0 0 12.7
0

0101000
+40 0 -38 0 *
Ed
 2.54e-06 1 1 0
1  22 0 0 6.35
2  49 13 0 0 6.35
2  50 12 0 0 6.35
2  51 5 0 0 6.35
0

0101000
+38 0 -58 0 *
Ed
 2.54e-06 1 1 0
1  23 0 0 76.2
2  52 5 0 0 76.2
0

0101000
+52 0 -86 0 *
Wi

0101100
+51 0 +49 0 +47 0 -45 0 -43 0 -41 0 +39 0 -37 0 -36 0 -56 0 
+85 0 +35 0 *
Fa
0  2.54e-06 5 0

0101000
+34 0 *
Ed
 2.54e-06 1 1 0
1  24 0 0 3.429
0

0101000
+80 0 -52 0 *
Wi

0101100
+32 0 -84 0 -61 0 +35 0 *
Fa
0  2.54e-06 15 0

0101000
+31 0 *
Ed
 2.54e-06 1 1 0
1  25 0 0 3.429
0

0101000
+81 0 -53 0 *
Wi

0101100
+29 0 -32 0 -79 0 +51 0 *
Fa
0  2.54e-06 16 0

0101000
+28 0 *
Ed
 2.54e-06 1 1 0
1  26 0 0 3.429
2  53 1 0 0 3.429
0

0101000
+78 0 -50 0 *
Wi

0101100
+26 0 -29 0 -77 0 +49 0 *
Fa
0  2.54e-06 17 0

0101000
+25 0 *
Ed
 2.54e-06 1 1 0
1  27 0 0 3.429
2  54 7 0 0 3.429
2  55 18 0 0 3.429
2  56 1 0 0 3.429
0

0101000
+76 0 -48 0 *
Wi

0101100
-75 0 -26 0 +47 0 +23 0 *
Fa
0  2.54e-06 1 0

0101000
+22 0 *
Ed
 2.54e-06 1 1 0
1  28 0 0 3.429
2  57 7 0 0 3.429
2  58 8 0 0 3.429
0

0101000
+74 0 -46 0 *
Wi

0101100
+23 0 -20 0 -73 0 +45 0 *
Fa
0  2.54e-06 7 0

0101000
+19 0 *
Ed
 2.54e-06 1 1 0
1  29 0 0 3.429
2  59 9 0 0 3.429
2  60 8 0 0 3.429
0

0101000
+72 0 -44 0 *
Wi

0101100
+20 0 -17 0 -71 0 +43 0 *
Fa
0  2.54e-06 8 0

0101000
+16 0 *
Ed
 2.54e-06 1 1 0
1  30 0 0 3.429
2  61 9 0 0 3.429
2  62 18 0 0 3.429
2  63 1 0 0 3.429
0

0101000
+70 0 -42 0 *
Wi

0101100
+17 0 -14 0 -69 0 +41 0 *
Fa
0  2.54e-06 9 0

0101000
+13 0 *
Ed
 2.54e-06 1 1 0
1  31 0 0 3.429
2  64 11 0 0 3.429
2  65 4 0 0 3.429
2  66 1 0 0 3.429
0

0101000
+68 0 -40 0 *
Wi

0101100
-67 0 -14 0 +39 0 +11 0 *
Fa
0  2.54e-06 1 0

0101000
+10 0 *
Ed
 2.54e-06 1 1 0
1  32 0 0 3.429
2  67 11 0 0 3.429
2  68 12 0 0 3.429
0

0101000
+66 0 -38 0 *
Wi

0101100
+11 0 -8 0 -65 0 +37 0 *
Fa
0  2.54e-06 11 0

0101000
+7 0 *
Wi

0101100
+8 0 -57 0 -63 0 +36 0 *
Fa
0  2.54e-06 12 0

0101000
+5 0 *
Sh

0101100
-82 0 -59 0 +54 0 +33 0 -30 0 -27 0 -24 0 -21 0 +18 0 +15 0 
+12 0 -9 0 +6 0 +4 0 *
So

0100000
+3 0 *
Co

1100000
+2 0 *

+1 0 