DBRep_DrawableShape

CASCADE Topology V3, (c) Open Cascade
Locations 0
Curve2ds 64
1 -126.99999999999999 -44.04032258064516 1 0 
1 -126.99999999999999 -44.04032258064516 1 0 
1 -126.99999999999999 57.559677419354834 0 -1 
1 -126.99999999999999 57.559677419354834 0 -1 
1 -114.29999999999998 -44.04032258064516 0 -1 
1 -114.29999999999998 -44.04032258064516 0 -1 
1 127.00000000000001 57.559677419354834 -1 0 
1 -114.29999999999998 -56.740322580645156 1 0 
1 127.00000000000001 -44.04032258064516 0 1 
1 -88.899999999999991 -56.740322580645156 0 1 
1 114.3 -44.04032258064516 1 0 
1 -88.899999999999991 -44.04032258064516 1 0 
1 114.3 -56.740322580645156 0 1 
1 -12.699999999999989 -44.04032258064516 0 -1 
1 88.899999999999991 -56.740322580645156 1 0 
1 -12.699999999999989 -56.740322580645156 1 0 
1 88.899999999999991 -44.04032258064516 0 -1 
1 12.700000000000003 -56.740322580645156 0 1 
1 12.700000000000003 -44.04032258064516 1 0 
1 1.9050000000000438 25.399999999999995 0 -1 
1 0 0 1 0 
1 -1.9050000000000011 6.759677419354837 0 -1 
1 1.9050000000000438 -25.400000000000002 -1 0 
1 0 0 1 0 
1 -1.9050000000000011 -44.04032258064516 1 0 
1 -1.9049999999999727 -25.400000000000002 0 1 
1 0 0 1 0 
1 1.9050000000000153 -44.04032258064516 0 1 
1 -1.9049999999999727 25.399999999999995 1 0 
1 0 -0 1 0 
1 1.9050000000000153 6.759677419354837 -1 0 
1 127.00000000000001 57.559677419354834 -1 0 
1 -114.29999999999998 -56.740322580645156 1 0 
1 127.00000000000001 -44.04032258064516 0 1 
1 -88.899999999999991 -56.740322580645156 0 1 
1 114.3 -44.04032258064516 1 0 
1 -88.899999999999991 -44.04032258064516 1 0 
1 114.3 -56.740322580645156 0 1 
1 -12.699999999999989 -44.04032258064516 0 -1 
1 88.899999999999991 -56.740322580645156 1 0 
1 -12.699999999999989 -56.740322580645156 1 0 
1 88.899999999999991 -44.04032258064516 0 -1 
1 12.700000000000003 -56.740322580645156 0 1 
1 12.700000000000003 -44.04032258064516 1 0 
1 1.9050000000000438 25.399999999999995 0 -1 
1 0 -3.4289999999999998 1 0 
1 -1.9050000000000011 6.759677419354837 0 -1 
1 1.9050000000000438 -25.400000000000002 -1 0 
1 0 -3.4289999999999998 1 0 
1 -1.9050000000000011 -44.04032258064516 1 0 
1 -1.9049999999999727 -25.400000000000002 0 1 
1 0 -3.4289999999999998 1 0 
1 1.9050000000000153 -44.04032258064516 0 1 
1 -1.9049999999999727 25.399999999999995 1 0 
1 0 -3.4289999999999998 1 0 
1 1.9050000000000153 6.759677419354837 -1 0 
1 0 0 0 -1 
1 3.8100000000000165 0 0 -1 
1 50.799999999999997 0 0 -1 
1 0 0 0 -1 
1 0 0 0 -1 
1 3.8100000000000165 0 0 -1 
1 0 -0 0 -1 
1 50.799999999999997 0 0 -1 
Curves 60
1 0 0 0 0 0 1 
1 12.699999999999999 0 0 0 0 1 
1 0 0 0 1 0 0 
1 0 0 3.4289999999999998 1 0 0 
1 0 101.59999999999999 0 0 0 1 
1 0 101.59999999999999 0 0 -1 0 
1 0 101.59999999999999 3.4289999999999998 0 -1 0 
1 12.699999999999999 -12.699999999999999 0 0 0 1 
1 12.699999999999999 0 0 0 -1 0 
1 12.699999999999999 0 3.4289999999999998 0 -1 0 
1 254 101.59999999999999 0 -1 0 0 
1 12.699999999999999 -12.699999999999999 0 1 0 0 
1 254 0 0 0 1 0 
1 38.099999999999994 -12.699999999999999 0 0 1 0 
1 241.29999999999998 0 0 1 0 0 
1 38.099999999999994 0 0 1 0 0 
1 241.29999999999998 -12.699999999999999 0 0 1 0 
1 114.3 0 0 0 -1 0 
1 215.89999999999998 -12.699999999999999 0 1 0 0 
1 114.3 -12.699999999999999 0 1 0 0 
1 215.89999999999998 0 0 0 -1 0 
1 139.69999999999999 -12.699999999999999 0 0 1 0 
1 139.69999999999999 0 0 1 0 0 
1 125.09499999999998 50.799999999999997 0 0 -1 0 
1 125.09499999999998 0 0 1 0 0 
1 128.905 0 0 0 1 0 
1 128.905 50.799999999999997 0 -1 0 0 
1 254 101.59999999999999 3.4289999999999998 -1 0 0 
1 12.699999999999999 -12.699999999999999 3.4289999999999998 1 0 0 
1 254 0 3.4289999999999998 0 1 0 
1 38.099999999999994 -12.699999999999999 3.4289999999999998 0 1 0 
1 241.29999999999998 0 3.4289999999999998 1 0 0 
1 38.099999999999994 0 3.4289999999999998 1 0 0 
1 241.29999999999998 -12.699999999999999 3.4289999999999998 0 1 0 
1 114.3 0 3.4289999999999998 0 -1 0 
1 215.89999999999998 -12.699999999999999 3.4289999999999998 1 0 0 
1 114.3 -12.699999999999999 3.4289999999999998 1 0 0 
1 215.89999999999998 0 3.4289999999999998 0 -1 0 
1 139.69999999999999 -12.699999999999999 3.4289999999999998 0 1 0 
1 139.69999999999999 0 3.4289999999999998 1 0 0 
1 125.09499999999998 50.799999999999997 3.4289999999999998 0 -1 0 
1 125.09499999999998 0 3.4289999999999998 1 0 0 
1 128.905 0 3.4289999999999998 0 1 0 
1 128.905 50.799999999999997 3.4289999999999998 -1 0 0 
1 254 101.59999999999999 0 0 0 1 
1 38.099999999999994 -12.699999999999999 0 0 0 1 
1 254 0 0 0 0 1 
1 38.099999999999994 0 0 0 0 1 
1 241.29999999999998 0 0 0 0 1 
1 114.3 0 0 0 0 1 
1 241.29999999999998 -12.699999999999999 0 0 0 1 
1 114.3 -12.699999999999999 0 0 0 1 
1 215.89999999999998 -12.699999999999999 0 0 0 1 
1 139.69999999999999 -12.699999999999999 0 0 0 1 
1 215.89999999999998 0 0 0 0 1 
1 139.69999999999999 0 0 0 0 1 
1 125.09499999999998 50.799999999999997 0 0 0 1 
1 125.09499999999998 0 0 0 0 1 
1 128.905 0 0 0 0 1 
1 128.905 50.799999999999997 0 0 0 1 
Polygon3D 0
PolygonOnTriangulations 0
Surfaces 24
1 0 0 0 0 1 0 1 0 0 0 0 -1 
1 126.99999999999999 44.04032258064516 0 0 0 1 1 0 -0 -0 1 0 
1 126.99999999999999 44.04032258064516 3.4289999999999998 0 0 1 1 0 -0 -0 1 0 
1 0 101.59999999999999 0 1 0 -0 0 -1 0 0 -0 -1 
1 12.699999999999999 0 0 1 0 -0 0 -1 0 0 -0 -1 
1 127.00000000000003 25.400000000000002 0 -0 -0 -1 -1 0 0 0 1 -0 
1 125.09499999999998 50.799999999999997 0 1 0 -0 0 -1 0 0 -0 -1 
1 125.09499999999998 0 0 0 1 0 1 0 0 0 0 -1 
1 128.905 0 0 -1 0 0 0 1 0 0 0 -1 
1 128.905 50.799999999999997 0 0 -1 0 -1 0 0 -0 -0 -1 
1 127.00000000000003 25.400000000000002 3.4289999999999998 -0 -0 -1 -1 0 0 0 1 -0 
1 254 101.59999999999999 0 0 -1 0 -1 0 0 -0 -0 -1 
1 12.699999999999999 -12.699999999999999 0 0 1 0 1 0 0 0 0 -1 
1 254 0 0 -1 0 0 0 1 0 0 0 -1 
1 38.099999999999994 -12.699999999999999 0 -1 0 0 0 1 0 0 0 -1 
1 241.29999999999998 0 0 0 1 0 1 0 0 0 0 -1 
1 38.099999999999994 0 0 0 1 0 1 0 0 0 0 -1 
1 241.29999999999998 -12.699999999999999 0 -1 0 0 0 1 0 0 0 -1 
1 114.3 0 0 1 0 -0 0 -1 0 0 -0 -1 
1 215.89999999999998 -12.699999999999999 0 0 1 0 1 0 0 0 0 -1 
1 114.3 -12.699999999999999 0 0 1 0 1 0 0 0 0 -1 
1 215.89999999999998 0 0 1 0 -0 0 -1 0 0 -0 -1 
1 139.69999999999999 -12.699999999999999 0 -1 0 0 0 1 0 0 0 -1 
1 139.69999999999999 0 0 0 1 0 1 0 0 0 0 -1 
Triangulations 0

TShapes 149
Ve
2.54e-06
0 0 0
0 0

0101101
*
Ve
2.54e-06
0 0 3.429
0 0

0101101
*
Ed
 2.54e-06 1 1 0
1  1 0 0 3.429
0

0101000
+149 0 -148 0 *
Ve
2.54e-06
12.7 0 0
0 0

0101101
*
Ve
2.54e-06
12.7 0 3.429
0 0

0101101
*
Ed
 2.54e-06 1 1 0
1  2 0 0 3.429
0

0101000
+146 0 -145 0 *
Ed
 2.54e-06 1 1 0
1  3 0 0 12.7
2  1 2 0 0 12.7
0

0101000
+149 0 -146 0 *
Ed
 2.54e-06 1 1 0
1  4 0 0 12.7
2  2 3 0 0 12.7
0

0101000
+148 0 -145 0 *
Wi

0101100
+147 0 -144 0 -143 0 +142 0 *
Fa
0  2.54e-06 1 0

0101000
+141 0 *
Ve
2.54e-06
0 101.6 0
0 0

0101101
*
Ve
2.54e-06
0 101.6 3.429
0 0

0101101
*
Ed
 2.54e-06 1 1 0
1  5 0 0 3.429
0

0101000
+139 0 -138 0 *
Ed
 2.54e-06 1 1 0
1  6 0 0 101.6
2  3 2 0 0 101.6
0

0101000
+139 0 -149 0 *
Ed
 2.54e-06 1 1 0
1  7 0 0 101.6
2  4 3 0 0 101.6
0

0101000
+138 0 -148 0 *
Wi

0101100
+137 0 -147 0 -136 0 +135 0 *
Fa
0  2.54e-06 4 0

0101000
+134 0 *
Ve
2.54e-06
12.7 -12.7 0
0 0

0101101
*
Ve
2.54e-06
12.7 -12.7 3.429
0 0

0101101
*
Ed
 2.54e-06 1 1 0
1  8 0 0 3.429
0

0101000
+132 0 -131 0 *
Ed
 2.54e-06 1 1 0
1  9 0 0 12.7
2  5 2 0 0 12.7
0

0101000
+146 0 -132 0 *
Ed
 2.54e-06 1 1 0
1  10 0 0 12.7
2  6 3 0 0 12.7
0

0101000
+145 0 -131 0 *
Wi

0101100
+144 0 -130 0 -129 0 +128 0 *
Fa
0  2.54e-06 5 0

0101000
+127 0 *
Ve
2.54e-06
254 101.6 0
0 0

0101101
*
Ed
 2.54e-06 1 1 0
1  11 0 0 254
2  7 2 0 0 254
0

0101000
+125 0 -139 0 *
Ve
2.54e-06
38.1 -12.7 0
0 0

0101101
*
Ed
 2.54e-06 1 1 0
1  12 0 0 25.4
2  8 2 0 0 25.4
0

0101000
+132 0 -123 0 *
Ve
2.54e-06
254 0 0
0 0

0101101
*
Ed
 2.54e-06 1 1 0
1  13 0 0 101.6
2  9 2 0 0 101.6
0

0101000
+121 0 -125 0 *
Ve
2.54e-06
38.1 0 0
0 0

0101101
*
Ed
 2.54e-06 1 1 0
1  14 0 0 12.7
2  10 2 0 0 12.7
0

0101000
+123 0 -119 0 *
Ve
2.54e-06
241.3 0 0
0 0

0101101
*
Ed
 2.54e-06 1 1 0
1  15 0 0 12.7
2  11 2 0 0 12.7
0

0101000
+117 0 -121 0 *
Ve
2.54e-06
114.3 0 0
0 0

0101101
*
Ed
 2.54e-06 1 1 0
1  16 0 0 76.2
2  12 2 0 0 76.2
0

0101000
+119 0 -115 0 *
Ve
2.54e-06
241.3 -12.7 0
0 0

0101101
*
Ed
 2.54e-06 1 1 0
1  17 0 0 12.7
2  13 2 0 0 12.7
0

0101000
+113 0 -117 0 *
Ve
2.54e-06
114.3 -12.7 0
0 0

0101101
*
Ed
 2.54e-06 1 1 0
1  18 0 0 12.7
2  14 2 0 0 12.7
0

0101000
+115 0 -111 0 *
Ve
2.54e-06
215.9 -12.7 0
0 0

0101101
*
Ed
 2.54e-06 1 1 0
1  19 0 0 25.4
2  15 2 0 0 25.4
0

0101000
+109 0 -113 0 *
Ve
2.54e-06
139.7 -12.7 0
0 0

0101101
*
Ed
 2.54e-06 1 1 0
1  20 0 0 25.4
2  16 2 0 0 25.4
0

0101000
+111 0 -107 0 *
Ve
2.54e-06
215.9 0 0
0 0

0101101
*
Ed
 2.54e-06 1 1 0
1  21 0 0 12.7
2  17 2 0 0 12.7
0

0101000
+105 0 -109 0 *
Ve
2.54e-06
139.7 0 0
0 0

0101101
*
Ed
 2.54e-06 1 1 0
1  22 0 0 12.7
2  18 2 0 0 12.7
0

0101000
+107 0 -103 0 *
Ed
 2.54e-06 1 1 0
1  23 0 0 76.2
2  19 2 0 0 76.2
0

0101000
+103 0 -105 0 *
Wi

0101100
+143 0 +136 0 +129 0 +124 0 +122 0 +120 0 +118 0 +116 0 +114 0 +112 0 
+110 0 +108 0 +106 0 +104 0 +102 0 +101 0 *
Ve
2.54e-06
125.095 50.8 0
0 0

0101101
*
Ve
2.54e-06
125.095 0 0
0 0

0101101
*
Ed
 2.54e-06 1 1 0
1  24 0 0 50.8
2  20 6 0 0 50.8
2  21 7 0 0 50.8
2  22 2 0 0 50.8
0

0101000
+99 0 -98 0 *
Ve
2.54e-06
128.905 0 0
0 0

0101101
*
Ed
 2.54e-06 1 1 0
1  25 0 0 3.81000000000001
2  23 6 0 0 3.81000000000001
2  24 8 0 0 3.81000000000001
2  25 2 0 0 3.81000000000001
0

0101000
+98 0 -96 0 *
Ve
2.54e-06
128.905 50.8 0
0 0

0101101
*
Ed
 2.54e-06 1 1 0
1  26 0 0 50.8
2  26 6 0 0 50.8
2  27 9 0 0 50.8
2  28 2 0 0 50.8
0

0101000
+96 0 -94 0 *
Ed
 2.54e-06 1 1 0
1  27 0 0 3.81000000000001
2  29 6 0 0 3.81000000000001
2  30 10 0 0 3.81000000000001
2  31 2 0 0 3.81000000000001
0

0101000
+94 0 -99 0 *
Wi

0101100
-97 0 -95 0 -93 0 -92 0 *
Fa
0  2.54e-06 2 0

0101000
+100 0 +91 0 *
Ve
2.54e-06
254 101.6 3.429
0 0

0101101
*
Ed
 2.54e-06 1 1 0
1  28 0 0 254
2  32 3 0 0 254
0

0101000
+89 0 -138 0 *
Ve
2.54e-06
38.1 -12.7 3.429
0 0

0101101
*
Ed
 2.54e-06 1 1 0
1  29 0 0 25.4
2  33 3 0 0 25.4
0

0101000
+131 0 -87 0 *
Ve
2.54e-06
254 0 3.429
0 0

0101101
*
Ed
 2.54e-06 1 1 0
1  30 0 0 101.6
2  34 3 0 0 101.6
0

0101000
+85 0 -89 0 *
Ve
2.54e-06
38.1 0 3.429
0 0

0101101
*
Ed
 2.54e-06 1 1 0
1  31 0 0 12.7
2  35 3 0 0 12.7
0

0101000
+87 0 -83 0 *
Ve
2.54e-06
241.3 0 3.429
0 0

0101101
*
Ed
 2.54e-06 1 1 0
1  32 0 0 12.7
2  36 3 0 0 12.7
0

0101000
+81 0 -85 0 *
Ve
2.54e-06
114.3 0 3.429
0 0

0101101
*
Ed
 2.54e-06 1 1 0
1  33 0 0 76.2
2  37 3 0 0 76.2
0

0101000
+83 0 -79 0 *
Ve
2.54e-06
241.3 -12.7 3.429
0 0

0101101
*
Ed
 2.54e-06 1 1 0
1  34 0 0 12.7
2  38 3 0 0 12.7
0

0101000
+77 0 -81 0 *
Ve
2.54e-06
114.3 -12.7 3.429
0 0

0101101
*
Ed
 2.54e-06 1 1 0
1  35 0 0 12.7
2  39 3 0 0 12.7
0

0101000
+79 0 -75 0 *
Ve
2.54e-06
215.9 -12.7 3.429
0 0

0101101
*
Ed
 2.54e-06 1 1 0
1  36 0 0 25.4
2  40 3 0 0 25.4
0

0101000
+73 0 -77 0 *
Ve
2.54e-06
139.7 -12.7 3.429
0 0

0101101
*
Ed
 2.54e-06 1 1 0
1  37 0 0 25.4
2  41 3 0 0 25.4
0

0101000
+75 0 -71 0 *
Ve
2.54e-06
215.9 0 3.429
0 0

0101101
*
Ed
 2.54e-06 1 1 0
1  38 0 0 12.7
2  42 3 0 0 12.7
0

0101000
+69 0 -73 0 *
Ve
2.54e-06
139.7 0 3.429
0 0

0101101
*
Ed
 2.54e-06 1 1 0
1  39 0 0 12.7
2  43 3 0 0 12.7
0

0101000
+71 0 -67 0 *
Ed
 2.54e-06 1 1 0
1  40 0 0 76.2
2  44 3 0 0 76.2
0

0101000
+67 0 -69 0 *
Wi

0101100
+142 0 +135 0 +128 0 +88 0 +86 0 +84 0 +82 0 +80 0 +78 0 +76 0 
+74 0 +72 0 +70 0 +68 0 +66 0 +65 0 *
Ve
2.54e-06
125.095 50.8 3.429
0 0

0101101
*
Ve
2.54e-06
125.095 0 3.429
0 0

0101101
*
Ed
 2.54e-06 1 1 0
1  41 0 0 50.8
2  45 11 0 0 50.8
2  46 7 0 0 50.8
2  47 3 0 0 50.8
0

0101000
+63 0 -62 0 *
Ve
2.54e-06
128.905 0 3.429
0 0

0101101
*
Ed
 2.54e-06 1 1 0
1  42 0 0 3.81000000000001
2  48 11 0 0 3.81000000000001
2  49 8 0 0 3.81000000000001
2  50 3 0 0 3.81000000000001
0

0101000
+62 0 -60 0 *
Ve
2.54e-06
128.905 50.8 3.429
0 0

0101101
*
Ed
 2.54e-06 1 1 0
1  43 0 0 50.8
2  51 11 0 0 50.8
2  52 9 0 0 50.8
2  53 3 0 0 50.8
0

0101000
+60 0 -58 0 *
Ed
 2.54e-06 1 1 0
1  44 0 0 3.81000000000001
2  54 11 0 0 3.81000000000001
2  55 10 0 0 3.81000000000001
2  56 3 0 0 3.81000000000001
0

0101000
+58 0 -63 0 *
Wi

0101100
-61 0 -59 0 -57 0 -56 0 *
Fa
0  2.54e-06 3 0

0101000
+64 0 +55 0 *
Ed
 2.54e-06 1 1 0
1  45 0 0 3.429
0

0101000
+125 0 -89 0 *
Wi

0101100
+53 0 -137 0 -124 0 +88 0 *
Fa
0  2.54e-06 12 0

0101000
+52 0 *
Ed
 2.54e-06 1 1 0
1  46 0 0 3.429
0

0101000
+123 0 -87 0 *
Wi

0101100
+130 0 -50 0 -122 0 +86 0 *
Fa
0  2.54e-06 13 0

0101000
+49 0 *
Ed
 2.54e-06 1 1 0
1  47 0 0 3.429
0

0101000
+121 0 -85 0 *
Wi

0101100
+47 0 -53 0 -120 0 +84 0 *
Fa
0  2.54e-06 14 0

0101000
+46 0 *
Ed
 2.54e-06 1 1 0
1  48 0 0 3.429
0

0101000
+119 0 -83 0 *
Wi

0101100
+50 0 -44 0 -118 0 +82 0 *
Fa
0  2.54e-06 15 0

0101000
+43 0 *
Ed
 2.54e-06 1 1 0
1  49 0 0 3.429
0

0101000
+117 0 -81 0 *
Wi

0101100
+41 0 -47 0 -116 0 +80 0 *
Fa
0  2.54e-06 16 0

0101000
+40 0 *
Ed
 2.54e-06 1 1 0
1  50 0 0 3.429
0

0101000
+115 0 -79 0 *
Wi

0101100
+44 0 -38 0 -114 0 +78 0 *
Fa
0  2.54e-06 17 0

0101000
+37 0 *
Ed
 2.54e-06 1 1 0
1  51 0 0 3.429
0

0101000
+113 0 -77 0 *
Wi

0101100
+35 0 -41 0 -112 0 +76 0 *
Fa
0  2.54e-06 18 0

0101000
+34 0 *
Ed
 2.54e-06 1 1 0
1  52 0 0 3.429
0

0101000
+111 0 -75 0 *
Wi

0101100
+38 0 -32 0 -110 0 +74 0 *
Fa
0  2.54e-06 19 0

0101000
+31 0 *
Ed
 2.54e-06 1 1 0
1  53 0 0 3.429
0

0101000
+109 0 -73 0 *
Wi

0101100
+29 0 -35 0 -108 0 +72 0 *
Fa
0  2.54e-06 20 0

0101000
+28 0 *
Ed
 2.54e-06 1 1 0
1  54 0 0 3.429
0

0101000
+107 0 -71 0 *
Wi

0101100
+32 0 -26 0 -106 0 +70 0 *
Fa
0  2.54e-06 21 0

0101000
+25 0 *
Ed
 2.54e-06 1 1 0
1  55 0 0 3.429
0

0101000
+105 0 -69 0 *
Wi

0101100
+23 0 -29 0 -104 0 +68 0 *
Fa
0  2.54e-06 22 0

0101000
+22 0 *
Ed
 2.54e-06 1 1 0
1  56 0 0 3.429
0

0101000
+103 0 -67 0 *
Wi

0101100
+26 0 -20 0 -102 0 +66 0 *
Fa
0  2.54e-06 23 0

0101000
+19 0 *
Wi

0101100
+20 0 -23 0 -101 0 +65 0 *
Fa
0  2.54e-06 24 0

0101000
+17 0 *
Ed
 2.54e-06 1 1 0
1  57 0 0 3.429
2  57 7 0 0 3.429
2  58 10 0 0 3.429
0

0101000
+99 0 -63 0 *
Ed
 2.54e-06 1 1 0
1  58 0 0 3.429
2  59 7 0 0 3.429
2  60 8 0 0 3.429
0

0101000
+98 0 -62 0 *
Wi

0101100
+15 0 -14 0 -97 0 +61 0 *
Fa
0  2.54e-06 7 0

0101000
+13 0 *
Ed
 2.54e-06 1 1 0
1  59 0 0 3.429
2  61 9 0 0 3.429
2  62 8 0 0 3.429
0

0101000
+96 0 -60 0 *
Wi

0101100
+14 0 -11 0 -95 0 +59 0 *
Fa
0  2.54e-06 8 0

0101000
+10 0 *
Ed
 2.54e-06 1 1 0
1  60 0 0 3.429
2  63 10 0 0 3.429
2  64 9 0 0 3.429
0

0101000
+94 0 -58 0 *
Wi

0101100
+11 0 -8 0 -93 0 +57 0 *
Fa
0  2.54e-06 9 0

0101000
+7 0 *
Wi

0101100
+8 0 -15 0 -92 0 +56 0 *
Fa
0  2.54e-06 10 0

0101000
+5 0 *
Sh

0101100
-140 0 -133 0 -126 0 -90 0 +54 0 -51 0 -48 0 -45 0 -42 0 -39 0 
-36 0 -33 0 -30 0 -27 0 -24 0 -21 0 -18 0 -16 0 +12 0 +9 0 
+6 0 +4 0 *
So

0100000
+3 0 *
Co

1100000
+2 0 *

+1 0 