DBRep_DrawableShape

CASCADE Topology V3, (c) Open Cascade
Locations 0
Curve2ds 64
1 -126.99999999999999 -44.04032258064516 1 0 
1 -126.99999999999999 -44.04032258064516 1 0 
1 254 0 0 -1 
1 -126.99999999999999 57.559677419354834 0 -1 
1 -126.99999999999999 57.559677419354834 0 -1 
1 -114.29999999999998 -44.04032258064516 0 -1 
1 -114.29999999999998 -44.04032258064516 0 -1 
1 127.00000000000001 57.559677419354834 -1 0 
1 0 -0 1 0 
1 1.9050000000000438 25.399999999999977 0 -1 
1 0 0 1 0 
1 -1.9050000000000011 57.559677419354834 0 -1 
1 1.9050000000000438 -25.40000000000002 -1 0 
1 0 0 1 0 
1 -1.9050000000000011 6.759677419354837 1 0 
1 -1.9049999999999727 -25.40000000000002 0 1 
1 0 0 1 0 
1 1.9050000000000153 6.759677419354837 0 1 
1 127.00000000000001 -44.04032258064516 0 1 
1 114.3 -44.04032258064516 1 0 
1 114.3 -56.740322580645156 0 1 
1 88.899999999999991 -56.740322580645156 1 0 
1 88.899999999999991 -44.04032258064516 0 -1 
1 12.700000000000003 -44.04032258064516 1 0 
1 12.700000000000003 -56.740322580645156 0 1 
1 -12.699999999999989 -56.740322580645156 1 0 
1 -12.699999999999989 -44.04032258064516 0 -1 
1 -88.899999999999991 -44.04032258064516 1 0 
1 -88.899999999999991 -56.740322580645156 0 1 
1 -114.29999999999998 -56.740322580645156 1 0 
1 127.00000000000001 57.559677419354834 -1 0 
1 0 -3.4289999999999998 1 0 
1 1.9050000000000438 25.399999999999977 0 -1 
1 0 -3.4289999999999998 1 0 
1 -1.9050000000000011 57.559677419354834 0 -1 
1 1.9050000000000438 -25.40000000000002 -1 0 
1 0 -3.4289999999999998 1 0 
1 -1.9050000000000011 6.759677419354837 1 0 
1 -1.9049999999999727 -25.40000000000002 0 1 
1 0 -3.4289999999999998 1 0 
1 1.9050000000000153 6.759677419354837 0 1 
1 127.00000000000001 -44.04032258064516 0 1 
1 114.3 -44.04032258064516 1 0 
1 114.3 -56.740322580645156 0 1 
1 88.899999999999991 -56.740322580645156 1 0 
1 88.899999999999991 -44.04032258064516 0 -1 
1 12.700000000000003 -44.04032258064516 1 0 
1 12.700000000000003 -56.740322580645156 0 1 
1 -12.699999999999989 -56.740322580645156 1 0 
1 -12.699999999999989 -44.04032258064516 0 -1 
1 -88.899999999999991 -44.04032258064516 1 0 
1 -88.899999999999991 -56.740322580645156 0 1 
1 -114.29999999999998 -56.740322580645156 1 0 
1 0 0 0 -1 
1 3.8100000000000165 0 0 -1 
1 128.90500000000003 0 0 -1 
1 50.799999999999997 0 0 -1 
1 0 0 0 -1 
1 0 0 0 -1 
1 3.8100000000000165 0 0 -1 
1 0 -0 0 -1 
1 50.799999999999997 0 0 -1 
1 125.095 0 0 -1 
1 0 -0 0 -1 
Curves 58
1 0 0 0 0 0 1 
1 12.699999999999999 0 0 0 0 1 
1 0 0 0 1 0 0 
1 0 0 3.4289999999999998 1 0 0 
1 0 101.59999999999999 0 0 0 1 
1 0 101.59999999999999 0 0 -1 0 
1 0 101.59999999999999 3.4289999999999998 0 -1 0 
1 12.699999999999999 -12.699999999999999 0 0 0 1 
1 12.699999999999999 0 0 0 -1 0 
1 12.699999999999999 0 3.4289999999999998 0 -1 0 
1 254 101.59999999999999 0 -1 0 0 
1 125.09499999999998 101.59999999999999 0 0 -1 0 
1 125.09499999999998 50.799999999999997 0 1 0 0 
1 128.905 50.799999999999997 0 0 1 0 
1 254 0 0 0 1 0 
1 241.29999999999998 0 0 1 0 0 
1 241.29999999999998 -12.699999999999999 0 0 1 0 
1 215.89999999999998 -12.699999999999999 0 1 0 0 
1 215.89999999999998 0 0 0 -1 0 
1 139.69999999999999 0 0 1 0 0 
1 139.69999999999999 -12.699999999999999 0 0 1 0 
1 114.3 -12.699999999999999 0 1 0 0 
1 114.3 0 0 0 -1 0 
1 38.099999999999994 0 0 1 0 0 
1 38.099999999999994 -12.699999999999999 0 0 1 0 
1 12.699999999999999 -12.699999999999999 0 1 0 0 
1 254 101.59999999999999 3.4289999999999998 -1 0 0 
1 125.09499999999998 101.59999999999999 3.4289999999999998 0 -1 0 
1 125.09499999999998 50.799999999999997 3.4289999999999998 1 0 0 
1 128.905 50.799999999999997 3.4289999999999998 0 1 0 
1 254 0 3.4289999999999998 0 1 0 
1 241.29999999999998 0 3.4289999999999998 1 0 0 
1 241.29999999999998 -12.699999999999999 3.4289999999999998 0 1 0 
1 215.89999999999998 -12.699999999999999 3.4289999999999998 1 0 0 
1 215.89999999999998 0 3.4289999999999998 0 -1 0 
1 139.69999999999999 0 3.4289999999999998 1 0 0 
1 139.69999999999999 -12.699999999999999 3.4289999999999998 0 1 0 
1 114.3 -12.699999999999999 3.4289999999999998 1 0 0 
1 114.3 0 3.4289999999999998 0 -1 0 
1 38.099999999999994 0 3.4289999999999998 1 0 0 
1 38.099999999999994 -12.699999999999999 3.4289999999999998 0 1 0 
1 12.699999999999999 -12.699999999999999 3.4289999999999998 1 0 0 
1 125.09499999999998 101.59999999999999 0 0 0 1 
1 38.099999999999994 -12.699999999999999 0 0 0 1 
1 125.09499999999998 50.799999999999997 0 0 0 1 
1 128.905 50.799999999999997 0 0 0 1 
1 128.905 101.59999999999999 0 0 0 1 
1 254 101.59999999999999 0 0 0 1 
1 254 0 0 0 0 1 
1 241.29999999999998 0 0 0 0 1 
1 241.29999999999998 -12.699999999999999 0 0 0 1 
1 215.89999999999998 -12.699999999999999 0 0 0 1 
1 215.89999999999998 0 0 0 0 1 
1 139.69999999999999 0 0 0 0 1 
1 139.69999999999999 -12.699999999999999 0 0 0 1 
1 114.3 -12.699999999999999 0 0 0 1 
1 114.3 0 0 0 0 1 
1 38.099999999999994 0 0 0 0 1 
Polygon3D 0
PolygonOnTriangulations 0
Surfaces 24
1 0 0 0 0 1 0 1 0 0 0 0 -1 
1 126.99999999999999 44.04032258064516 0 0 0 1 1 0 -0 -0 1 0 
1 126.99999999999999 44.04032258064516 3.4289999999999998 0 0 1 1 0 -0 -0 1 0 
1 0 101.59999999999999 0 1 0 -0 0 -1 0 0 -0 -1 
1 254 101.59999999999999 0 0 -1 0 -1 0 0 -0 -0 -1 
1 12.699999999999999 0 0 1 0 -0 0 -1 0 0 -0 -1 
1 127.00000000000003 76.200000000000017 0 -0 -0 -1 -1 0 0 0 1 -0 
1 125.09499999999998 101.59999999999999 0 1 0 -0 0 -1 0 0 -0 -1 
1 125.09499999999998 50.799999999999997 0 0 1 0 1 0 0 0 0 -1 
1 128.905 50.799999999999997 0 -1 0 0 0 1 0 0 0 -1 
1 127.00000000000003 76.200000000000017 3.4289999999999998 -0 -0 -1 -1 0 0 0 1 -0 
1 128.905 101.59999999999999 0 0 -1 0 -1 0 0 -0 -0 -1 
1 12.699999999999999 -12.699999999999999 0 0 1 0 1 0 0 0 0 -1 
1 254 0 0 -1 0 0 0 1 0 0 0 -1 
1 241.29999999999998 0 0 0 1 0 1 0 0 0 0 -1 
1 241.29999999999998 -12.699999999999999 0 -1 0 0 0 1 0 0 0 -1 
1 215.89999999999998 -12.699999999999999 0 0 1 0 1 0 0 0 0 -1 
1 215.89999999999998 0 0 1 0 -0 0 -1 0 0 -0 -1 
1 139.69999999999999 0 0 0 1 0 1 0 0 0 0 -1 
1 139.69999999999999 -12.699999999999999 0 -1 0 0 0 1 0 0 0 -1 
1 114.3 -12.699999999999999 0 0 1 0 1 0 0 0 0 -1 
1 114.3 0 0 1 0 -0 0 -1 0 0 -0 -1 
1 38.099999999999994 0 0 0 1 0 1 0 0 0 0 -1 
1 38.099999999999994 -12.699999999999999 0 -1 0 0 0 1 0 0 0 -1 
Triangulations 0

TShapes 147
Ve
2.54e-06
0 0 0
0 0

0101101
*
Ve
2.54e-06
0 0 3.429
0 0

0101101
*
Ed
 2.54e-06 1 1 0
1  1 0 0 3.429
0

0101000
+147 0 -146 0 *
Ve
2.54e-06
12.7 0 0
0 0

0101101
*
Ve
2.54e-06
12.7 0 3.429
0 0

0101101
*
Ed
 2.54e-06 1 1 0
1  2 0 0 3.429
0

0101000
+144 0 -143 0 *
Ed
 2.54e-06 1 1 0
1  3 0 0 12.7
2  1 2 0 0 12.7
0

0101000
+147 0 -144 0 *
Ed
 2.54e-06 1 1 0
1  4 0 0 12.7
2  2 3 0 0 12.7
0

0101000
+146 0 -143 0 *
Wi

0101100
+145 0 -142 0 -141 0 +140 0 *
Fa
0  2.54e-06 1 0

0101000
+139 0 *
Ve
2.54e-06
0 101.6 0
0 0

0101101
*
Ve
2.54e-06
0 101.6 3.429
0 0

0101101
*
Ed
 2.54e-06 1 1 0
1  5 0 0 3.429
2  3 5 0 0 3.429
0

0101000
+137 0 -136 0 *
Ed
 2.54e-06 1 1 0
1  6 0 0 101.6
2  4 2 0 0 101.6
0

0101000
+137 0 -147 0 *
Ed
 2.54e-06 1 1 0
1  7 0 0 101.6
2  5 3 0 0 101.6
0

0101000
+136 0 -146 0 *
Wi

0101100
+135 0 -145 0 -134 0 +133 0 *
Fa
0  2.54e-06 4 0

0101000
+132 0 *
Ve
2.54e-06
12.7 -12.7 0
0 0

0101101
*
Ve
2.54e-06
12.7 -12.7 3.429
0 0

0101101
*
Ed
 2.54e-06 1 1 0
1  8 0 0 3.429
0

0101000
+130 0 -129 0 *
Ed
 2.54e-06 1 1 0
1  9 0 0 12.7
2  6 2 0 0 12.7
0

0101000
+144 0 -130 0 *
Ed
 2.54e-06 1 1 0
1  10 0 0 12.7
2  7 3 0 0 12.7
0

0101000
+143 0 -129 0 *
Wi

0101100
+142 0 -128 0 -127 0 +126 0 *
Fa
0  2.54e-06 6 0

0101000
+125 0 *
Ve
2.54000001421085e-06
125.095 101.6 0
0 0

0101101
*
Ed
 2.54e-06 1 1 0
1  11 0 128.905 254
2  8 2 0 128.905 254
2  9 5 0 128.905 254
0

0101000
+123 0 -137 0 *
Ve
2.54e-06
125.095 50.8 0
0 0

0101101
*
Ed
 2.54e-06 1 1 0
1  12 0 0 50.8
2  10 7 0 0 50.8
2  11 8 0 0 50.8
2  12 2 0 0 50.8
0

0101000
+123 0 -121 0 *
Ve
2.54e-06
128.905 50.8 0
0 0

0101101
*
Ed
 2.54e-06 1 1 0
1  13 0 0 3.81000000000001
2  13 7 0 0 3.81000000000001
2  14 9 0 0 3.81000000000001
2  15 2 0 0 3.81000000000001
0

0101000
+121 0 -119 0 *
Ve
2.54e-06
128.905 101.6 0
0 0

0101101
*
Ed
 2.54e-06 1 1 0
1  14 0 0 50.8
2  16 7 0 0 50.8
2  17 10 0 0 50.8
2  18 2 0 0 50.8
0

0101000
+119 0 -117 0 *
Ve
2.54e-06
254 101.6 0
0 0

0101101
*
Ed
 2.54e-06 1 1 0
1  11 0 0 125.095
2  8 2 0 0 125.095
2  9 5 0 0 125.095
0

0101000
+115 0 -117 0 *
Ve
2.54e-06
254 0 0
0 0

0101101
*
Ed
 2.54e-06 1 1 0
1  15 0 0 101.6
2  19 2 0 0 101.6
0

0101000
+113 0 -115 0 *
Ve
2.54e-06
241.3 0 0
0 0

0101101
*
Ed
 2.54e-06 1 1 0
1  16 0 0 12.7
2  20 2 0 0 12.7
0

0101000
+111 0 -113 0 *
Ve
2.54e-06
241.3 -12.7 0
0 0

0101101
*
Ed
 2.54e-06 1 1 0
1  17 0 0 12.7
2  21 2 0 0 12.7
0

0101000
+109 0 -111 0 *
Ve
2.54e-06
215.9 -12.7 0
0 0

0101101
*
Ed
 2.54e-06 1 1 0
1  18 0 0 25.4
2  22 2 0 0 25.4
0

0101000
+107 0 -109 0 *
Ve
2.54e-06
215.9 0 0
0 0

0101101
*
Ed
 2.54e-06 1 1 0
1  19 0 0 12.7
2  23 2 0 0 12.7
0

0101000
+105 0 -107 0 *
Ve
2.54e-06
139.7 0 0
0 0

0101101
*
Ed
 2.54e-06 1 1 0
1  20 0 0 76.2
2  24 2 0 0 76.2
0

0101000
+103 0 -105 0 *
Ve
2.54e-06
139.7 -12.7 0
0 0

0101101
*
Ed
 2.54e-06 1 1 0
1  21 0 0 12.7
2  25 2 0 0 12.7
0

0101000
+101 0 -103 0 *
Ve
2.54e-06
114.3 -12.7 0
0 0

0101101
*
Ed
 2.54e-06 1 1 0
1  22 0 0 25.4
2  26 2 0 0 25.4
0

0101000
+99 0 -101 0 *
Ve
2.54e-06
114.3 0 0
0 0

0101101
*
Ed
 2.54e-06 1 1 0
1  23 0 0 12.7
2  27 2 0 0 12.7
0

0101000
+97 0 -99 0 *
Ve
2.54e-06
38.1 0 0
0 0

0101101
*
Ed
 2.54e-06 1 1 0
1  24 0 0 76.2
2  28 2 0 0 76.2
0

0101000
+95 0 -97 0 *
Ve
2.54e-06
38.1 -12.7 0
0 0

0101101
*
Ed
 2.54e-06 1 1 0
1  25 0 0 12.7
2  29 2 0 0 12.7
0

0101000
+93 0 -95 0 *
Ed
 2.54e-06 1 1 0
1  26 0 0 25.4
2  30 2 0 0 25.4
0

0101000
+130 0 -93 0 *
Wi

0101100
+134 0 +122 0 -120 0 -118 0 -116 0 +114 0 +112 0 +110 0 +108 0 +106 0 
+104 0 +102 0 +100 0 +98 0 +96 0 +94 0 +92 0 +91 0 +127 0 +141 0 
*
Fa
0  2.54e-06 2 0

0101000
+90 0 *
Ve
2.54000001421085e-06
125.095 101.6 3.429
0 0

0101101
*
Ed
 2.54e-06 1 1 0
1  27 0 128.905 254
2  31 3 0 128.905 254
2  32 5 0 128.905 254
0

0101000
+88 0 -136 0 *
Ve
2.54e-06
125.095 50.8 3.429
0 0

0101101
*
Ed
 2.54e-06 1 1 0
1  28 0 0 50.8
2  33 11 0 0 50.8
2  34 8 0 0 50.8
2  35 3 0 0 50.8
0

0101000
+88 0 -86 0 *
Ve
2.54e-06
128.905 50.8 3.429
0 0

0101101
*
Ed
 2.54e-06 1 1 0
1  29 0 0 3.81000000000001
2  36 11 0 0 3.81000000000001
2  37 9 0 0 3.81000000000001
2  38 3 0 0 3.81000000000001
0

0101000
+86 0 -84 0 *
Ve
2.54e-06
128.905 101.6 3.429
0 0

0101101
*
Ed
 2.54e-06 1 1 0
1  30 0 0 50.8
2  39 11 0 0 50.8
2  40 10 0 0 50.8
2  41 3 0 0 50.8
0

0101000
+84 0 -82 0 *
Ve
2.54e-06
254 101.6 3.429
0 0

0101101
*
Ed
 2.54e-06 1 1 0
1  27 0 0 125.095
2  31 3 0 0 125.095
2  32 5 0 0 125.095
0

0101000
+80 0 -82 0 *
Ve
2.54e-06
254 0 3.429
0 0

0101101
*
Ed
 2.54e-06 1 1 0
1  31 0 0 101.6
2  42 3 0 0 101.6
0

0101000
+78 0 -80 0 *
Ve
2.54e-06
241.3 0 3.429
0 0

0101101
*
Ed
 2.54e-06 1 1 0
1  32 0 0 12.7
2  43 3 0 0 12.7
0

0101000
+76 0 -78 0 *
Ve
2.54e-06
241.3 -12.7 3.429
0 0

0101101
*
Ed
 2.54e-06 1 1 0
1  33 0 0 12.7
2  44 3 0 0 12.7
0

0101000
+74 0 -76 0 *
Ve
2.54e-06
215.9 -12.7 3.429
0 0

0101101
*
Ed
 2.54e-06 1 1 0
1  34 0 0 25.4
2  45 3 0 0 25.4
0

0101000
+72 0 -74 0 *
Ve
2.54e-06
215.9 0 3.429
0 0

0101101
*
Ed
 2.54e-06 1 1 0
1  35 0 0 12.7
2  46 3 0 0 12.7
0

0101000
+70 0 -72 0 *
Ve
2.54e-06
139.7 0 3.429
0 0

0101101
*
Ed
 2.54e-06 1 1 0
1  36 0 0 76.2
2  47 3 0 0 76.2
0

0101000
+68 0 -70 0 *
Ve
2.54e-06
139.7 -12.7 3.429
0 0

0101101
*
Ed
 2.54e-06 1 1 0
1  37 0 0 12.7
2  48 3 0 0 12.7
0

0101000
+66 0 -68 0 *
Ve
2.54e-06
114.3 -12.7 3.429
0 0

0101101
*
Ed
 2.54e-06 1 1 0
1  38 0 0 25.4
2  49 3 0 0 25.4
0

0101000
+64 0 -66 0 *
Ve
2.54e-06
114.3 0 3.429
0 0

0101101
*
Ed
 2.54e-06 1 1 0
1  39 0 0 12.7
2  50 3 0 0 12.7
0

0101000
+62 0 -64 0 *
Ve
2.54e-06
38.1 0 3.429
0 0

0101101
*
Ed
 2.54e-06 1 1 0
1  40 0 0 76.2
2  51 3 0 0 76.2
0

0101000
+60 0 -62 0 *
Ve
2.54e-06
38.1 -12.7 3.429
0 0

0101101
*
Ed
 2.54e-06 1 1 0
1  41 0 0 12.7
2  52 3 0 0 12.7
0

0101000
+58 0 -60 0 *
Ed
 2.54e-06 1 1 0
1  42 0 0 25.4
2  53 3 0 0 25.4
0

0101000
+129 0 -58 0 *
Wi

0101100
+133 0 +87 0 -85 0 -83 0 -81 0 +79 0 +77 0 +75 0 +73 0 +71 0 
+69 0 +67 0 +65 0 +63 0 +61 0 +59 0 +57 0 +56 0 +126 0 +140 0 
*
Fa
0  2.54e-06 3 0

0101000
+55 0 *
Ed
 2.54e-06 1 1 0
1  43 0 0 3.429
2  54 8 0 0 3.429
2  55 12 0 0 3.429
2  56 5 0 0 3.429
0

0101000
+123 0 -88 0 *
Wi

0101100
-122 0 -135 0 +87 0 +53 0 *
Fa
0  2.54e-06 5 0

0101000
+52 0 *
Ed
 2.54e-06 1 1 0
1  44 0 0 3.429
0

0101000
+93 0 -58 0 *
Wi

0101100
+128 0 -50 0 -91 0 +56 0 *
Fa
0  2.54e-06 13 0

0101000
+49 0 *
Ed
 2.54e-06 1 1 0
1  45 0 0 3.429
2  57 8 0 0 3.429
2  58 9 0 0 3.429
0

0101000
+121 0 -86 0 *
Wi

0101100
+53 0 -47 0 -120 0 +85 0 *
Fa
0  2.54e-06 8 0

0101000
+46 0 *
Ed
 2.54e-06 1 1 0
1  46 0 0 3.429
2  59 10 0 0 3.429
2  60 9 0 0 3.429
0

0101000
+119 0 -84 0 *
Wi

0101100
+47 0 -44 0 -118 0 +83 0 *
Fa
0  2.54e-06 9 0

0101000
+43 0 *
Ed
 2.54e-06 1 1 0
1  47 0 0 3.429
2  61 12 0 0 3.429
2  62 10 0 0 3.429
2  63 5 0 0 3.429
0

0101000
+117 0 -82 0 *
Wi

0101100
+44 0 -41 0 -116 0 +81 0 *
Fa
0  2.54e-06 10 0

0101000
+40 0 *
Ed
 2.54e-06 1 1 0
1  48 0 0 3.429
2  64 5 0 0 3.429
0

0101000
+115 0 -80 0 *
Wi

0101100
-114 0 -41 0 +79 0 +38 0 *
Fa
0  2.54e-06 5 0

0101000
+37 0 *
Ed
 2.54e-06 1 1 0
1  49 0 0 3.429
0

0101000
+113 0 -78 0 *
Wi

0101100
+35 0 -38 0 -112 0 +77 0 *
Fa
0  2.54e-06 14 0

0101000
+34 0 *
Ed
 2.54e-06 1 1 0
1  50 0 0 3.429
0

0101000
+111 0 -76 0 *
Wi

0101100
+32 0 -35 0 -110 0 +75 0 *
Fa
0  2.54e-06 15 0

0101000
+31 0 *
Ed
 2.54e-06 1 1 0
1  51 0 0 3.429
0

0101000
+109 0 -74 0 *
Wi

0101100
+29 0 -32 0 -108 0 +73 0 *
Fa
0  2.54e-06 16 0

0101000
+28 0 *
Ed
 2.54e-06 1 1 0
1  52 0 0 3.429
0

0101000
+107 0 -72 0 *
Wi

0101100
+26 0 -29 0 -106 0 +71 0 *
Fa
0  2.54e-06 17 0

0101000
+25 0 *
Ed
 2.54e-06 1 1 0
1  53 0 0 3.429
0

0101000
+105 0 -70 0 *
Wi

0101100
+23 0 -26 0 -104 0 +69 0 *
Fa
0  2.54e-06 18 0

0101000
+22 0 *
Ed
 2.54e-06 1 1 0
1  54 0 0 3.429
0

0101000
+103 0 -68 0 *
Wi

0101100
+20 0 -23 0 -102 0 +67 0 *
Fa
0  2.54e-06 19 0

0101000
+19 0 *
Ed
 2.54e-06 1 1 0
1  55 0 0 3.429
0

0101000
+101 0 -66 0 *
Wi

0101100
+17 0 -20 0 -100 0 +65 0 *
Fa
0  2.54e-06 20 0

0101000
+16 0 *
Ed
 2.54e-06 1 1 0
1  56 0 0 3.429
0

0101000
+99 0 -64 0 *
Wi

0101100
+14 0 -17 0 -98 0 +63 0 *
Fa
0  2.54e-06 21 0

0101000
+13 0 *
Ed
 2.54e-06 1 1 0
1  57 0 0 3.429
0

0101000
+97 0 -62 0 *
Wi

0101100
+11 0 -14 0 -96 0 +61 0 *
Fa
0  2.54e-06 22 0

0101000
+10 0 *
Ed
 2.54e-06 1 1 0
1  58 0 0 3.429
0

0101000
+95 0 -60 0 *
Wi

0101100
+8 0 -11 0 -94 0 +59 0 *
Fa
0  2.54e-06 23 0

0101000
+7 0 *
Wi

0101100
+50 0 -8 0 -92 0 +57 0 *
Fa
0  2.54e-06 24 0

0101000
+5 0 *
Sh

0101100
-138 0 -131 0 -124 0 -89 0 +54 0 -51 0 -48 0 +45 0 +42 0 +39 0 
-36 0 -33 0 -30 0 -27 0 -24 0 -21 0 -18 0 -15 0 -12 0 -9 0 
-6 0 -4 0 *
So

0100000
+3 0 *
Co

1100000
+2 0 *

+1 0 