DBRep_DrawableShape

CASCADE Topology V3, (c) Open Cascade
Locations 0
Curve2ds 288
1 -152.39999999999998 -152.39999999999998 1 0 
1 -152.39999999999998 -152.39999999999998 1 0 
1 -152.39999999999998 152.39999999999998 0 -1 
1 -152.39999999999998 152.39999999999998 0 -1 
1 152.39999999999998 -152.39999999999998 0 1 
1 152.39999999999998 -152.39999999999998 0 1 
1 152.39999999999998 152.39999999999998 -1 0 
1 0 0 1 0 
2 0 0 -1 0 0 1 3.1750000000000007
2 -139.69999999999999 -139.69999999999999 1 0 -0 1 3.1750000000000007
1 38.099999999999994 1.9050000000000011 0 -1 
1 0 0 1 0 
1 -114.29999999999998 -99.694999999999979 0 -1 
1 -38.100000000000009 1.9050000000000011 1 0 
1 0 -0 1 0 
1 -38.09999999999998 -99.694999999999979 -1 0 
1 38.099999999999994 -1.9050000000000011 -1 0 
1 0 0 1 0 
1 -114.29999999999998 -103.50499999999998 1 0 
1 -38.100000000000009 -1.9050000000000011 0 1 
1 0 0 1 0 
1 -38.09999999999998 -103.50499999999998 0 1 
1 0 0 1 0 
2 0 1.7763568394002505e-15 -1 0 0 1 3.1750000000000114
2 139.69999999999999 -139.69999999999999 1 0 -0 1 3.1750000000000114
1 38.100000000000023 1.9050000000000011 0 -1 
1 0 0 1 0 
1 38.100000000000023 -99.694999999999979 0 -1 
1 -38.099999999999966 1.9050000000000011 1 0 
1 0 -0 1 0 
1 114.30000000000001 -99.694999999999979 -1 0 
1 38.100000000000023 -1.9050000000000011 -1 0 
1 0 0 1 0 
1 38.100000000000023 -103.50499999999998 1 0 
1 1.9049999999999443 38.099999999999994 0 -1 
1 0 0 1 0 
1 99.695000000000022 -38.09999999999998 0 -1 
1 99.695000000000022 -38.09999999999998 0 -1 
1 -1.9050000000000296 38.099999999999994 1 0 
1 0 -0 1 0 
1 103.505 -38.09999999999998 -1 0 
1 1.9049999999999443 -38.100000000000009 -1 0 
1 0 0 1 0 
1 99.695000000000022 -114.29999999999998 1 0 
1 -1.9050000000000296 -38.100000000000009 0 1 
1 0 0 1 0 
1 103.505 -114.29999999999998 0 1 
1 103.505 -114.29999999999998 0 1 
1 -38.099999999999966 -1.9050000000000011 0 1 
1 0 0 1 0 
1 114.30000000000001 -103.50499999999998 0 1 
1 0 0 1 0 
2 0 5.6843418860808015e-14 -1 0 0 1 3.1750000000000007
2 -139.69999999999999 139.69999999999999 1 0 -0 1 3.1750000000000007
1 50.799999999999997 1.9050000000000011 0 -1 
1 0 0 1 0 
1 -114.29999999999998 103.505 0 -1 
1 -50.799999999999997 1.9050000000000011 1 0 
1 0 -0 1 0 
1 -12.699999999999989 103.505 -1 0 
1 50.799999999999997 -1.9049999999999727 -1 0 
1 0 0 1 0 
1 -114.29999999999998 99.695000000000022 1 0 
1 -50.799999999999997 -1.9049999999999727 0 1 
1 0 0 1 0 
1 -12.699999999999989 99.695000000000022 0 1 
1 114.30000000000001 1.9050000000000011 0 -1 
1 0 0 1 0 
1 -114.29999999999998 1.9050000000000296 0 -1 
1 -114.29999999999998 1.9050000000000011 1 0 
1 0 -0 1 0 
1 114.30000000000001 1.9050000000000296 -1 0 
1 114.30000000000001 -1.9050000000000296 -1 0 
1 0 0 1 0 
1 -114.29999999999998 -1.9050000000000011 1 0 
1 1.9050000000000011 114.29999999999998 0 -1 
1 0 0 1 0 
1 -1.9050000000000011 114.30000000000001 0 -1 
1 -1.9050000000000011 114.30000000000001 0 -1 
1 -1.9050000000000296 114.29999999999998 1 0 
1 0 -0 1 0 
1 1.9050000000000296 114.30000000000001 -1 0 
1 1.9050000000000011 -114.30000000000001 -1 0 
1 0 0 1 0 
1 -1.9050000000000011 -114.29999999999998 1 0 
1 -1.9050000000000296 -114.30000000000001 0 1 
1 0 0 1 0 
1 1.9050000000000296 -114.29999999999998 0 1 
1 1.9050000000000296 -114.29999999999998 0 1 
1 -114.29999999999998 -1.9050000000000296 0 1 
1 0 0 1 0 
1 114.30000000000001 -1.9050000000000011 0 1 
1 50.800000000000011 1.9050000000000011 0 -1 
1 0 0 1 0 
1 12.700000000000017 103.505 0 -1 
1 -50.799999999999983 1.9050000000000011 1 0 
1 0 -0 1 0 
1 114.30000000000001 103.505 -1 0 
1 50.800000000000011 -1.9049999999999727 -1 0 
1 0 0 1 0 
1 12.700000000000017 99.695000000000022 1 0 
1 -50.799999999999983 -1.9049999999999727 0 1 
1 0 0 1 0 
1 114.30000000000001 99.695000000000022 0 1 
1 0 0 1 0 
2 0 0 -1 0 0 1 3.1750000000000114
2 139.69999999999999 139.69999999999999 1 0 -0 1 3.1750000000000114
1 152.39999999999998 152.39999999999998 -1 0 
1 0 -3.4289999999999998 1 0 
2 0 0 -1 0 0 1 3.1750000000000007
2 -139.69999999999999 -139.69999999999999 1 0 -0 1 3.1750000000000007
1 38.099999999999994 1.9050000000000011 0 -1 
1 0 -3.4289999999999998 1 0 
1 -114.29999999999998 -99.694999999999979 0 -1 
1 -38.100000000000009 1.9050000000000011 1 0 
1 0 -3.4289999999999998 1 0 
1 -38.09999999999998 -99.694999999999979 -1 0 
1 38.099999999999994 -1.9050000000000011 -1 0 
1 0 -3.4289999999999998 1 0 
1 -114.29999999999998 -103.50499999999998 1 0 
1 -38.100000000000009 -1.9050000000000011 0 1 
1 0 -3.4289999999999998 1 0 
1 -38.09999999999998 -103.50499999999998 0 1 
1 0 -3.4289999999999998 1 0 
2 0 1.7763568394002505e-15 -1 0 0 1 3.1750000000000114
2 139.69999999999999 -139.69999999999999 1 0 -0 1 3.1750000000000114
1 38.100000000000023 1.9050000000000011 0 -1 
1 0 -3.4289999999999998 1 0 
1 38.100000000000023 -99.694999999999979 0 -1 
1 -38.099999999999966 1.9050000000000011 1 0 
1 0 -3.4289999999999998 1 0 
1 114.30000000000001 -99.694999999999979 -1 0 
1 38.100000000000023 -1.9050000000000011 -1 0 
1 0 -3.4289999999999998 1 0 
1 38.100000000000023 -103.50499999999998 1 0 
1 1.9049999999999443 38.099999999999994 0 -1 
1 0 -3.4289999999999998 1 0 
1 99.695000000000022 -38.09999999999998 0 -1 
1 99.695000000000022 -38.09999999999998 0 -1 
1 -1.9050000000000296 38.099999999999994 1 0 
1 0 -3.4289999999999998 1 0 
1 103.505 -38.09999999999998 -1 0 
1 1.9049999999999443 -38.100000000000009 -1 0 
1 0 -3.4289999999999998 1 0 
1 99.695000000000022 -114.29999999999998 1 0 
1 -1.9050000000000296 -38.100000000000009 0 1 
1 0 -3.4289999999999998 1 0 
1 103.505 -114.29999999999998 0 1 
1 103.505 -114.29999999999998 0 1 
1 -38.099999999999966 -1.9050000000000011 0 1 
1 0 -3.4289999999999998 1 0 
1 114.30000000000001 -103.50499999999998 0 1 
1 0 -3.4289999999999998 1 0 
2 0 5.6843418860808015e-14 -1 0 0 1 3.1750000000000007
2 -139.69999999999999 139.69999999999999 1 0 -0 1 3.1750000000000007
1 50.799999999999997 1.9050000000000011 0 -1 
1 0 -3.4289999999999998 1 0 
1 -114.29999999999998 103.505 0 -1 
1 -50.799999999999997 1.9050000000000011 1 0 
1 0 -3.4289999999999998 1 0 
1 -12.699999999999989 103.505 -1 0 
1 50.799999999999997 -1.9049999999999727 -1 0 
1 0 -3.4289999999999998 1 0 
1 -114.29999999999998 99.695000000000022 1 0 
1 -50.799999999999997 -1.9049999999999727 0 1 
1 0 -3.4289999999999998 1 0 
1 -12.699999999999989 99.695000000000022 0 1 
1 114.30000000000001 1.9050000000000011 0 -1 
1 0 -3.4289999999999998 1 0 
1 -114.29999999999998 1.9050000000000296 0 -1 
1 -114.29999999999998 1.9050000000000011 1 0 
1 0 -3.4289999999999998 1 0 
1 114.30000000000001 1.9050000000000296 -1 0 
1 114.30000000000001 -1.9050000000000296 -1 0 
1 0 -3.4289999999999998 1 0 
1 -114.29999999999998 -1.9050000000000011 1 0 
1 1.9050000000000011 114.29999999999998 0 -1 
1 0 -3.4289999999999998 1 0 
1 -1.9050000000000011 114.30000000000001 0 -1 
1 -1.9050000000000011 114.30000000000001 0 -1 
1 -1.9050000000000296 114.29999999999998 1 0 
1 0 -3.4289999999999998 1 0 
1 1.9050000000000296 114.30000000000001 -1 0 
1 1.9050000000000011 -114.30000000000001 -1 0 
1 0 -3.4289999999999998 1 0 
1 -1.9050000000000011 -114.29999999999998 1 0 
1 -1.9050000000000296 -114.30000000000001 0 1 
1 0 -3.4289999999999998 1 0 
1 1.9050000000000296 -114.29999999999998 0 1 
1 1.9050000000000296 -114.29999999999998 0 1 
1 -114.29999999999998 -1.9050000000000296 0 1 
1 0 -3.4289999999999998 1 0 
1 114.30000000000001 -1.9050000000000011 0 1 
1 50.800000000000011 1.9050000000000011 0 -1 
1 0 -3.4289999999999998 1 0 
1 12.700000000000017 103.505 0 -1 
1 -50.799999999999983 1.9050000000000011 1 0 
1 0 -3.4289999999999998 1 0 
1 114.30000000000001 103.505 -1 0 
1 50.800000000000011 -1.9049999999999727 -1 0 
1 0 -3.4289999999999998 1 0 
1 12.700000000000017 99.695000000000022 1 0 
1 -50.799999999999983 -1.9049999999999727 0 1 
1 0 -3.4289999999999998 1 0 
1 114.30000000000001 99.695000000000022 0 1 
1 0 -3.4289999999999998 1 0 
2 0 0 -1 0 0 1 3.1750000000000114
2 139.69999999999999 139.69999999999999 1 0 -0 1 3.1750000000000114
1 0 0 0 -1 
1 6.2831853071795862 0 0 -1 
1 0 0 0 -1 
1 76.200000000000003 0 0 -1 
1 3.8100000000000023 0 0 -1 
1 0 0 0 -1 
1 0 -0 0 -1 
1 3.8100000000000023 0 0 -1 
1 0 0 0 -1 
1 76.200000000000003 0 0 -1 
1 0 0 0 -1 
1 6.2831853071795862 0 0 -1 
1 0 0 0 -1 
1 76.199999999999989 0 0 -1 
1 3.8100000000000023 0 0 -1 
1 0 0 0 -1 
8 0 3.4289999999999998
1 14.60499999999999 0 0 -1 
8 0 3.4289999999999998
1 61.594999999999999 0 0 -1 
8 -3.4289999999999998 0
1 61.594999999999999 0 0 1 
8 -3.4289999999999998 0
1 65.405000000000001 0 -0 1 
1 0 0 0 -1 
1 3.8099999999999739 0 0 -1 
1 76.200000000000003 0 0 -1 
1 0 0 0 -1 
1 76.200000000000003 0 0 -1 
1 0 -0 0 -1 
1 0 0 0 -1 
1 3.8099999999999739 0 0 -1 
8 -3.4289999999999998 0
1 10.795000000000016 0 0 1 
8 -3.4289999999999998 0
1 14.605000000000004 0 -0 1 
8 0 3.4289999999999998
1 65.404999999999973 0 0 -1 
8 0 3.4289999999999998
1 10.795000000000002 0 0 -1 
1 0 -0 0 -1 
1 3.8100000000000023 0 0 -1 
1 0 0 0 -1 
1 76.199999999999989 0 0 -1 
1 0 0 0 -1 
1 6.2831853071795862 0 0 -1 
1 0 0 0 -1 
1 101.59999999999999 0 0 -1 
1 3.8099999999999739 0 0 -1 
1 0 0 0 -1 
1 0 -0 0 -1 
1 3.8099999999999739 0 0 -1 
1 0 0 0 -1 
1 101.59999999999999 0 0 -1 
1 0 0 0 -1 
1 228.59999999999999 0 0 -1 
1 3.8100000000000307 0 0 -1 
1 0 0 0 -1 
8 0 3.4289999999999998
1 116.20500000000001 0 0 -1 
8 0 3.4289999999999998
1 112.39499999999998 0 0 -1 
8 -3.4289999999999998 0
1 112.39499999999998 0 0 1 
8 -3.4289999999999998 0
1 116.20500000000001 0 -0 1 
1 0 0 0 -1 
1 3.8100000000000307 0 0 -1 
1 228.59999999999999 0 0 -1 
1 0 0 0 -1 
1 228.59999999999999 0 0 -1 
1 0 -0 0 -1 
1 0 0 0 -1 
1 3.8100000000000307 0 0 -1 
8 -3.4289999999999998 0
1 112.39499999999998 0 0 1 
8 -3.4289999999999998 0
1 116.20500000000001 0 -0 1 
8 0 3.4289999999999998
1 116.20500000000001 0 0 -1 
8 0 3.4289999999999998
1 112.39499999999998 0 0 -1 
1 0 -0 0 -1 
1 3.8100000000000307 0 0 -1 
1 0 0 0 -1 
1 228.59999999999999 0 0 -1 
1 0 0 0 -1 
1 101.59999999999999 0 0 -1 
1 3.8099999999999739 0 0 -1 
1 0 0 0 -1 
1 0 -0 0 -1 
1 3.8099999999999739 0 0 -1 
1 0 0 0 -1 
1 101.59999999999999 0 0 -1 
1 0 0 0 -1 
1 6.2831853071795862 0 0 -1 
Curves 116
1 0 0 0 0 0 1 
1 304.79999999999995 0 0 0 0 1 
1 0 0 0 1 0 0 
1 0 0 3.4289999999999998 1 0 0 
1 0 304.79999999999995 0 0 0 1 
1 0 304.79999999999995 0 0 -1 0 
1 0 304.79999999999995 3.4289999999999998 0 -1 0 
1 304.79999999999995 304.79999999999995 0 0 0 1 
1 304.79999999999995 0 0 0 1 0 
1 304.79999999999995 0 3.4289999999999998 0 1 0 
1 304.79999999999995 304.79999999999995 0 -1 0 0 
2 12.699999999999999 12.699999999999999 0 0 0 1 1 0 -0 -0 1 0 3.1749999999999998
1 38.099999999999994 52.704999999999998 0 0 -1 0 
1 114.3 52.704999999999998 0 -1 0 0 
1 38.099999999999994 48.894999999999996 0 1 0 0 
1 114.3 48.894999999999996 0 0 1 0 
2 292.09999999999997 12.699999999999999 0 0 0 1 1 0 -0 -0 1 0 3.1749999999999998
1 190.5 52.704999999999998 0 0 -1 0 
1 266.69999999999999 52.704999999999998 0 -1 0 0 
1 190.5 48.894999999999996 0 1 0 0 
1 252.095 114.3 0 0 -1 0 
1 255.90499999999997 114.3 0 -1 0 0 
1 252.095 38.099999999999994 0 1 0 0 
1 255.90499999999997 38.099999999999994 0 0 1 0 
1 266.69999999999999 48.894999999999996 0 0 1 0 
2 12.699999999999999 292.09999999999997 0 0 0 1 1 0 -0 -0 1 0 3.1749999999999998
1 38.099999999999994 255.90499999999997 0 0 -1 0 
1 139.69999999999999 255.90499999999997 0 -1 0 0 
1 38.099999999999994 252.095 0 1 0 0 
1 139.69999999999999 252.095 0 0 1 0 
1 38.099999999999994 154.30500000000001 0 0 -1 0 
1 266.69999999999999 154.30500000000001 0 -1 0 0 
1 38.099999999999994 150.49499999999998 0 1 0 0 
1 150.49499999999998 266.69999999999999 0 0 -1 0 
1 154.30500000000001 266.69999999999999 0 -1 0 0 
1 150.49499999999998 38.099999999999994 0 1 0 0 
1 154.30500000000001 38.099999999999994 0 0 1 0 
1 266.69999999999999 150.49499999999998 0 0 1 0 
1 165.09999999999999 255.90499999999997 0 0 -1 0 
1 266.69999999999999 255.90499999999997 0 -1 0 0 
1 165.09999999999999 252.095 0 1 0 0 
1 266.69999999999999 252.095 0 0 1 0 
2 292.09999999999997 292.09999999999997 0 0 0 1 1 0 -0 -0 1 0 3.1749999999999998
1 304.79999999999995 304.79999999999995 3.4289999999999998 -1 0 0 
2 12.699999999999999 12.699999999999999 3.4289999999999998 0 0 1 1 0 -0 -0 1 0 3.1749999999999998
1 38.099999999999994 52.704999999999998 3.4289999999999998 0 -1 0 
1 114.3 52.704999999999998 3.4289999999999998 -1 0 0 
1 38.099999999999994 48.894999999999996 3.4289999999999998 1 0 0 
1 114.3 48.894999999999996 3.4289999999999998 0 1 0 
2 292.09999999999997 12.699999999999999 3.4289999999999998 0 0 1 1 0 -0 -0 1 0 3.1749999999999998
1 190.5 52.704999999999998 3.4289999999999998 0 -1 0 
1 266.69999999999999 52.704999999999998 3.4289999999999998 -1 0 0 
1 190.5 48.894999999999996 3.4289999999999998 1 0 0 
1 252.095 114.3 3.4289999999999998 0 -1 0 
1 255.90499999999997 114.3 3.4289999999999998 -1 0 0 
1 252.095 38.099999999999994 3.4289999999999998 1 0 0 
1 255.90499999999997 38.099999999999994 3.4289999999999998 0 1 0 
1 266.69999999999999 48.894999999999996 3.4289999999999998 0 1 0 
2 12.699999999999999 292.09999999999997 3.4289999999999998 0 0 1 1 0 -0 -0 1 0 3.1749999999999998
1 38.099999999999994 255.90499999999997 3.4289999999999998 0 -1 0 
1 139.69999999999999 255.90499999999997 3.4289999999999998 -1 0 0 
1 38.099999999999994 252.095 3.4289999999999998 1 0 0 
1 139.69999999999999 252.095 3.4289999999999998 0 1 0 
1 38.099999999999994 154.30500000000001 3.4289999999999998 0 -1 0 
1 266.69999999999999 154.30500000000001 3.4289999999999998 -1 0 0 
1 38.099999999999994 150.49499999999998 3.4289999999999998 1 0 0 
1 150.49499999999998 266.69999999999999 3.4289999999999998 0 -1 0 
1 154.30500000000001 266.69999999999999 3.4289999999999998 -1 0 0 
1 150.49499999999998 38.099999999999994 3.4289999999999998 1 0 0 
1 154.30500000000001 38.099999999999994 3.4289999999999998 0 1 0 
1 266.69999999999999 150.49499999999998 3.4289999999999998 0 1 0 
1 165.09999999999999 255.90499999999997 3.4289999999999998 0 -1 0 
1 266.69999999999999 255.90499999999997 3.4289999999999998 -1 0 0 
1 165.09999999999999 252.095 3.4289999999999998 1 0 0 
1 266.69999999999999 252.095 3.4289999999999998 0 1 0 
2 292.09999999999997 292.09999999999997 3.4289999999999998 0 0 1 1 0 -0 -0 1 0 3.1749999999999998
1 15.875 12.699999999999999 0 0 0 1 
1 38.099999999999994 52.704999999999998 0 0 0 1 
1 38.099999999999994 48.894999999999996 0 0 0 1 
1 114.3 52.704999999999998 0 0 0 1 
1 114.3 48.894999999999996 0 0 0 1 
1 295.27499999999998 12.699999999999999 0 0 0 1 
1 190.5 52.704999999999998 0 0 0 1 
1 190.5 48.894999999999996 0 0 0 1 
1 252.095 52.704999999999998 0 0 0 1 
1 252.095 48.894999999999996 0 -0 0 -1 
1 252.095 114.3 0 0 0 1 
1 252.095 38.099999999999994 0 0 0 1 
1 255.90499999999997 114.3 0 0 0 1 
1 255.90499999999997 38.099999999999994 0 0 0 1 
1 255.90499999999997 52.704999999999998 0 -0 -0 -1 
1 255.90499999999997 48.894999999999996 0 0 -0 1 
1 266.69999999999999 52.704999999999998 0 0 0 1 
1 266.69999999999999 48.894999999999996 0 0 0 1 
1 15.875 292.09999999999997 0 0 0 1 
1 38.099999999999994 255.90499999999997 0 0 0 1 
1 38.099999999999994 252.095 0 0 0 1 
1 139.69999999999999 255.90499999999997 0 0 0 1 
1 139.69999999999999 252.095 0 0 0 1 
1 38.099999999999994 154.30500000000001 0 0 0 1 
1 38.099999999999994 150.49499999999998 0 0 0 1 
1 150.49499999999998 154.30500000000001 0 0 0 1 
1 150.49499999999998 150.49499999999998 0 -0 0 -1 
1 150.49499999999998 266.69999999999999 0 0 0 1 
1 150.49499999999998 38.099999999999994 0 0 0 1 
1 154.30500000000001 266.69999999999999 0 0 0 1 
1 154.30500000000001 38.099999999999994 0 0 0 1 
1 154.30500000000001 154.30500000000001 0 -0 -0 -1 
1 154.30500000000001 150.49499999999998 0 0 -0 1 
1 266.69999999999999 154.30500000000001 0 0 0 1 
1 266.69999999999999 150.49499999999998 0 0 0 1 
1 165.09999999999999 255.90499999999997 0 0 0 1 
1 165.09999999999999 252.095 0 0 0 1 
1 266.69999999999999 255.90499999999997 0 0 0 1 
1 266.69999999999999 252.095 0 0 0 1 
1 295.27499999999998 292.09999999999997 0 0 0 1 
Polygon3D 0
PolygonOnTriangulations 0
Surfaces 60
1 0 0 0 0 1 0 1 0 0 0 0 -1 
1 152.39999999999998 152.39999999999998 0 0 0 1 1 0 -0 -0 1 0 
1 152.39999999999998 152.39999999999998 3.4289999999999998 0 0 1 1 0 -0 -0 1 0 
1 0 304.79999999999995 0 1 0 -0 0 -1 0 0 -0 -1 
1 304.79999999999995 0 0 -1 0 0 0 1 0 0 0 -1 
2 12.699999999999999 12.699999999999999 0 -0 -0 -1 1 0 -0 -0 1 0 3.1749999999999998
1 12.699999999999999 12.699999999999999 0 -0 -0 -1 -1 0 0 0 1 -0 
1 76.199999999999989 50.799999999999997 0 -0 -0 -1 -1 0 0 0 1 -0 
1 38.099999999999994 52.704999999999998 0 1 0 -0 0 -1 0 0 -0 -1 
1 114.3 52.704999999999998 0 0 -1 0 -1 0 0 -0 -0 -1 
1 38.099999999999994 48.894999999999996 0 0 1 0 1 0 0 0 0 -1 
1 114.3 48.894999999999996 0 -1 0 0 0 1 0 0 0 -1 
2 292.09999999999997 12.699999999999999 0 -0 -0 -1 1 0 -0 -0 1 0 3.1749999999999998
1 292.09999999999997 12.699999999999998 0 -0 -0 -1 -1 0 0 0 1 -0 
1 228.60000000000002 50.799999999999997 0 -0 -0 -1 -1 0 0 0 1 -0 
1 190.5 52.704999999999998 0 1 0 -0 0 -1 0 0 -0 -1 
1 266.69999999999999 52.704999999999998 0 0 -1 0 -1 0 0 -0 -0 -1 
1 190.5 48.894999999999996 0 0 1 0 1 0 0 0 0 -1 
1 253.99999999999994 76.200000000000003 0 -0 -0 -1 -1 0 0 0 1 -0 
1 252.095 114.3 0 1 0 -0 0 -1 0 0 -0 -1 
1 255.90499999999997 114.3 0 0 -1 0 -1 0 0 -0 -0 -1 
1 252.095 38.099999999999994 0 0 1 0 1 0 0 0 0 -1 
1 255.90499999999997 38.099999999999994 0 -1 0 0 0 1 0 0 0 -1 
1 266.69999999999999 48.894999999999996 0 -1 0 0 0 1 0 0 0 -1 
2 12.699999999999999 292.09999999999997 0 -0 -0 -1 1 0 -0 -0 1 0 3.1749999999999998
1 12.699999999999999 292.09999999999991 0 -0 -0 -1 -1 0 0 0 1 -0 
1 88.899999999999991 253.99999999999997 0 -0 -0 -1 -1 0 0 0 1 -0 
1 38.099999999999994 255.90499999999997 0 1 0 -0 0 -1 0 0 -0 -1 
1 139.69999999999999 255.90499999999997 0 0 -1 0 -1 0 0 -0 -0 -1 
1 38.099999999999994 252.095 0 0 1 0 1 0 0 0 0 -1 
1 139.69999999999999 252.095 0 -1 0 0 0 1 0 0 0 -1 
1 152.40000000000001 152.40000000000001 0 -0 -0 -1 -1 0 0 0 1 -0 
1 38.099999999999994 154.30500000000001 0 1 0 -0 0 -1 0 0 -0 -1 
1 266.69999999999999 154.30500000000001 0 0 -1 0 -1 0 0 -0 -0 -1 
1 38.099999999999994 150.49499999999998 0 0 1 0 1 0 0 0 0 -1 
1 152.39999999999998 152.40000000000001 0 -0 -0 -1 -1 0 0 0 1 -0 
1 150.49499999999998 266.69999999999999 0 1 0 -0 0 -1 0 0 -0 -1 
1 154.30500000000001 266.69999999999999 0 0 -1 0 -1 0 0 -0 -0 -1 
1 150.49499999999998 38.099999999999994 0 0 1 0 1 0 0 0 0 -1 
1 154.30500000000001 38.099999999999994 0 -1 0 0 0 1 0 0 0 -1 
1 266.69999999999999 150.49499999999998 0 -1 0 0 0 1 0 0 0 -1 
1 215.90000000000001 253.99999999999997 0 -0 -0 -1 -1 0 0 0 1 -0 
1 165.09999999999999 255.90499999999997 0 1 0 -0 0 -1 0 0 -0 -1 
1 266.69999999999999 255.90499999999997 0 0 -1 0 -1 0 0 -0 -0 -1 
1 165.09999999999999 252.095 0 0 1 0 1 0 0 0 0 -1 
1 266.69999999999999 252.095 0 -1 0 0 0 1 0 0 0 -1 
2 292.09999999999997 292.09999999999997 0 -0 -0 -1 1 0 -0 -0 1 0 3.1749999999999998
1 292.09999999999997 292.09999999999997 0 -0 -0 -1 -1 0 0 0 1 -0 
1 12.699999999999999 12.699999999999999 3.4289999999999998 -0 -0 -1 -1 0 0 0 1 -0 
1 76.199999999999989 50.799999999999997 3.4289999999999998 -0 -0 -1 -1 0 0 0 1 -0 
1 292.09999999999997 12.699999999999998 3.4289999999999998 -0 -0 -1 -1 0 0 0 1 -0 
1 228.60000000000002 50.799999999999997 3.4289999999999998 -0 -0 -1 -1 0 0 0 1 -0 
1 253.99999999999994 76.200000000000003 3.4289999999999998 -0 -0 -1 -1 0 0 0 1 -0 
1 12.699999999999999 292.09999999999991 3.4289999999999998 -0 -0 -1 -1 0 0 0 1 -0 
1 88.899999999999991 253.99999999999997 3.4289999999999998 -0 -0 -1 -1 0 0 0 1 -0 
1 152.40000000000001 152.40000000000001 3.4289999999999998 -0 -0 -1 -1 0 0 0 1 -0 
1 152.39999999999998 152.40000000000001 3.4289999999999998 -0 -0 -1 -1 0 0 0 1 -0 
1 215.90000000000001 253.99999999999997 3.4289999999999998 -0 -0 -1 -1 0 0 0 1 -0 
1 292.09999999999997 292.09999999999997 3.4289999999999998 -0 -0 -1 -1 0 0 0 1 -0 
1 304.79999999999995 304.79999999999995 0 0 -1 0 -1 0 0 -0 -0 -1 
Triangulations 0

TShapes 333
Ve
2.54e-06
0 0 0
0 0

0101101
*
Ve
2.54e-06
0 0 3.429
0 0

0101101
*
Ed
 2.54e-06 1 1 0
1  1 0 0 3.429
0

0101000
+333 0 -332 0 *
Ve
2.54e-06
304.8 0 0
0 0

0101101
*
Ve
2.54e-06
304.8 0 3.429
0 0

0101101
*
Ed
 2.54e-06 1 1 0
1  2 0 0 3.429
0

0101000
+330 0 -329 0 *
Ed
 2.54e-06 1 1 0
1  3 0 0 304.8
2  1 2 0 0 304.8
0

0101000
+333 0 -330 0 *
Ed
 2.54e-06 1 1 0
1  4 0 0 304.8
2  2 3 0 0 304.8
0

0101000
+332 0 -329 0 *
Wi

0101100
+331 0 -328 0 -327 0 +326 0 *
Fa
0  2.54e-06 1 0

0101000
+325 0 *
Ve
2.54e-06
0 304.8 0
0 0

0101101
*
Ve
2.54e-06
0 304.8 3.429
0 0

0101101
*
Ed
 2.54e-06 1 1 0
1  5 0 0 3.429
0

0101000
+323 0 -322 0 *
Ed
 2.54e-06 1 1 0
1  6 0 0 304.8
2  3 2 0 0 304.8
0

0101000
+323 0 -333 0 *
Ed
 2.54e-06 1 1 0
1  7 0 0 304.8
2  4 3 0 0 304.8
0

0101000
+322 0 -332 0 *
Wi

0101100
+321 0 -331 0 -320 0 +319 0 *
Fa
0  2.54e-06 4 0

0101000
+318 0 *
Ve
2.54e-06
304.8 304.8 0
0 0

0101101
*
Ve
2.54e-06
304.8 304.8 3.429
0 0

0101101
*
Ed
 2.54e-06 1 1 0
1  8 0 0 3.429
0

0101000
+316 0 -315 0 *
Ed
 2.54e-06 1 1 0
1  9 0 0 304.8
2  5 2 0 0 304.8
0

0101000
+330 0 -316 0 *
Ed
 2.54e-06 1 1 0
1  10 0 0 304.8
2  6 3 0 0 304.8
0

0101000
+329 0 -315 0 *
Wi

0101100
+328 0 -314 0 -313 0 +312 0 *
Fa
0  2.54e-06 5 0

0101000
+311 0 *
Ed
 2.54e-06 1 1 0
1  11 0 0 304.8
2  7 2 0 0 304.8
0

0101000
+316 0 -323 0 *
Wi

0101100
+327 0 +320 0 +313 0 +309 0 *
Ve
2.54e-06
15.875 12.7 0
0 0

0101101
*
Ed
 2.54e-06 1 1 0
1  12 0 0 6.28318530717959
2  8 6 0 0 6.28318530717959
2  9 7 0 0 6.28318530717959
2  10 2 0 0 6.28318530717959
0

0101000
+307 0 -307 0 *
Wi

0101100
-306 0 *
Ve
2.54e-06
38.1 52.705 0
0 0

0101101
*
Ve
2.54e-06
38.1 48.895 0
0 0

0101101
*
Ed
 2.54e-06 1 1 0
1  13 0 0 3.81
2  11 8 0 0 3.81
2  12 9 0 0 3.81
2  13 2 0 0 3.81
0

0101000
+304 0 -303 0 *
Ve
2.54e-06
114.3 52.705 0
0 0

0101101
*
Ed
 2.54e-06 1 1 0
1  14 0 0 76.2
2  14 8 0 0 76.2
2  15 10 0 0 76.2
2  16 2 0 0 76.2
0

0101000
+301 0 -304 0 *
Ve
2.54e-06
114.3 48.895 0
0 0

0101101
*
Ed
 2.54e-06 1 1 0
1  15 0 0 76.2
2  17 8 0 0 76.2
2  18 11 0 0 76.2
2  19 2 0 0 76.2
0

0101000
+303 0 -299 0 *
Ed
 2.54e-06 1 1 0
1  16 0 0 3.81
2  20 8 0 0 3.81
2  21 12 0 0 3.81
2  22 2 0 0 3.81
0

0101000
+299 0 -301 0 *
Wi

0101100
-302 0 -300 0 -298 0 -297 0 *
Ve
2.54e-06
295.275 12.7 0
0 0

0101101
*
Ed
 2.54e-06 1 1 0
1  17 0 0 6.28318530717959
2  23 13 0 0 6.28318530717959
2  24 14 0 0 6.28318530717959
2  25 2 0 0 6.28318530717959
0

0101000
+295 0 -295 0 *
Wi

0101100
-294 0 *
Ve
2.54e-06
190.5 52.705 0
0 0

0101101
*
Ve
2.54e-06
190.5 48.895 0
0 0

0101101
*
Ed
 2.54e-06 1 1 0
1  18 0 0 3.81
2  26 15 0 0 3.81
2  27 16 0 0 3.81
2  28 2 0 0 3.81
0

0101000
+292 0 -291 0 *
Ve
2.59e-06
252.095 52.705 0
0 0

0101101
*
Ed
 2.54e-06 1 1 0
1  19 0 14.605 76.2
2  29 15 0 14.605 76.2
2  30 17 0 14.605 76.2
2  31 2 0 14.605 76.2
0

0101000
+289 0 -292 0 *
Ve
2.59e-06
252.095 48.895 0
0 0

0101101
*
Ed
 2.54e-06 1 1 0
1  20 0 0 61.595
2  32 15 0 0 61.595
2  33 18 0 0 61.595
2  34 2 0 0 61.595
0

0101000
+291 0 -287 0 *
Ve
2.54e-06
252.095 114.3 0
0 0

0101101
*
Ed
 2.54e-06 1 1 0
1  21 0 0 61.595
2  35 19 0 0 61.595
2  36 20 0 0 61.595
2  37 2 0 0 61.595
0

0101000
+285 0 -289 0 *
Ve
2.54e-06
252.095 38.1 0
0 0

0101101
*
Ed
 2.54e-06 1 1 0
1  21 0 65.405 76.2
2  35 19 0 65.405 76.2
2  36 20 0 65.405 76.2
2  38 2 0 65.405 76.2
0

0101000
+287 0 -283 0 *
Ve
2.54e-06
255.905 114.3 0
0 0

0101101
*
Ed
 2.54e-06 1 1 0
1  22 0 0 3.80999999999996
2  39 19 0 0 3.80999999999996
2  40 21 0 0 3.80999999999996
2  41 2 0 0 3.80999999999996
0

0101000
+281 0 -285 0 *
Ve
2.54e-06
255.905 38.1 0
0 0

0101101
*
Ed
 2.54e-06 1 1 0
1  23 0 0 3.80999999999996
2  42 19 0 0 3.80999999999996
2  43 22 0 0 3.80999999999996
2  44 2 0 0 3.80999999999996
0

0101000
+283 0 -279 0 *
Ve
2.59e-06
255.905 52.705 0
0 0

0101101
*
Ed
 2.54e-06 1 1 0
1  24 0 14.605 76.2
2  45 19 0 14.605 76.2
2  46 23 0 14.605 76.2
2  47 2 0 14.605 76.2
0

0101000
+277 0 -281 0 *
Ve
2.59e-06
255.905 48.895 0
0 0

0101101
*
Ed
 2.54e-06 1 1 0
1  24 0 0 10.795
2  45 19 0 0 10.795
2  46 23 0 0 10.795
2  48 2 0 0 10.795
0

0101000
+279 0 -275 0 *
Ve
2.54e-06
266.7 52.705 0
0 0

0101101
*
Ed
 2.54e-06 1 1 0
1  19 0 0 10.795
2  29 15 0 0 10.795
2  30 17 0 0 10.795
2  31 2 0 0 10.795
0

0101000
+273 0 -277 0 *
Ve
2.54e-06
266.7 48.895 0
0 0

0101101
*
Ed
 2.54e-06 1 1 0
1  20 0 65.405 76.2
2  32 15 0 65.405 76.2
2  33 18 0 65.405 76.2
2  34 2 0 65.405 76.2
0

0101000
+275 0 -271 0 *
Ed
 2.54e-06 1 1 0
1  25 0 0 3.81
2  49 15 0 0 3.81
2  50 24 0 0 3.81
2  51 2 0 0 3.81
0

0101000
+271 0 -273 0 *
Wi

0101100
-290 0 -288 0 -286 0 -284 0 -282 0 -280 0 -278 0 -276 0 -274 0 -272 0 
-270 0 -269 0 *
Ve
2.54e-06
15.875 292.1 0
0 0

0101101
*
Ed
 2.54e-06 1 1 0
1  26 0 0 6.28318530717959
2  52 25 0 0 6.28318530717959
2  53 26 0 0 6.28318530717959
2  54 2 0 0 6.28318530717959
0

0101000
+267 0 -267 0 *
Wi

0101100
-266 0 *
Ve
2.54e-06
38.1 255.905 0
0 0

0101101
*
Ve
2.54e-06
38.1 252.095 0
0 0

0101101
*
Ed
 2.54e-06 1 1 0
1  27 0 0 3.80999999999996
2  55 27 0 0 3.80999999999996
2  56 28 0 0 3.80999999999996
2  57 2 0 0 3.80999999999996
0

0101000
+264 0 -263 0 *
Ve
2.54e-06
139.7 255.905 0
0 0

0101101
*
Ed
 2.54e-06 1 1 0
1  28 0 0 101.6
2  58 27 0 0 101.6
2  59 29 0 0 101.6
2  60 2 0 0 101.6
0

0101000
+261 0 -264 0 *
Ve
2.54e-06
139.7 252.095 0
0 0

0101101
*
Ed
 2.54e-06 1 1 0
1  29 0 0 101.6
2  61 27 0 0 101.6
2  62 30 0 0 101.6
2  63 2 0 0 101.6
0

0101000
+263 0 -259 0 *
Ed
 2.54e-06 1 1 0
1  30 0 0 3.80999999999996
2  64 27 0 0 3.80999999999996
2  65 31 0 0 3.80999999999996
2  66 2 0 0 3.80999999999996
0

0101000
+259 0 -261 0 *
Wi

0101100
-262 0 -260 0 -258 0 -257 0 *
Ve
2.54e-06
38.1 154.305 0
0 0

0101101
*
Ve
2.54e-06
38.1 150.495 0
0 0

0101101
*
Ed
 2.54e-06 1 1 0
1  31 0 0 3.81000000000001
2  67 32 0 0 3.81000000000001
2  68 33 0 0 3.81000000000001
2  69 2 0 0 3.81000000000001
0

0101000
+255 0 -254 0 *
Ve
2.59e-06
150.495 154.305 0
0 0

0101101
*
Ed
 2.54e-06 1 1 0
1  32 0 116.205 228.6
2  70 32 0 116.205 228.6
2  71 34 0 116.205 228.6
2  72 2 0 116.205 228.6
0

0101000
+252 0 -255 0 *
Ve
2.59e-06
150.495 150.495 0
0 0

0101101
*
Ed
 2.54e-06 1 1 0
1  33 0 0 112.395
2  73 32 0 0 112.395
2  74 35 0 0 112.395
2  75 2 0 0 112.395
0

0101000
+254 0 -250 0 *
Ve
2.54e-06
150.495 266.7 0
0 0

0101101
*
Ed
 2.54e-06 1 1 0
1  34 0 0 112.395
2  76 36 0 0 112.395
2  77 37 0 0 112.395
2  78 2 0 0 112.395
0

0101000
+248 0 -252 0 *
Ve
2.54e-06
150.495 38.1 0
0 0

0101101
*
Ed
 2.54e-06 1 1 0
1  34 0 116.205 228.6
2  76 36 0 116.205 228.6
2  77 37 0 116.205 228.6
2  79 2 0 116.205 228.6
0

0101000
+250 0 -246 0 *
Ve
2.54e-06
154.305 266.7 0
0 0

0101101
*
Ed
 2.54e-06 1 1 0
1  35 0 0 3.81000000000001
2  80 36 0 0 3.81000000000001
2  81 38 0 0 3.81000000000001
2  82 2 0 0 3.81000000000001
0

0101000
+244 0 -248 0 *
Ve
2.54e-06
154.305 38.1 0
0 0

0101101
*
Ed
 2.54e-06 1 1 0
1  36 0 0 3.81000000000001
2  83 36 0 0 3.81000000000001
2  84 39 0 0 3.81000000000001
2  85 2 0 0 3.81000000000001
0

0101000
+246 0 -242 0 *
Ve
2.59e-06
154.305 154.305 0
0 0

0101101
*
Ed
 2.54e-06 1 1 0
1  37 0 116.205 228.6
2  86 36 0 116.205 228.6
2  87 40 0 116.205 228.6
2  88 2 0 116.205 228.6
0

0101000
+240 0 -244 0 *
Ve
2.59e-06
154.305 150.495 0
0 0

0101101
*
Ed
 2.54e-06 1 1 0
1  37 0 0 112.395
2  86 36 0 0 112.395
2  87 40 0 0 112.395
2  89 2 0 0 112.395
0

0101000
+242 0 -238 0 *
Ve
2.54e-06
266.7 154.305 0
0 0

0101101
*
Ed
 2.54e-06 1 1 0
1  32 0 0 112.395
2  70 32 0 0 112.395
2  71 34 0 0 112.395
2  72 2 0 0 112.395
0

0101000
+236 0 -240 0 *
Ve
2.54e-06
266.7 150.495 0
0 0

0101101
*
Ed
 2.54e-06 1 1 0
1  33 0 116.205 228.6
2  73 32 0 116.205 228.6
2  74 35 0 116.205 228.6
2  75 2 0 116.205 228.6
0

0101000
+238 0 -234 0 *
Ed
 2.54e-06 1 1 0
1  38 0 0 3.81000000000001
2  90 32 0 0 3.81000000000001
2  91 41 0 0 3.81000000000001
2  92 2 0 0 3.81000000000001
0

0101000
+234 0 -236 0 *
Wi

0101100
-253 0 -251 0 -249 0 -247 0 -245 0 -243 0 -241 0 -239 0 -237 0 -235 0 
-233 0 -232 0 *
Ve
2.54e-06
165.1 255.905 0
0 0

0101101
*
Ve
2.54e-06
165.1 252.095 0
0 0

0101101
*
Ed
 2.54e-06 1 1 0
1  39 0 0 3.80999999999996
2  93 42 0 0 3.80999999999996
2  94 43 0 0 3.80999999999996
2  95 2 0 0 3.80999999999996
0

0101000
+230 0 -229 0 *
Ve
2.54e-06
266.7 255.905 0
0 0

0101101
*
Ed
 2.54e-06 1 1 0
1  40 0 0 101.6
2  96 42 0 0 101.6
2  97 44 0 0 101.6
2  98 2 0 0 101.6
0

0101000
+227 0 -230 0 *
Ve
2.54e-06
266.7 252.095 0
0 0

0101101
*
Ed
 2.54e-06 1 1 0
1  41 0 0 101.6
2  99 42 0 0 101.6
2  100 45 0 0 101.6
2  101 2 0 0 101.6
0

0101000
+229 0 -225 0 *
Ed
 2.54e-06 1 1 0
1  42 0 0 3.80999999999996
2  102 42 0 0 3.80999999999996
2  103 46 0 0 3.80999999999996
2  104 2 0 0 3.80999999999996
0

0101000
+225 0 -227 0 *
Wi

0101100
-228 0 -226 0 -224 0 -223 0 *
Ve
2.54e-06
295.275 292.1 0
0 0

0101101
*
Ed
 2.54e-06 1 1 0
1  43 0 0 6.28318530717959
2  105 47 0 0 6.28318530717959
2  106 48 0 0 6.28318530717959
2  107 2 0 0 6.28318530717959
0

0101000
+221 0 -221 0 *
Wi

0101100
-220 0 *
Fa
0  2.54e-06 2 0

0101000
+308 0 +305 0 +296 0 +293 0 +268 0 +265 0 +256 0 +231 0 +222 0 +219 0 
*
Ed
 2.54e-06 1 1 0
1  44 0 0 304.8
2  108 3 0 0 304.8
0

0101000
+315 0 -322 0 *
Wi

0101100
+326 0 +319 0 +312 0 +217 0 *
Ve
2.54e-06
15.875 12.7 3.429
0 0

0101101
*
Ed
 2.54e-06 1 1 0
1  45 0 0 6.28318530717959
2  109 6 0 0 6.28318530717959
2  110 49 0 0 6.28318530717959
2  111 3 0 0 6.28318530717959
0

0101000
+215 0 -215 0 *
Wi

0101100
-214 0 *
Ve
2.54e-06
38.1 52.705 3.429
0 0

0101101
*
Ve
2.54e-06
38.1 48.895 3.429
0 0

0101101
*
Ed
 2.54e-06 1 1 0
1  46 0 0 3.81
2  112 50 0 0 3.81
2  113 9 0 0 3.81
2  114 3 0 0 3.81
0

0101000
+212 0 -211 0 *
Ve
2.54e-06
114.3 52.705 3.429
0 0

0101101
*
Ed
 2.54e-06 1 1 0
1  47 0 0 76.2
2  115 50 0 0 76.2
2  116 10 0 0 76.2
2  117 3 0 0 76.2
0

0101000
+209 0 -212 0 *
Ve
2.54e-06
114.3 48.895 3.429
0 0

0101101
*
Ed
 2.54e-06 1 1 0
1  48 0 0 76.2
2  118 50 0 0 76.2
2  119 11 0 0 76.2
2  120 3 0 0 76.2
0

0101000
+211 0 -207 0 *
Ed
 2.54e-06 1 1 0
1  49 0 0 3.81
2  121 50 0 0 3.81
2  122 12 0 0 3.81
2  123 3 0 0 3.81
0

0101000
+207 0 -209 0 *
Wi

0101100
-210 0 -208 0 -206 0 -205 0 *
Ve
2.54e-06
295.275 12.7 3.429
0 0

0101101
*
Ed
 2.54e-06 1 1 0
1  50 0 0 6.28318530717959
2  124 13 0 0 6.28318530717959
2  125 51 0 0 6.28318530717959
2  126 3 0 0 6.28318530717959
0

0101000
+203 0 -203 0 *
Wi

0101100
-202 0 *
Ve
2.54e-06
190.5 52.705 3.429
0 0

0101101
*
Ve
2.54e-06
190.5 48.895 3.429
0 0

0101101
*
Ed
 2.54e-06 1 1 0
1  51 0 0 3.81
2  127 52 0 0 3.81
2  128 16 0 0 3.81
2  129 3 0 0 3.81
0

0101000
+200 0 -199 0 *
Ve
2.59e-06
252.095 52.705 3.429
0 0

0101101
*
Ed
 2.54e-06 1 1 0
1  52 0 14.605 76.2
2  130 52 0 14.605 76.2
2  131 17 0 14.605 76.2
2  132 3 0 14.605 76.2
0

0101000
+197 0 -200 0 *
Ve
2.59e-06
252.095 48.895 3.429
0 0

0101101
*
Ed
 2.54e-06 1 1 0
1  53 0 0 61.595
2  133 52 0 0 61.595
2  134 18 0 0 61.595
2  135 3 0 0 61.595
0

0101000
+199 0 -195 0 *
Ve
2.54e-06
252.095 114.3 3.429
0 0

0101101
*
Ed
 2.54e-06 1 1 0
1  54 0 0 61.595
2  136 53 0 0 61.595
2  137 20 0 0 61.595
2  138 3 0 0 61.595
0

0101000
+193 0 -197 0 *
Ve
2.54e-06
252.095 38.1 3.429
0 0

0101101
*
Ed
 2.54e-06 1 1 0
1  54 0 65.405 76.2
2  136 53 0 65.405 76.2
2  137 20 0 65.405 76.2
2  139 3 0 65.405 76.2
0

0101000
+195 0 -191 0 *
Ve
2.54e-06
255.905 114.3 3.429
0 0

0101101
*
Ed
 2.54e-06 1 1 0
1  55 0 0 3.80999999999996
2  140 53 0 0 3.80999999999996
2  141 21 0 0 3.80999999999996
2  142 3 0 0 3.80999999999996
0

0101000
+189 0 -193 0 *
Ve
2.54e-06
255.905 38.1 3.429
0 0

0101101
*
Ed
 2.54e-06 1 1 0
1  56 0 0 3.80999999999996
2  143 53 0 0 3.80999999999996
2  144 22 0 0 3.80999999999996
2  145 3 0 0 3.80999999999996
0

0101000
+191 0 -187 0 *
Ve
2.59e-06
255.905 52.705 3.429
0 0

0101101
*
Ed
 2.54e-06 1 1 0
1  57 0 14.605 76.2
2  146 53 0 14.605 76.2
2  147 23 0 14.605 76.2
2  148 3 0 14.605 76.2
0

0101000
+185 0 -189 0 *
Ve
2.59e-06
255.905 48.895 3.429
0 0

0101101
*
Ed
 2.54e-06 1 1 0
1  57 0 0 10.795
2  146 53 0 0 10.795
2  147 23 0 0 10.795
2  149 3 0 0 10.795
0

0101000
+187 0 -183 0 *
Ve
2.54e-06
266.7 52.705 3.429
0 0

0101101
*
Ed
 2.54e-06 1 1 0
1  52 0 0 10.795
2  130 52 0 0 10.795
2  131 17 0 0 10.795
2  132 3 0 0 10.795
0

0101000
+181 0 -185 0 *
Ve
2.54e-06
266.7 48.895 3.429
0 0

0101101
*
Ed
 2.54e-06 1 1 0
1  53 0 65.405 76.2
2  133 52 0 65.405 76.2
2  134 18 0 65.405 76.2
2  135 3 0 65.405 76.2
0

0101000
+183 0 -179 0 *
Ed
 2.54e-06 1 1 0
1  58 0 0 3.81
2  150 52 0 0 3.81
2  151 24 0 0 3.81
2  152 3 0 0 3.81
0

0101000
+179 0 -181 0 *
Wi

0101100
-198 0 -196 0 -194 0 -192 0 -190 0 -188 0 -186 0 -184 0 -182 0 -180 0 
-178 0 -177 0 *
Ve
2.54e-06
15.875 292.1 3.429
0 0

0101101
*
Ed
 2.54e-06 1 1 0
1  59 0 0 6.28318530717959
2  153 25 0 0 6.28318530717959
2  154 54 0 0 6.28318530717959
2  155 3 0 0 6.28318530717959
0

0101000
+175 0 -175 0 *
Wi

0101100
-174 0 *
Ve
2.54e-06
38.1 255.905 3.429
0 0

0101101
*
Ve
2.54e-06
38.1 252.095 3.429
0 0

0101101
*
Ed
 2.54e-06 1 1 0
1  60 0 0 3.80999999999996
2  156 55 0 0 3.80999999999996
2  157 28 0 0 3.80999999999996
2  158 3 0 0 3.80999999999996
0

0101000
+172 0 -171 0 *
Ve
2.54e-06
139.7 255.905 3.429
0 0

0101101
*
Ed
 2.54e-06 1 1 0
1  61 0 0 101.6
2  159 55 0 0 101.6
2  160 29 0 0 101.6
2  161 3 0 0 101.6
0

0101000
+169 0 -172 0 *
Ve
2.54e-06
139.7 252.095 3.429
0 0

0101101
*
Ed
 2.54e-06 1 1 0
1  62 0 0 101.6
2  162 55 0 0 101.6
2  163 30 0 0 101.6
2  164 3 0 0 101.6
0

0101000
+171 0 -167 0 *
Ed
 2.54e-06 1 1 0
1  63 0 0 3.80999999999996
2  165 55 0 0 3.80999999999996
2  166 31 0 0 3.80999999999996
2  167 3 0 0 3.80999999999996
0

0101000
+167 0 -169 0 *
Wi

0101100
-170 0 -168 0 -166 0 -165 0 *
Ve
2.54e-06
38.1 154.305 3.429
0 0

0101101
*
Ve
2.54e-06
38.1 150.495 3.429
0 0

0101101
*
Ed
 2.54e-06 1 1 0
1  64 0 0 3.81000000000001
2  168 56 0 0 3.81000000000001
2  169 33 0 0 3.81000000000001
2  170 3 0 0 3.81000000000001
0

0101000
+163 0 -162 0 *
Ve
2.59e-06
150.495 154.305 3.429
0 0

0101101
*
Ed
 2.54e-06 1 1 0
1  65 0 116.205 228.6
2  171 56 0 116.205 228.6
2  172 34 0 116.205 228.6
2  173 3 0 116.205 228.6
0

0101000
+160 0 -163 0 *
Ve
2.59e-06
150.495 150.495 3.429
0 0

0101101
*
Ed
 2.54e-06 1 1 0
1  66 0 0 112.395
2  174 56 0 0 112.395
2  175 35 0 0 112.395
2  176 3 0 0 112.395
0

0101000
+162 0 -158 0 *
Ve
2.54e-06
150.495 266.7 3.429
0 0

0101101
*
Ed
 2.54e-06 1 1 0
1  67 0 0 112.395
2  177 57 0 0 112.395
2  178 37 0 0 112.395
2  179 3 0 0 112.395
0

0101000
+156 0 -160 0 *
Ve
2.54e-06
150.495 38.1 3.429
0 0

0101101
*
Ed
 2.54e-06 1 1 0
1  67 0 116.205 228.6
2  177 57 0 116.205 228.6
2  178 37 0 116.205 228.6
2  180 3 0 116.205 228.6
0

0101000
+158 0 -154 0 *
Ve
2.54e-06
154.305 266.7 3.429
0 0

0101101
*
Ed
 2.54e-06 1 1 0
1  68 0 0 3.81000000000001
2  181 57 0 0 3.81000000000001
2  182 38 0 0 3.81000000000001
2  183 3 0 0 3.81000000000001
0

0101000
+152 0 -156 0 *
Ve
2.54e-06
154.305 38.1 3.429
0 0

0101101
*
Ed
 2.54e-06 1 1 0
1  69 0 0 3.81000000000001
2  184 57 0 0 3.81000000000001
2  185 39 0 0 3.81000000000001
2  186 3 0 0 3.81000000000001
0

0101000
+154 0 -150 0 *
Ve
2.59e-06
154.305 154.305 3.429
0 0

0101101
*
Ed
 2.54e-06 1 1 0
1  70 0 116.205 228.6
2  187 57 0 116.205 228.6
2  188 40 0 116.205 228.6
2  189 3 0 116.205 228.6
0

0101000
+148 0 -152 0 *
Ve
2.59e-06
154.305 150.495 3.429
0 0

0101101
*
Ed
 2.54e-06 1 1 0
1  70 0 0 112.395
2  187 57 0 0 112.395
2  188 40 0 0 112.395
2  190 3 0 0 112.395
0

0101000
+150 0 -146 0 *
Ve
2.54e-06
266.7 154.305 3.429
0 0

0101101
*
Ed
 2.54e-06 1 1 0
1  65 0 0 112.395
2  171 56 0 0 112.395
2  172 34 0 0 112.395
2  173 3 0 0 112.395
0

0101000
+144 0 -148 0 *
Ve
2.54e-06
266.7 150.495 3.429
0 0

0101101
*
Ed
 2.54e-06 1 1 0
1  66 0 116.205 228.6
2  174 56 0 116.205 228.6
2  175 35 0 116.205 228.6
2  176 3 0 116.205 228.6
0

0101000
+146 0 -142 0 *
Ed
 2.54e-06 1 1 0
1  71 0 0 3.81000000000001
2  191 56 0 0 3.81000000000001
2  192 41 0 0 3.81000000000001
2  193 3 0 0 3.81000000000001
0

0101000
+142 0 -144 0 *
Wi

0101100
-161 0 -159 0 -157 0 -155 0 -153 0 -151 0 -149 0 -147 0 -145 0 -143 0 
-141 0 -140 0 *
Ve
2.54e-06
165.1 255.905 3.429
0 0

0101101
*
Ve
2.54e-06
165.1 252.095 3.429
0 0

0101101
*
Ed
 2.54e-06 1 1 0
1  72 0 0 3.80999999999996
2  194 58 0 0 3.80999999999996
2  195 43 0 0 3.80999999999996
2  196 3 0 0 3.80999999999996
0

0101000
+138 0 -137 0 *
Ve
2.54e-06
266.7 255.905 3.429
0 0

0101101
*
Ed
 2.54e-06 1 1 0
1  73 0 0 101.6
2  197 58 0 0 101.6
2  198 44 0 0 101.6
2  199 3 0 0 101.6
0

0101000
+135 0 -138 0 *
Ve
2.54e-06
266.7 252.095 3.429
0 0

0101101
*
Ed
 2.54e-06 1 1 0
1  74 0 0 101.6
2  200 58 0 0 101.6
2  201 45 0 0 101.6
2  202 3 0 0 101.6
0

0101000
+137 0 -133 0 *
Ed
 2.54e-06 1 1 0
1  75 0 0 3.80999999999996
2  203 58 0 0 3.80999999999996
2  204 46 0 0 3.80999999999996
2  205 3 0 0 3.80999999999996
0

0101000
+133 0 -135 0 *
Wi

0101100
-136 0 -134 0 -132 0 -131 0 *
Ve
2.54e-06
295.275 292.1 3.429
0 0

0101101
*
Ed
 2.54e-06 1 1 0
1  76 0 0 6.28318530717959
2  206 47 0 0 6.28318530717959
2  207 59 0 0 6.28318530717959
2  208 3 0 0 6.28318530717959
0

0101000
+129 0 -129 0 *
Wi

0101100
-128 0 *
Fa
0  2.54e-06 3 0

0101000
+216 0 +213 0 +204 0 +201 0 +176 0 +173 0 +164 0 +139 0 +130 0 +127 0 
*
Wi

0101100
+314 0 -321 0 -309 0 +217 0 *
Fa
0  2.54e-06 60 0

0101000
+125 0 *
Ed
 2.54e-06 1 1 0
1  77 0 0 3.429
3  209 210CN 6 0 0 3.429
0

0101000
+307 0 -215 0 *
Wi

0101100
+123 0 -123 0 -306 0 +214 0 *
Fa
0  2.54e-06 6 0

0101000
+122 0 *
Ed
 2.54e-06 1 1 0
1  78 0 0 3.429
2  211 9 0 0 3.429
2  212 10 0 0 3.429
0

0101000
+304 0 -212 0 *
Ed
 2.54e-06 1 1 0
1  79 0 0 3.429
2  213 9 0 0 3.429
2  214 11 0 0 3.429
0

0101000
+303 0 -211 0 *
Wi

0101100
+120 0 -119 0 -302 0 +210 0 *
Fa
0  2.54e-06 9 0

0101000
+118 0 *
Ed
 2.54e-06 1 1 0
1  80 0 0 3.429
2  215 10 0 0 3.429
2  216 12 0 0 3.429
0

0101000
+301 0 -209 0 *
Wi

0101100
+116 0 -120 0 -300 0 +208 0 *
Fa
0  2.54e-06 10 0

0101000
+115 0 *
Ed
 2.54e-06 1 1 0
1  81 0 0 3.429
2  217 12 0 0 3.429
2  218 11 0 0 3.429
0

0101000
+299 0 -207 0 *
Wi

0101100
+119 0 -113 0 -298 0 +206 0 *
Fa
0  2.54e-06 11 0

0101000
+112 0 *
Wi

0101100
+113 0 -116 0 -297 0 +205 0 *
Fa
0  2.54e-06 12 0

0101000
+110 0 *
Ed
 2.54e-06 1 1 0
1  82 0 0 3.429
3  219 220CN 13 0 0 3.429
0

0101000
+295 0 -203 0 *
Wi

0101100
+108 0 -108 0 -294 0 +202 0 *
Fa
0  2.54e-06 13 0

0101000
+107 0 *
Ed
 2.54e-06 1 1 0
1  83 0 0 3.429
2  221 16 0 0 3.429
2  222 17 0 0 3.429
0

0101000
+292 0 -200 0 *
Ed
 2.54e-06 1 1 0
1  84 0 0 3.429
2  223 16 0 0 3.429
2  224 18 0 0 3.429
0

0101000
+291 0 -199 0 *
Wi

0101100
+105 0 -104 0 -290 0 +198 0 *
Fa
0  2.54e-06 16 0

0101000
+103 0 *
Ed
 2.59e-06 1 1 0
1  85 0 0 3.429
2  225 17 0 0 3.429
2  226 20 0 0 3.429
0

0101000
+289 0 -197 0 *
Wi

0101100
-288 0 -105 0 +196 0 +101 0 *
Fa
0  2.54e-06 17 0

0101000
+100 0 *
Ed
 2.59e-06 1 1 0
1  86 0 -3.429 0
2  227 18 0 -3.429 0
2  228 20 0 -3.429 0
0

0101000
+195 0 -287 0 *
Wi

0101100
-286 0 +98 0 +194 0 +104 0 *
Fa
0  2.54e-06 18 0

0101000
+97 0 *
Ed
 2.54e-06 1 1 0
1  87 0 0 3.429
2  229 20 0 0 3.429
2  230 21 0 0 3.429
0

0101000
+285 0 -193 0 *
Wi

0101100
-284 0 -101 0 +192 0 +95 0 *
Fa
0  2.54e-06 20 0

0101000
+94 0 *
Ed
 2.54e-06 1 1 0
1  88 0 0 3.429
2  231 20 0 0 3.429
2  232 22 0 0 3.429
0

0101000
+283 0 -191 0 *
Wi

0101100
-282 0 -92 0 +190 0 -98 0 *
Fa
0  2.54e-06 20 0

0101000
+91 0 *
Ed
 2.54e-06 1 1 0
1  89 0 0 3.429
2  233 23 0 0 3.429
2  234 21 0 0 3.429
0

0101000
+281 0 -189 0 *
Wi

0101100
+89 0 -95 0 -280 0 +188 0 *
Fa
0  2.54e-06 21 0

0101000
+88 0 *
Ed
 2.54e-06 1 1 0
1  90 0 0 3.429
2  235 23 0 0 3.429
2  236 22 0 0 3.429
0

0101000
+279 0 -187 0 *
Wi

0101100
+92 0 -86 0 -278 0 +186 0 *
Fa
0  2.54e-06 22 0

0101000
+85 0 *
Ed
 2.59e-06 1 1 0
1  91 0 -3.429 0
2  237 17 0 -3.429 0
2  238 23 0 -3.429 0
0

0101000
+185 0 -277 0 *
Wi

0101100
-276 0 -89 0 +184 0 -83 0 *
Fa
0  2.54e-06 23 0

0101000
+82 0 *
Ed
 2.59e-06 1 1 0
1  92 0 0 3.429
2  239 18 0 0 3.429
2  240 23 0 0 3.429
0

0101000
+275 0 -183 0 *
Wi

0101100
-274 0 -80 0 +182 0 +86 0 *
Fa
0  2.54e-06 23 0

0101000
+79 0 *
Ed
 2.54e-06 1 1 0
1  93 0 0 3.429
2  241 17 0 0 3.429
2  242 24 0 0 3.429
0

0101000
+273 0 -181 0 *
Wi

0101100
-272 0 +83 0 +180 0 +77 0 *
Fa
0  2.54e-06 17 0

0101000
+76 0 *
Ed
 2.54e-06 1 1 0
1  94 0 0 3.429
2  243 24 0 0 3.429
2  244 18 0 0 3.429
0

0101000
+271 0 -179 0 *
Wi

0101100
-270 0 -74 0 +178 0 +80 0 *
Fa
0  2.54e-06 18 0

0101000
+73 0 *
Wi

0101100
+74 0 -77 0 -269 0 +177 0 *
Fa
0  2.54e-06 24 0

0101000
+71 0 *
Ed
 2.54e-06 1 1 0
1  95 0 0 3.429
3  245 246CN 25 0 0 3.429
0

0101000
+267 0 -175 0 *
Wi

0101100
+69 0 -69 0 -266 0 +174 0 *
Fa
0  2.54e-06 25 0

0101000
+68 0 *
Ed
 2.54e-06 1 1 0
1  96 0 0 3.429
2  247 28 0 0 3.429
2  248 29 0 0 3.429
0

0101000
+264 0 -172 0 *
Ed
 2.54e-06 1 1 0
1  97 0 0 3.429
2  249 28 0 0 3.429
2  250 30 0 0 3.429
0

0101000
+263 0 -171 0 *
Wi

0101100
+66 0 -65 0 -262 0 +170 0 *
Fa
0  2.54e-06 28 0

0101000
+64 0 *
Ed
 2.54e-06 1 1 0
1  98 0 0 3.429
2  251 29 0 0 3.429
2  252 31 0 0 3.429
0

0101000
+261 0 -169 0 *
Wi

0101100
+62 0 -66 0 -260 0 +168 0 *
Fa
0  2.54e-06 29 0

0101000
+61 0 *
Ed
 2.54e-06 1 1 0
1  99 0 0 3.429
2  253 31 0 0 3.429
2  254 30 0 0 3.429
0

0101000
+259 0 -167 0 *
Wi

0101100
+65 0 -59 0 -258 0 +166 0 *
Fa
0  2.54e-06 30 0

0101000
+58 0 *
Wi

0101100
+59 0 -62 0 -257 0 +165 0 *
Fa
0  2.54e-06 31 0

0101000
+56 0 *
Ed
 2.54e-06 1 1 0
1  100 0 0 3.429
2  255 33 0 0 3.429
2  256 34 0 0 3.429
0

0101000
+255 0 -163 0 *
Ed
 2.54e-06 1 1 0
1  101 0 0 3.429
2  257 33 0 0 3.429
2  258 35 0 0 3.429
0

0101000
+254 0 -162 0 *
Wi

0101100
+54 0 -53 0 -253 0 +161 0 *
Fa
0  2.54e-06 33 0

0101000
+52 0 *
Ed
 2.59e-06 1 1 0
1  102 0 0 3.429
2  259 34 0 0 3.429
2  260 37 0 0 3.429
0

0101000
+252 0 -160 0 *
Wi

0101100
-251 0 -54 0 +159 0 +50 0 *
Fa
0  2.54e-06 34 0

0101000
+49 0 *
Ed
 2.59e-06 1 1 0
1  103 0 -3.429 0
2  261 35 0 -3.429 0
2  262 37 0 -3.429 0
0

0101000
+158 0 -250 0 *
Wi

0101100
-249 0 +47 0 +157 0 +53 0 *
Fa
0  2.54e-06 35 0

0101000
+46 0 *
Ed
 2.54e-06 1 1 0
1  104 0 0 3.429
2  263 37 0 0 3.429
2  264 38 0 0 3.429
0

0101000
+248 0 -156 0 *
Wi

0101100
-247 0 -50 0 +155 0 +44 0 *
Fa
0  2.54e-06 37 0

0101000
+43 0 *
Ed
 2.54e-06 1 1 0
1  105 0 0 3.429
2  265 37 0 0 3.429
2  266 39 0 0 3.429
0

0101000
+246 0 -154 0 *
Wi

0101100
-245 0 -41 0 +153 0 -47 0 *
Fa
0  2.54e-06 37 0

0101000
+40 0 *
Ed
 2.54e-06 1 1 0
1  106 0 0 3.429
2  267 40 0 0 3.429
2  268 38 0 0 3.429
0

0101000
+244 0 -152 0 *
Wi

0101100
+38 0 -44 0 -243 0 +151 0 *
Fa
0  2.54e-06 38 0

0101000
+37 0 *
Ed
 2.54e-06 1 1 0
1  107 0 0 3.429
2  269 40 0 0 3.429
2  270 39 0 0 3.429
0

0101000
+242 0 -150 0 *
Wi

0101100
+41 0 -35 0 -241 0 +149 0 *
Fa
0  2.54e-06 39 0

0101000
+34 0 *
Ed
 2.59e-06 1 1 0
1  108 0 -3.429 0
2  271 34 0 -3.429 0
2  272 40 0 -3.429 0
0

0101000
+148 0 -240 0 *
Wi

0101100
-239 0 -38 0 +147 0 -32 0 *
Fa
0  2.54e-06 40 0

0101000
+31 0 *
Ed
 2.59e-06 1 1 0
1  109 0 0 3.429
2  273 35 0 0 3.429
2  274 40 0 0 3.429
0

0101000
+238 0 -146 0 *
Wi

0101100
-237 0 -29 0 +145 0 +35 0 *
Fa
0  2.54e-06 40 0

0101000
+28 0 *
Ed
 2.54e-06 1 1 0
1  110 0 0 3.429
2  275 34 0 0 3.429
2  276 41 0 0 3.429
0

0101000
+236 0 -144 0 *
Wi

0101100
-235 0 +32 0 +143 0 +26 0 *
Fa
0  2.54e-06 34 0

0101000
+25 0 *
Ed
 2.54e-06 1 1 0
1  111 0 0 3.429
2  277 41 0 0 3.429
2  278 35 0 0 3.429
0

0101000
+234 0 -142 0 *
Wi

0101100
-233 0 -23 0 +141 0 +29 0 *
Fa
0  2.54e-06 35 0

0101000
+22 0 *
Wi

0101100
+23 0 -26 0 -232 0 +140 0 *
Fa
0  2.54e-06 41 0

0101000
+20 0 *
Ed
 2.54e-06 1 1 0
1  112 0 0 3.429
2  279 43 0 0 3.429
2  280 44 0 0 3.429
0

0101000
+230 0 -138 0 *
Ed
 2.54e-06 1 1 0
1  113 0 0 3.429
2  281 43 0 0 3.429
2  282 45 0 0 3.429
0

0101000
+229 0 -137 0 *
Wi

0101100
+18 0 -17 0 -228 0 +136 0 *
Fa
0  2.54e-06 43 0

0101000
+16 0 *
Ed
 2.54e-06 1 1 0
1  114 0 0 3.429
2  283 44 0 0 3.429
2  284 46 0 0 3.429
0

0101000
+227 0 -135 0 *
Wi

0101100
+14 0 -18 0 -226 0 +134 0 *
Fa
0  2.54e-06 44 0

0101000
+13 0 *
Ed
 2.54e-06 1 1 0
1  115 0 0 3.429
2  285 46 0 0 3.429
2  286 45 0 0 3.429
0

0101000
+225 0 -133 0 *
Wi

0101100
+17 0 -11 0 -224 0 +132 0 *
Fa
0  2.54e-06 45 0

0101000
+10 0 *
Wi

0101100
+11 0 -14 0 -223 0 +131 0 *
Fa
0  2.54e-06 46 0

0101000
+8 0 *
Ed
 2.54e-06 1 1 0
1  116 0 0 3.429
3  287 288CN 47 0 0 3.429
0

0101000
+221 0 -129 0 *
Wi

0101100
+6 0 -6 0 -220 0 +128 0 *
Fa
0  2.54e-06 47 0

0101000
+5 0 *
Sh

0101100
-324 0 -317 0 -310 0 -218 0 +126 0 -124 0 +121 0 +117 0 +114 0 +111 0 
+109 0 +106 0 +102 0 +99 0 +96 0 +93 0 +90 0 +87 0 +84 0 +81 0 
+78 0 +75 0 +72 0 +70 0 +67 0 +63 0 +60 0 +57 0 +55 0 +51 0 
+48 0 +45 0 +42 0 +39 0 +36 0 +33 0 +30 0 +27 0 +24 0 +21 0 
+19 0 +15 0 +12 0 +9 0 +7 0 +4 0 *
So

0100000
+3 0 *
Co

1100000
+2 0 *

+1 0 