DBRep_DrawableShape

CASCADE Topology V3, (c) Open Cascade
Locations 0
Curve2ds 8
1 -38.100000000000001 -12.699999999999999 1 0 
1 -38.100000000000001 -12.699999999999999 1 0 
1 38.099999999999987 -12.699999999999999 0 1 
1 38.099999999999987 -12.699999999999999 0 1 
1 38.099999999999987 12.699999999999999 -1 0 
1 38.099999999999987 12.699999999999999 -1 0 
1 -38.100000000000001 12.699999999999999 0 -1 
1 -38.100000000000001 12.699999999999999 0 -1 
Curves 12
1 0 0 0 0 0 1 
1 76.199999999999989 0 0 0 0 1 
1 0 0 0 1 0 0 
1 0 0 3.4289999999999998 1 0 0 
1 76.199999999999989 25.399999999999999 0 0 0 1 
1 76.199999999999989 0 0 0 1 0 
1 76.199999999999989 0 3.4289999999999998 0 1 0 
1 0 25.399999999999999 0 0 0 1 
1 76.199999999999989 25.399999999999999 0 -1 0 0 
1 76.199999999999989 25.399999999999999 3.4289999999999998 -1 0 0 
1 0 25.399999999999999 0 0 -1 0 
1 0 25.399999999999999 3.4289999999999998 0 -1 0 
Polygon3D 0
PolygonOnTriangulations 0
Surfaces 6
1 0 0 0 0 1 0 1 0 0 0 0 -1 
1 38.100000000000001 12.699999999999999 0 0 0 1 1 0 -0 -0 1 0 
1 38.100000000000001 12.699999999999999 3.4289999999999998 0 0 1 1 0 -0 -0 1 0 
1 76.199999999999989 0 0 -1 0 0 0 1 0 0 0 -1 
1 76.199999999999989 25.399999999999999 0 0 -1 0 -1 0 0 -0 -0 -1 
1 0 25.399999999999999 0 1 0 -0 0 -1 0 0 -0 -1 
Triangulations 0

TShapes 34
Ve
2.54e-06
0 0 0
0 0

0101101
*
Ve
2.54e-06
0 0 3.429
0 0

0101101
*
Ed
 2.54e-06 1 1 0
1  1 0 0 3.429
0

0101000
+34 0 -33 0 *
Ve
2.54e-06
76.2 0 0
0 0

0101101
*
Ve
2.54e-06
76.2 0 3.429
0 0

0101101
*
Ed
 2.54e-06 1 1 0
1  2 0 0 3.429
0

0101000
+31 0 -30 0 *
Ed
 2.54e-06 1 1 0
1  3 0 0 76.2
2  1 2 0 0 76.2
0

0101000
+34 0 -31 0 *
Ed
 2.54e-06 1 1 0
1  4 0 0 76.2
2  2 3 0 0 76.2
0

0101000
+33 0 -30 0 *
Wi

0101100
+32 0 -29 0 -28 0 +27 0 *
Fa
0  2.54e-06 1 0

0101000
+26 0 *
Ve
2.54e-06
76.2 25.4 0
0 0

0101101
*
Ve
2.54e-06
76.2 25.4 3.429
0 0

0101101
*
Ed
 2.54e-06 1 1 0
1  5 0 0 3.429
0

0101000
+24 0 -23 0 *
Ed
 2.54e-06 1 1 0
1  6 0 0 25.4
2  3 2 0 0 25.4
0

0101000
+31 0 -24 0 *
Ed
 2.54e-06 1 1 0
1  7 0 0 25.4
2  4 3 0 0 25.4
0

0101000
+30 0 -23 0 *
Wi

0101100
+29 0 -22 0 -21 0 +20 0 *
Fa
0  2.54e-06 4 0

0101000
+19 0 *
Ve
2.54e-06
0 25.4 0
0 0

0101101
*
Ve
2.54e-06
0 25.4 3.429
0 0

0101101
*
Ed
 2.54e-06 1 1 0
1  8 0 0 3.429
0

0101000
+17 0 -16 0 *
Ed
 2.54e-06 1 1 0
1  9 0 0 76.2
2  5 2 0 0 76.2
0

0101000
+24 0 -17 0 *
Ed
 2.54e-06 1 1 0
1  10 0 0 76.2
2  6 3 0 0 76.2
0

0101000
+23 0 -16 0 *
Wi

0101100
+22 0 -15 0 -14 0 +13 0 *
Fa
0  2.54e-06 5 0

0101000
+12 0 *
Ed
 2.54e-06 1 1 0
1  11 0 0 25.4
2  7 2 0 0 25.4
0

0101000
+17 0 -34 0 *
Ed
 2.54e-06 1 1 0
1  12 0 0 25.4
2  8 3 0 0 25.4
0

0101000
+16 0 -33 0 *
Wi

0101100
+15 0 -32 0 -10 0 +9 0 *
Fa
0  2.54e-06 6 0

0101000
+8 0 *
Wi

0101100
+28 0 +21 0 +14 0 +10 0 *
Fa
0  2.54e-06 2 0

0101000
+6 0 *
Wi

0101100
+27 0 +20 0 +13 0 +9 0 *
Fa
0  2.54e-06 3 0

0101000
+4 0 *
Sh

0101100
+25 0 +18 0 +11 0 +7 0 +5 0 -3 0 *
So

1100000
-2 0 *

+1 0 