DBRep_DrawableShape

CASCADE Topology V3, (c) Open Cascade
Locations 0
Curve2ds 24
1 -50.79999999999999 -30.956249999999994 1 0 
1 -50.79999999999999 -30.956249999999994 1 0 
1 -38.099999999999994 -30.956249999999994 0 -1 
1 -38.099999999999994 -30.956249999999994 0 -1 
1 -38.099999999999994 -43.656249999999993 1 0 
1 -38.099999999999994 -43.656249999999993 1 0 
1 -12.699999999999996 -43.656249999999993 0 1 
1 -12.699999999999996 -43.656249999999993 0 1 
1 -12.699999999999996 -30.956249999999994 1 0 
1 -12.699999999999996 -30.956249999999994 1 0 
1 12.70000000000001 -30.956249999999994 0 -1 
1 12.70000000000001 -30.956249999999994 0 -1 
1 12.70000000000001 -43.656249999999993 1 0 
1 12.70000000000001 -43.656249999999993 1 0 
1 38.100000000000001 -43.656249999999993 0 1 
1 38.100000000000001 -43.656249999999993 0 1 
1 38.100000000000001 -30.956249999999994 1 0 
1 38.100000000000001 -30.956249999999994 1 0 
1 50.800000000000004 -30.956249999999994 0 1 
1 50.800000000000004 -30.956249999999994 0 1 
1 50.800000000000004 45.243749999999991 -1 0 
1 50.800000000000004 45.243749999999991 -1 0 
1 -50.79999999999999 45.243749999999991 0 -1 
1 -50.79999999999999 45.243749999999991 0 -1 
Curves 36
1 0 0 0 0 0 1 
1 12.699999999999999 0 0 0 0 1 
1 0 0 0 1 0 0 
1 0 0 3.4289999999999998 1 0 0 
1 12.699999999999999 -12.699999999999999 0 0 0 1 
1 12.699999999999999 0 0 0 -1 0 
1 12.699999999999999 0 3.4289999999999998 0 -1 0 
1 38.099999999999994 -12.699999999999999 0 0 0 1 
1 12.699999999999999 -12.699999999999999 0 1 0 0 
1 12.699999999999999 -12.699999999999999 3.4289999999999998 1 0 0 
1 38.099999999999994 0 0 0 0 1 
1 38.099999999999994 -12.699999999999999 0 0 1 0 
1 38.099999999999994 -12.699999999999999 3.4289999999999998 0 1 0 
1 63.5 0 0 0 0 1 
1 38.099999999999994 0 0 1 0 0 
1 38.099999999999994 0 3.4289999999999998 1 0 0 
1 63.5 -12.699999999999999 0 0 0 1 
1 63.5 0 0 0 -1 0 
1 63.5 0 3.4289999999999998 0 -1 0 
1 88.899999999999991 -12.699999999999999 0 0 0 1 
1 63.5 -12.699999999999999 0 1 0 0 
1 63.5 -12.699999999999999 3.4289999999999998 1 0 0 
1 88.899999999999991 0 0 0 0 1 
1 88.899999999999991 -12.699999999999999 0 0 1 0 
1 88.899999999999991 -12.699999999999999 3.4289999999999998 0 1 0 
1 101.59999999999999 0 0 0 0 1 
1 88.899999999999991 0 0 1 0 0 
1 88.899999999999991 0 3.4289999999999998 1 0 0 
1 101.59999999999999 76.199999999999989 0 0 0 1 
1 101.59999999999999 0 0 0 1 0 
1 101.59999999999999 0 3.4289999999999998 0 1 0 
1 0 76.199999999999989 0 0 0 1 
1 101.59999999999999 76.199999999999989 0 -1 0 0 
1 101.59999999999999 76.199999999999989 3.4289999999999998 -1 0 0 
1 0 76.199999999999989 0 0 -1 0 
1 0 76.199999999999989 3.4289999999999998 0 -1 0 
Polygon3D 0
PolygonOnTriangulations 0
Surfaces 14
1 0 0 0 0 1 0 1 0 0 0 0 -1 
1 50.79999999999999 30.956249999999994 0 0 0 1 1 0 -0 -0 1 0 
1 50.79999999999999 30.956249999999994 3.4289999999999998 0 0 1 1 0 -0 -0 1 0 
1 12.699999999999999 0 0 1 0 -0 0 -1 0 0 -0 -1 
1 12.699999999999999 -12.699999999999999 0 0 1 0 1 0 0 0 0 -1 
1 38.099999999999994 -12.699999999999999 0 -1 0 0 0 1 0 0 0 -1 
1 38.099999999999994 0 0 0 1 0 1 0 0 0 0 -1 
1 63.5 0 0 1 0 -0 0 -1 0 0 -0 -1 
1 63.5 -12.699999999999999 0 0 1 0 1 0 0 0 0 -1 
1 88.899999999999991 -12.699999999999999 0 -1 0 0 0 1 0 0 0 -1 
1 88.899999999999991 0 0 0 1 0 1 0 0 0 0 -1 
1 101.59999999999999 0 0 -1 0 0 0 1 0 0 0 -1 
1 101.59999999999999 76.199999999999989 0 0 -1 0 -1 0 0 -0 -0 -1 
1 0 76.199999999999989 0 1 0 -0 0 -1 0 0 -0 -1 
Triangulations 0

TShapes 90
Ve
2.54e-06
0 0 0
0 0

0101101
*
Ve
2.54e-06
0 0 3.429
0 0

0101101
*
Ed
 2.54e-06 1 1 0
1  1 0 0 3.429
0

0101000
+90 0 -89 0 *
Ve
2.54e-06
12.7 0 0
0 0

0101101
*
Ve
2.54e-06
12.7 0 3.429
0 0

0101101
*
Ed
 2.54e-06 1 1 0
1  2 0 0 3.429
0

0101000
+87 0 -86 0 *
Ed
 2.54e-06 1 1 0
1  3 0 0 12.7
2  1 2 0 0 12.7
0

0101000
+90 0 -87 0 *
Ed
 2.54e-06 1 1 0
1  4 0 0 12.7
2  2 3 0 0 12.7
0

0101000
+89 0 -86 0 *
Wi

0101100
+88 0 -85 0 -84 0 +83 0 *
Fa
0  2.54e-06 1 0

0101000
+82 0 *
Ve
2.54e-06
12.7 -12.7 0
0 0

0101101
*
Ve
2.54e-06
12.7 -12.7 3.429
0 0

0101101
*
Ed
 2.54e-06 1 1 0
1  5 0 0 3.429
0

0101000
+80 0 -79 0 *
Ed
 2.54e-06 1 1 0
1  6 0 0 12.7
2  3 2 0 0 12.7
0

0101000
+87 0 -80 0 *
Ed
 2.54e-06 1 1 0
1  7 0 0 12.7
2  4 3 0 0 12.7
0

0101000
+86 0 -79 0 *
Wi

0101100
+85 0 -78 0 -77 0 +76 0 *
Fa
0  2.54e-06 4 0

0101000
+75 0 *
Ve
2.54e-06
38.1 -12.7 0
0 0

0101101
*
Ve
2.54e-06
38.1 -12.7 3.429
0 0

0101101
*
Ed
 2.54e-06 1 1 0
1  8 0 0 3.429
0

0101000
+73 0 -72 0 *
Ed
 2.54e-06 1 1 0
1  9 0 0 25.4
2  5 2 0 0 25.4
0

0101000
+80 0 -73 0 *
Ed
 2.54e-06 1 1 0
1  10 0 0 25.4
2  6 3 0 0 25.4
0

0101000
+79 0 -72 0 *
Wi

0101100
+78 0 -71 0 -70 0 +69 0 *
Fa
0  2.54e-06 5 0

0101000
+68 0 *
Ve
2.54e-06
38.1 0 0
0 0

0101101
*
Ve
2.54e-06
38.1 0 3.429
0 0

0101101
*
Ed
 2.54e-06 1 1 0
1  11 0 0 3.429
0

0101000
+66 0 -65 0 *
Ed
 2.54e-06 1 1 0
1  12 0 0 12.7
2  7 2 0 0 12.7
0

0101000
+73 0 -66 0 *
Ed
 2.54e-06 1 1 0
1  13 0 0 12.7
2  8 3 0 0 12.7
0

0101000
+72 0 -65 0 *
Wi

0101100
+71 0 -64 0 -63 0 +62 0 *
Fa
0  2.54e-06 6 0

0101000
+61 0 *
Ve
2.54e-06
63.5 0 0
0 0

0101101
*
Ve
2.54e-06
63.5 0 3.429
0 0

0101101
*
Ed
 2.54e-06 1 1 0
1  14 0 0 3.429
0

0101000
+59 0 -58 0 *
Ed
 2.54e-06 1 1 0
1  15 0 0 25.4
2  9 2 0 0 25.4
0

0101000
+66 0 -59 0 *
Ed
 2.54e-06 1 1 0
1  16 0 0 25.4
2  10 3 0 0 25.4
0

0101000
+65 0 -58 0 *
Wi

0101100
+64 0 -57 0 -56 0 +55 0 *
Fa
0  2.54e-06 7 0

0101000
+54 0 *
Ve
2.54e-06
63.5 -12.7 0
0 0

0101101
*
Ve
2.54e-06
63.5 -12.7 3.429
0 0

0101101
*
Ed
 2.54e-06 1 1 0
1  17 0 0 3.429
0

0101000
+52 0 -51 0 *
Ed
 2.54e-06 1 1 0
1  18 0 0 12.7
2  11 2 0 0 12.7
0

0101000
+59 0 -52 0 *
Ed
 2.54e-06 1 1 0
1  19 0 0 12.7
2  12 3 0 0 12.7
0

0101000
+58 0 -51 0 *
Wi

0101100
+57 0 -50 0 -49 0 +48 0 *
Fa
0  2.54e-06 8 0

0101000
+47 0 *
Ve
2.54e-06
88.9 -12.7 0
0 0

0101101
*
Ve
2.54e-06
88.9 -12.7 3.429
0 0

0101101
*
Ed
 2.54e-06 1 1 0
1  20 0 0 3.429
0

0101000
+45 0 -44 0 *
Ed
 2.54e-06 1 1 0
1  21 0 0 25.4
2  13 2 0 0 25.4
0

0101000
+52 0 -45 0 *
Ed
 2.54e-06 1 1 0
1  22 0 0 25.4
2  14 3 0 0 25.4
0

0101000
+51 0 -44 0 *
Wi

0101100
+50 0 -43 0 -42 0 +41 0 *
Fa
0  2.54e-06 9 0

0101000
+40 0 *
Ve
2.54e-06
88.9 0 0
0 0

0101101
*
Ve
2.54e-06
88.9 0 3.429
0 0

0101101
*
Ed
 2.54e-06 1 1 0
1  23 0 0 3.429
0

0101000
+38 0 -37 0 *
Ed
 2.54e-06 1 1 0
1  24 0 0 12.7
2  15 2 0 0 12.7
0

0101000
+45 0 -38 0 *
Ed
 2.54e-06 1 1 0
1  25 0 0 12.7
2  16 3 0 0 12.7
0

0101000
+44 0 -37 0 *
Wi

0101100
+43 0 -36 0 -35 0 +34 0 *
Fa
0  2.54e-06 10 0

0101000
+33 0 *
Ve
2.54e-06
101.6 0 0
0 0

0101101
*
Ve
2.54e-06
101.6 0 3.429
0 0

0101101
*
Ed
 2.54e-06 1 1 0
1  26 0 0 3.429
0

0101000
+31 0 -30 0 *
Ed
 2.54e-06 1 1 0
1  27 0 0 12.7
2  17 2 0 0 12.7
0

0101000
+38 0 -31 0 *
Ed
 2.54e-06 1 1 0
1  28 0 0 12.7
2  18 3 0 0 12.7
0

0101000
+37 0 -30 0 *
Wi

0101100
+36 0 -29 0 -28 0 +27 0 *
Fa
0  2.54e-06 11 0

0101000
+26 0 *
Ve
2.54e-06
101.6 76.2 0
0 0

0101101
*
Ve
2.54e-06
101.6 76.2 3.429
0 0

0101101
*
Ed
 2.54e-06 1 1 0
1  29 0 0 3.429
0

0101000
+24 0 -23 0 *
Ed
 2.54e-06 1 1 0
1  30 0 0 76.2
2  19 2 0 0 76.2
0

0101000
+31 0 -24 0 *
Ed
 2.54e-06 1 1 0
1  31 0 0 76.2
2  20 3 0 0 76.2
0

0101000
+30 0 -23 0 *
Wi

0101100
+29 0 -22 0 -21 0 +20 0 *
Fa
0  2.54e-06 12 0

0101000
+19 0 *
Ve
2.54e-06
0 76.2 0
0 0

0101101
*
Ve
2.54e-06
0 76.2 3.429
0 0

0101101
*
Ed
 2.54e-06 1 1 0
1  32 0 0 3.429
0

0101000
+17 0 -16 0 *
Ed
 2.54e-06 1 1 0
1  33 0 0 101.6
2  21 2 0 0 101.6
0

0101000
+24 0 -17 0 *
Ed
 2.54e-06 1 1 0
1  34 0 0 101.6
2  22 3 0 0 101.6
0

0101000
+23 0 -16 0 *
Wi

0101100
+22 0 -15 0 -14 0 +13 0 *
Fa
0  2.54e-06 13 0

0101000
+12 0 *
Ed
 2.54e-06 1 1 0
1  35 0 0 76.2
2  23 2 0 0 76.2
0

0101000
+17 0 -90 0 *
Ed
 2.54e-06 1 1 0
1  36 0 0 76.2
2  24 3 0 0 76.2
0

0101000
+16 0 -89 0 *
Wi

0101100
+15 0 -88 0 -10 0 +9 0 *
Fa
0  2.54e-06 14 0

0101000
+8 0 *
Wi

0101100
+84 0 +77 0 +70 0 +63 0 +56 0 +49 0 +42 0 +35 0 +28 0 +21 0 
+14 0 +10 0 *
Fa
0  2.54e-06 2 0

0101000
+6 0 *
Wi

0101100
+83 0 +76 0 +69 0 +62 0 +55 0 +48 0 +41 0 +34 0 +27 0 +20 0 
+13 0 +9 0 *
Fa
0  2.54e-06 3 0

0101000
+4 0 *
Sh

0101100
+81 0 +74 0 +67 0 +60 0 +53 0 +46 0 +39 0 +32 0 +25 0 +18 0 
+11 0 +7 0 +5 0 -3 0 *
So

1100000
-2 0 *

+1 0 