DBRep_DrawableShape

CASCADE Topology V3, (c) Open Cascade
Locations 0
Curve2ds 48
1 -38.099999999999994 -46.143333333333324 1 0 
1 -38.099999999999994 -46.143333333333324 1 0 
1 -38.099999999999994 55.456666666666671 0 -1 
1 -38.099999999999994 55.456666666666671 0 -1 
1 -12.699999999999996 -46.143333333333324 0 -1 
1 -12.699999999999996 -46.143333333333324 0 -1 
1 38.099999999999994 55.456666666666671 -1 0 
1 38.099999999999994 -46.143333333333324 0 1 
1 0 0 1 0 
1 -1.9049999999999869 31.75 1 0 
1 0 -0 1 0 
1 38.099999999999994 36.406666666666673 -1 0 
1 1.9050000000000011 31.75 0 -1 
1 0 0 1 0 
1 34.290000000000006 36.406666666666673 0 -1 
1 1.9050000000000011 -31.75 -1 0 
1 0 0 1 0 
1 34.290000000000006 -27.093333333333327 1 0 
1 12.700000000000003 -46.143333333333324 1 0 
1 12.700000000000003 -58.84333333333332 0 1 
1 -12.699999999999996 -58.84333333333332 1 0 
1 38.099999999999994 55.456666666666671 -1 0 
1 38.099999999999994 -46.143333333333324 0 1 
1 0 -3.4289999999999998 1 0 
1 -1.9049999999999869 31.75 1 0 
1 0 -3.4289999999999998 1 0 
1 38.099999999999994 36.406666666666673 -1 0 
1 1.9050000000000011 31.75 0 -1 
1 0 -3.4289999999999998 1 0 
1 34.290000000000006 36.406666666666673 0 -1 
1 1.9050000000000011 -31.75 -1 0 
1 0 -3.4289999999999998 1 0 
1 34.290000000000006 -27.093333333333327 1 0 
1 12.700000000000003 -46.143333333333324 1 0 
1 12.700000000000003 -58.84333333333332 0 1 
1 -12.699999999999996 -58.84333333333332 1 0 
1 101.59999999999999 0 0 -1 
1 0 -0 0 -1 
1 63.5 0 0 -1 
1 82.549999999999997 0 0 -1 
1 3.8099999999999881 0 0 -1 
1 0 0 0 -1 
1 0 0 0 -1 
1 63.5 0 0 -1 
1 0 0 0 -1 
1 3.8099999999999881 0 0 -1 
1 19.049999999999997 0 0 -1 
1 0 0 0 -1 
Curves 34
1 0 0 0 0 0 1 
1 25.399999999999999 0 0 0 0 1 
1 0 0 0 1 0 0 
1 0 0 3.4289999999999998 1 0 0 
1 0 101.59999999999999 0 0 0 1 
1 0 101.59999999999999 0 0 -1 0 
1 0 101.59999999999999 3.4289999999999998 0 -1 0 
1 25.399999999999999 -12.699999999999999 0 0 0 1 
1 25.399999999999999 0 0 0 -1 0 
1 25.399999999999999 0 3.4289999999999998 0 -1 0 
1 76.199999999999989 101.59999999999999 0 -1 0 0 
1 76.199999999999989 0 0 0 1 0 
1 76.199999999999989 82.549999999999997 0 -1 0 0 
1 72.390000000000001 82.549999999999997 0 0 -1 0 
1 72.390000000000001 19.049999999999997 0 1 0 0 
1 50.799999999999997 0 0 1 0 0 
1 50.799999999999997 -12.699999999999999 0 0 1 0 
1 25.399999999999999 -12.699999999999999 0 1 0 0 
1 76.199999999999989 101.59999999999999 3.4289999999999998 -1 0 0 
1 76.199999999999989 0 3.4289999999999998 0 1 0 
1 76.199999999999989 82.549999999999997 3.4289999999999998 -1 0 0 
1 72.390000000000001 82.549999999999997 3.4289999999999998 0 -1 0 
1 72.390000000000001 19.049999999999997 3.4289999999999998 1 0 0 
1 50.799999999999997 0 3.4289999999999998 1 0 0 
1 50.799999999999997 -12.699999999999999 3.4289999999999998 0 1 0 
1 25.399999999999999 -12.699999999999999 3.4289999999999998 1 0 0 
1 76.199999999999989 101.59999999999999 0 0 0 1 
1 50.799999999999997 -12.699999999999999 0 0 0 1 
1 76.199999999999989 82.549999999999997 0 0 0 1 
1 72.390000000000001 82.549999999999997 0 0 0 1 
1 72.390000000000001 19.049999999999997 0 0 0 1 
1 76.199999999999989 19.049999999999997 0 0 0 1 
1 76.199999999999989 0 0 0 0 1 
1 50.799999999999997 0 0 0 0 1 
Polygon3D 0
PolygonOnTriangulations 0
Surfaces 16
1 0 0 0 0 1 0 1 0 0 0 0 -1 
1 38.099999999999994 46.143333333333324 0 0 0 1 1 0 -0 -0 1 0 
1 38.099999999999994 46.143333333333324 3.4289999999999998 0 0 1 1 0 -0 -0 1 0 
1 0 101.59999999999999 0 1 0 -0 0 -1 0 0 -0 -1 
1 25.399999999999999 0 0 1 0 -0 0 -1 0 0 -0 -1 
1 76.199999999999989 0 0 -1 0 0 0 1 0 0 0 -1 
1 74.295000000000002 50.799999999999997 0 -0 -0 -1 -1 0 0 0 1 -0 
1 76.199999999999989 82.549999999999997 0 0 -1 0 -1 0 0 -0 -0 -1 
1 72.390000000000001 82.549999999999997 0 1 0 -0 0 -1 0 0 -0 -1 
1 72.390000000000001 19.049999999999997 0 0 1 0 1 0 0 0 0 -1 
1 74.295000000000002 50.799999999999997 3.4289999999999998 -0 -0 -1 -1 0 0 0 1 -0 
1 76.199999999999989 101.59999999999999 0 0 -1 0 -1 0 0 -0 -0 -1 
1 25.399999999999999 -12.699999999999999 0 0 1 0 1 0 0 0 0 -1 
1 76.199999999999989 19.049999999999997 0 -1 0 0 0 1 0 0 0 -1 
1 50.799999999999997 0 0 0 1 0 1 0 0 0 0 -1 
1 50.799999999999997 -12.699999999999999 0 -1 0 0 0 1 0 0 0 -1 
Triangulations 0

TShapes 91
Ve
2.54e-06
0 0 0
0 0

0101101
*
Ve
2.54e-06
0 0 3.429
0 0

0101101
*
Ed
 2.54e-06 1 1 0
1  1 0 0 3.429
0

0101000
+91 0 -90 0 *
Ve
2.54e-06
25.4 0 0
0 0

0101101
*
Ve
2.54e-06
25.4 0 3.429
0 0

0101101
*
Ed
 2.54e-06 1 1 0
1  2 0 0 3.429
0

0101000
+88 0 -87 0 *
Ed
 2.54e-06 1 1 0
1  3 0 0 25.4
2  1 2 0 0 25.4
0

0101000
+91 0 -88 0 *
Ed
 2.54e-06 1 1 0
1  4 0 0 25.4
2  2 3 0 0 25.4
0

0101000
+90 0 -87 0 *
Wi

0101100
+89 0 -86 0 -85 0 +84 0 *
Fa
0  2.54e-06 1 0

0101000
+83 0 *
Ve
2.54e-06
0 101.6 0
0 0

0101101
*
Ve
2.54e-06
0 101.6 3.429
0 0

0101101
*
Ed
 2.54e-06 1 1 0
1  5 0 0 3.429
0

0101000
+81 0 -80 0 *
Ed
 2.54e-06 1 1 0
1  6 0 0 101.6
2  3 2 0 0 101.6
0

0101000
+81 0 -91 0 *
Ed
 2.54e-06 1 1 0
1  7 0 0 101.6
2  4 3 0 0 101.6
0

0101000
+80 0 -90 0 *
Wi

0101100
+79 0 -89 0 -78 0 +77 0 *
Fa
0  2.54e-06 4 0

0101000
+76 0 *
Ve
2.54e-06
25.4 -12.7 0
0 0

0101101
*
Ve
2.54e-06
25.4 -12.7 3.429
0 0

0101101
*
Ed
 2.54e-06 1 1 0
1  8 0 0 3.429
0

0101000
+74 0 -73 0 *
Ed
 2.54e-06 1 1 0
1  9 0 0 12.7
2  5 2 0 0 12.7
0

0101000
+88 0 -74 0 *
Ed
 2.54e-06 1 1 0
1  10 0 0 12.7
2  6 3 0 0 12.7
0

0101000
+87 0 -73 0 *
Wi

0101100
+86 0 -72 0 -71 0 +70 0 *
Fa
0  2.54e-06 5 0

0101000
+69 0 *
Ve
2.54e-06
76.2 101.6 0
0 0

0101101
*
Ed
 2.54e-06 1 1 0
1  11 0 0 76.2
2  7 2 0 0 76.2
0

0101000
+67 0 -81 0 *
Ve
2.54e-06
76.2 82.55 0
0 0

0101101
*
Ed
 2.54e-06 1 1 0
1  12 0 82.55 101.6
2  8 2 0 82.55 101.6
2  9 6 0 82.55 101.6
0

0101000
+65 0 -67 0 *
Ve
2.54e-06
72.39 82.55 0
0 0

0101101
*
Ed
 2.54e-06 1 1 0
1  13 0 0 3.81
2  10 7 0 0 3.81
2  11 8 0 0 3.81
2  12 2 0 0 3.81
0

0101000
+65 0 -63 0 *
Ve
2.54e-06
72.39 19.05 0
0 0

0101101
*
Ed
 2.54e-06 1 1 0
1  14 0 0 63.5
2  13 7 0 0 63.5
2  14 9 0 0 63.5
2  15 2 0 0 63.5
0

0101000
+63 0 -61 0 *
Ve
2.54e-06
76.2 19.05 0
0 0

0101101
*
Ed
 2.54e-06 1 1 0
1  15 0 0 3.81
2  16 7 0 0 3.81
2  17 10 0 0 3.81
2  18 2 0 0 3.81
0

0101000
+61 0 -59 0 *
Ve
2.54e-06
76.2 0 0
0 0

0101101
*
Ed
 2.54e-06 1 1 0
1  12 0 0 19.05
2  8 2 0 0 19.05
2  9 6 0 0 19.05
0

0101000
+57 0 -59 0 *
Ve
2.54e-06
50.8 0 0
0 0

0101101
*
Ed
 2.54e-06 1 1 0
1  16 0 0 25.4
2  19 2 0 0 25.4
0

0101000
+55 0 -57 0 *
Ve
2.54e-06
50.8 -12.7 0
0 0

0101101
*
Ed
 2.54e-06 1 1 0
1  17 0 0 12.7
2  20 2 0 0 12.7
0

0101000
+53 0 -55 0 *
Ed
 2.54e-06 1 1 0
1  18 0 0 25.4
2  21 2 0 0 25.4
0

0101000
+74 0 -53 0 *
Wi

0101100
+78 0 +66 0 +64 0 -62 0 -60 0 -58 0 +56 0 +54 0 +52 0 +51 0 
+71 0 +85 0 *
Fa
0  2.54e-06 2 0

0101000
+50 0 *
Ve
2.54e-06
76.2 101.6 3.429
0 0

0101101
*
Ed
 2.54e-06 1 1 0
1  19 0 0 76.2
2  22 3 0 0 76.2
0

0101000
+48 0 -80 0 *
Ve
2.54e-06
76.2 82.55 3.429
0 0

0101101
*
Ed
 2.54e-06 1 1 0
1  20 0 82.55 101.6
2  23 3 0 82.55 101.6
2  24 6 0 82.55 101.6
0

0101000
+46 0 -48 0 *
Ve
2.54e-06
72.39 82.55 3.429
0 0

0101101
*
Ed
 2.54e-06 1 1 0
1  21 0 0 3.81
2  25 11 0 0 3.81
2  26 8 0 0 3.81
2  27 3 0 0 3.81
0

0101000
+46 0 -44 0 *
Ve
2.54e-06
72.39 19.05 3.429
0 0

0101101
*
Ed
 2.54e-06 1 1 0
1  22 0 0 63.5
2  28 11 0 0 63.5
2  29 9 0 0 63.5
2  30 3 0 0 63.5
0

0101000
+44 0 -42 0 *
Ve
2.54e-06
76.2 19.05 3.429
0 0

0101101
*
Ed
 2.54e-06 1 1 0
1  23 0 0 3.81
2  31 11 0 0 3.81
2  32 10 0 0 3.81
2  33 3 0 0 3.81
0

0101000
+42 0 -40 0 *
Ve
2.54e-06
76.2 0 3.429
0 0

0101101
*
Ed
 2.54e-06 1 1 0
1  20 0 0 19.05
2  23 3 0 0 19.05
2  24 6 0 0 19.05
0

0101000
+38 0 -40 0 *
Ve
2.54e-06
50.8 0 3.429
0 0

0101101
*
Ed
 2.54e-06 1 1 0
1  24 0 0 25.4
2  34 3 0 0 25.4
0

0101000
+36 0 -38 0 *
Ve
2.54e-06
50.8 -12.7 3.429
0 0

0101101
*
Ed
 2.54e-06 1 1 0
1  25 0 0 12.7
2  35 3 0 0 12.7
0

0101000
+34 0 -36 0 *
Ed
 2.54e-06 1 1 0
1  26 0 0 25.4
2  36 3 0 0 25.4
0

0101000
+73 0 -34 0 *
Wi

0101100
+77 0 +47 0 +45 0 -43 0 -41 0 -39 0 +37 0 +35 0 +33 0 +32 0 
+70 0 +84 0 *
Fa
0  2.54e-06 3 0

0101000
+31 0 *
Ed
 2.54e-06 1 1 0
1  27 0 0 3.429
2  37 6 0 0 3.429
0

0101000
+67 0 -48 0 *
Wi

0101100
+29 0 -79 0 -66 0 +47 0 *
Fa
0  2.54e-06 12 0

0101000
+28 0 *
Ed
 2.54e-06 1 1 0
1  28 0 0 3.429
0

0101000
+53 0 -34 0 *
Wi

0101100
+72 0 -26 0 -51 0 +32 0 *
Fa
0  2.54e-06 13 0

0101000
+25 0 *
Ed
 2.54e-06 1 1 0
1  29 0 0 3.429
2  38 8 0 0 3.429
2  39 14 0 0 3.429
2  40 6 0 0 3.429
0

0101000
+65 0 -46 0 *
Wi

0101100
-64 0 -29 0 +45 0 +23 0 *
Fa
0  2.54e-06 6 0

0101000
+22 0 *
Ed
 2.54e-06 1 1 0
1  30 0 0 3.429
2  41 8 0 0 3.429
2  42 9 0 0 3.429
0

0101000
+63 0 -44 0 *
Wi

0101100
+23 0 -20 0 -62 0 +43 0 *
Fa
0  2.54e-06 8 0

0101000
+19 0 *
Ed
 2.54e-06 1 1 0
1  31 0 0 3.429
2  43 10 0 0 3.429
2  44 9 0 0 3.429
0

0101000
+61 0 -42 0 *
Wi

0101100
+20 0 -17 0 -60 0 +41 0 *
Fa
0  2.54e-06 9 0

0101000
+16 0 *
Ed
 2.54e-06 1 1 0
1  32 0 0 3.429
2  45 14 0 0 3.429
2  46 10 0 0 3.429
2  47 6 0 0 3.429
0

0101000
+59 0 -40 0 *
Wi

0101100
+17 0 -14 0 -58 0 +39 0 *
Fa
0  2.54e-06 10 0

0101000
+13 0 *
Ed
 2.54e-06 1 1 0
1  33 0 0 3.429
2  48 6 0 0 3.429
0

0101000
+57 0 -38 0 *
Wi

0101100
-56 0 -14 0 +37 0 +11 0 *
Fa
0  2.54e-06 6 0

0101000
+10 0 *
Ed
 2.54e-06 1 1 0
1  34 0 0 3.429
0

0101000
+55 0 -36 0 *
Wi

0101100
+8 0 -11 0 -54 0 +35 0 *
Fa
0  2.54e-06 15 0

0101000
+7 0 *
Wi

0101100
+26 0 -8 0 -52 0 +33 0 *
Fa
0  2.54e-06 16 0

0101000
+5 0 *
Sh

0101100
-82 0 -75 0 -68 0 -49 0 +30 0 -27 0 -24 0 -21 0 +18 0 +15 0 
+12 0 -9 0 -6 0 -4 0 *
So

0100000
+3 0 *
Co

1100000
+2 0 *

+1 0 