DBRep_DrawableShape

CASCADE Topology V3, (c) Open Cascade
Locations 0
Curve2ds 38
1 101.59999999999999 0 0 -1 
1 -38.099999999999994 -46.143333333333324 1 0 
1 -38.099999999999994 -46.143333333333324 1 0 
1 -38.099999999999994 55.456666666666671 0 -1 
1 0 0 1 0 
1 -38.099999999999994 55.456666666666671 0 -1 
1 0 -3.4289999999999998 1 0 
1 12.699999999999999 0 0 -1 
1 0 0 0 -1 
1 76.199999999999989 0 0 -1 
1 -12.699999999999996 -46.143333333333324 0 -1 
1 -12.699999999999996 -46.143333333333324 0 -1 
1 -12.699999999999996 -58.84333333333332 1 0 
1 12.700000000000003 -58.84333333333332 0 1 
1 12.700000000000003 -46.143333333333324 1 0 
1 38.099999999999994 -46.143333333333324 0 1 
1 38.099999999999994 55.456666666666671 -1 0 
1 6.3499999999999996 6.3500000000000014 -1 0 
1 0 -0 1 0 
1 -6.3499999999999996 6.3500000000000014 0 -1 
1 -6.3499999999999996 -6.3499999999999943 1 0 
1 0 0 1 0 
1 -12.699999999999996 -58.84333333333332 1 0 
1 12.700000000000003 -58.84333333333332 0 1 
1 12.700000000000003 -46.143333333333324 1 0 
1 38.099999999999994 -46.143333333333324 0 1 
1 38.099999999999994 55.456666666666671 -1 0 
1 6.3499999999999996 6.3500000000000014 -1 0 
1 0 -3.4289999999999998 1 0 
1 -6.3499999999999996 6.3500000000000014 0 -1 
1 -6.3499999999999996 -6.3499999999999943 1 0 
1 0 -3.4289999999999998 1 0 
1 0 0 0 -1 
1 0 0 0 -1 
1 12.699999999999996 0 0 -1 
1 0 -0 0 -1 
1 63.5 0 0 -1 
1 12.699999999999999 0 0 -1 
Curves 34
1 0 0 0 0 0 1 
1 25.399999999999999 0 0 0 0 1 
1 0 0 0 1 0 0 
1 0 0 3.4289999999999998 1 0 0 
1 0 101.59999999999999 0 0 -1 0 
1 0 101.59999999999999 3.4289999999999998 0 -1 0 
1 0 25.399999999999999 0 0 0 1 
1 25.399999999999999 -12.699999999999999 0 0 0 1 
1 25.399999999999999 0 0 0 -1 0 
1 25.399999999999999 0 3.4289999999999998 0 -1 0 
1 25.399999999999999 -12.699999999999999 0 1 0 0 
1 50.799999999999997 -12.699999999999999 0 0 1 0 
1 50.799999999999997 0 0 1 0 0 
1 76.199999999999989 0 0 0 1 0 
1 76.199999999999989 101.59999999999999 0 -1 0 0 
1 0 38.099999999999994 0 -1 0 0 
1 -12.699999999999999 38.099999999999994 0 0 -1 0 
1 -12.699999999999999 25.399999999999999 0 1 0 0 
1 25.399999999999999 -12.699999999999999 3.4289999999999998 1 0 0 
1 50.799999999999997 -12.699999999999999 3.4289999999999998 0 1 0 
1 50.799999999999997 0 3.4289999999999998 1 0 0 
1 76.199999999999989 0 3.4289999999999998 0 1 0 
1 76.199999999999989 101.59999999999999 3.4289999999999998 -1 0 0 
1 0 38.099999999999994 3.4289999999999998 -1 0 0 
1 -12.699999999999999 38.099999999999994 3.4289999999999998 0 -1 0 
1 -12.699999999999999 25.399999999999999 3.4289999999999998 1 0 0 
1 -12.699999999999999 25.399999999999999 0 0 0 1 
1 50.799999999999997 -12.699999999999999 0 0 0 1 
1 50.799999999999997 0 0 0 0 1 
1 76.199999999999989 0 0 0 0 1 
1 76.199999999999989 101.59999999999999 0 0 0 1 
1 0 101.59999999999999 0 0 0 1 
1 0 38.099999999999994 0 0 0 1 
1 -12.699999999999999 38.099999999999994 0 0 0 1 
Polygon3D 0
PolygonOnTriangulations 0
Surfaces 18
1 0 0 0 0 1 0 1 0 0 0 0 -1 
1 0 101.59999999999999 0 1 0 -0 0 -1 0 0 -0 -1 
1 38.099999999999994 46.143333333333324 0 0 0 1 1 0 -0 -0 1 0 
1 38.099999999999994 46.143333333333324 3.4289999999999998 0 0 1 1 0 -0 -0 1 0 
1 -12.699999999999999 25.399999999999999 0 0 1 0 1 0 0 0 0 -1 
1 0 25.399999999999999 0 -1 0 0 0 1 0 0 0 -1 
1 25.399999999999999 0 0 1 0 -0 0 -1 0 0 -0 -1 
1 38.099999999999994 46.143333333333324 0 0 0 1 1 0 -0 -0 1 0 
1 -6.3499999999999996 31.749999999999993 0 0 0 1 1 0 -0 -0 1 0 
1 0 38.099999999999994 0 0 -1 0 -1 0 0 -0 -0 -1 
1 38.099999999999994 46.143333333333324 3.4289999999999998 0 0 1 1 0 -0 -0 1 0 
1 -6.3499999999999996 31.749999999999993 3.4289999999999998 0 0 1 1 0 -0 -0 1 0 
1 25.399999999999999 -12.699999999999999 0 0 1 0 1 0 0 0 0 -1 
1 50.799999999999997 -12.699999999999999 0 -1 0 0 0 1 0 0 0 -1 
1 50.799999999999997 0 0 0 1 0 1 0 0 0 0 -1 
1 76.199999999999989 0 0 -1 0 0 0 1 0 0 0 -1 
1 76.199999999999989 101.59999999999999 0 0 -1 0 -1 0 0 -0 -0 -1 
1 -12.699999999999999 38.099999999999994 0 1 0 -0 0 -1 0 0 -0 -1 
Triangulations 0

TShapes 91
Ve
2.54e-06
0 0 0
0 0

0101101
*
Ve
2.54e-06
0 0 3.429
0 0

0101101
*
Ed
 2.54e-06 1 1 0
1  1 0 0 3.429
2  1 2 0 0 3.429
0

0101000
+91 0 -90 0 *
Ve
2.54e-06
25.4 0 0
0 0

0101101
*
Ve
2.54e-06
25.4 0 3.429
0 0

0101101
*
Ed
 2.54e-06 1 1 0
1  2 0 0 3.429
0

0101000
+88 0 -87 0 *
Ed
 2.54e-06 1 1 0
1  3 0 0 25.4
2  2 3 0 0 25.4
0

0101000
+91 0 -88 0 *
Ed
 2.54e-06 1 1 0
1  4 0 0 25.4
2  3 4 0 0 25.4
0

0101000
+90 0 -87 0 *
Wi

0101100
+89 0 -86 0 -85 0 +84 0 *
Fa
0  2.54e-06 1 0

0101000
+83 0 *
Ve
2.54000000710543e-06
0 25.4 0
0 0

0101101
*
Ed
 2.54e-06 1 1 0
1  5 0 76.2 101.6
2  4 3 0 76.2 101.6
2  5 2 0 76.2 101.6
0

0101000
+81 0 -91 0 *
Ve
2.54000000710543e-06
0 25.4 3.429
0 0

0101101
*
Ed
 2.54e-06 1 1 0
1  6 0 76.2 101.6
2  6 4 0 76.2 101.6
2  7 2 0 76.2 101.6
0

0101000
+79 0 -90 0 *
Ed
 2.54e-06 1 1 0
1  7 0 0 3.429
2  8 5 0 0 3.429
2  9 6 0 0 3.429
2  10 2 0 0 3.429
0

0101000
+81 0 -79 0 *
Wi

0101100
-80 0 -89 0 +78 0 +77 0 *
Fa
0  2.54e-06 2 0

0101000
+76 0 *
Ve
2.54e-06
25.4 -12.7 0
0 0

0101101
*
Ve
2.54e-06
25.4 -12.7 3.429
0 0

0101101
*
Ed
 2.54e-06 1 1 0
1  8 0 0 3.429
0

0101000
+74 0 -73 0 *
Ed
 2.54e-06 1 1 0
1  9 0 0 12.7
2  11 3 0 0 12.7
0

0101000
+88 0 -74 0 *
Ed
 2.54e-06 1 1 0
1  10 0 0 12.7
2  12 4 0 0 12.7
0

0101000
+87 0 -73 0 *
Wi

0101100
+86 0 -72 0 -71 0 +70 0 *
Fa
0  2.54e-06 7 0

0101000
+69 0 *
Ve
2.54e-06
50.8 -12.7 0
0 0

0101101
*
Ed
 2.54e-06 1 1 0
1  11 0 0 25.4
2  13 3 0 0 25.4
0

0101000
+74 0 -67 0 *
Ve
2.54e-06
50.8 0 0
0 0

0101101
*
Ed
 2.54e-06 1 1 0
1  12 0 0 12.7
2  14 3 0 0 12.7
0

0101000
+67 0 -65 0 *
Ve
2.54e-06
76.2 0 0
0 0

0101101
*
Ed
 2.54e-06 1 1 0
1  13 0 0 25.4
2  15 3 0 0 25.4
0

0101000
+65 0 -63 0 *
Ve
2.54e-06
76.2 101.6 0
0 0

0101101
*
Ed
 2.54e-06 1 1 0
1  14 0 0 101.6
2  16 3 0 0 101.6
0

0101000
+63 0 -61 0 *
Ve
2.54e-06
0 101.6 0
0 0

0101101
*
Ed
 2.54e-06 1 1 0
1  15 0 0 76.2
2  17 3 0 0 76.2
0

0101000
+61 0 -59 0 *
Ve
2.54000000710543e-06
0 38.1 0
0 0

0101101
*
Ed
 2.54e-06 1 1 0
1  5 0 0 63.5
2  4 3 0 0 63.5
2  5 2 0 0 63.5
0

0101000
+59 0 -57 0 *
Ve
2.54e-06
-12.7 38.1 0
0 0

0101101
*
Ed
 2.54e-06 1 1 0
1  16 0 0 12.7
2  18 9 0 0 12.7
2  19 10 0 0 12.7
0

0101000
+57 0 -55 0 *
Ve
2.54e-06
-12.7 25.4 0
0 0

0101101
*
Ed
 2.54e-06 1 1 0
1  17 0 0 12.7
2  20 9 0 0 12.7
0

0101000
+55 0 -53 0 *
Ed
 2.54e-06 1 1 0
1  18 0 0 12.7
2  21 9 0 0 12.7
2  22 5 0 0 12.7
0

0101000
+53 0 -81 0 *
Wi

0101100
+85 0 +71 0 +66 0 +64 0 +62 0 +60 0 +58 0 +56 0 +54 0 +52 0 
+51 0 +80 0 *
Fa
0  0 8 0

0101000
+50 0 *
Ve
2.54e-06
50.8 -12.7 3.429
0 0

0101101
*
Ed
 2.54e-06 1 1 0
1  19 0 0 25.4
2  23 4 0 0 25.4
0

0101000
+73 0 -48 0 *
Ve
2.54e-06
50.8 0 3.429
0 0

0101101
*
Ed
 2.54e-06 1 1 0
1  20 0 0 12.7
2  24 4 0 0 12.7
0

0101000
+48 0 -46 0 *
Ve
2.54e-06
76.2 0 3.429
0 0

0101101
*
Ed
 2.54e-06 1 1 0
1  21 0 0 25.4
2  25 4 0 0 25.4
0

0101000
+46 0 -44 0 *
Ve
2.54e-06
76.2 101.6 3.429
0 0

0101101
*
Ed
 2.54e-06 1 1 0
1  22 0 0 101.6
2  26 4 0 0 101.6
0

0101000
+44 0 -42 0 *
Ve
2.54e-06
0 101.6 3.429
0 0

0101101
*
Ed
 2.54e-06 1 1 0
1  23 0 0 76.2
2  27 4 0 0 76.2
0

0101000
+42 0 -40 0 *
Ve
2.54000000710543e-06
0 38.1 3.429
0 0

0101101
*
Ed
 2.54e-06 1 1 0
1  6 0 0 63.5
2  6 4 0 0 63.5
2  7 2 0 0 63.5
0

0101000
+40 0 -38 0 *
Ve
2.54e-06
-12.7 38.1 3.429
0 0

0101101
*
Ed
 2.54e-06 1 1 0
1  24 0 0 12.7
2  28 12 0 0 12.7
2  29 10 0 0 12.7
0

0101000
+38 0 -36 0 *
Ve
2.54e-06
-12.7 25.4 3.429
0 0

0101101
*
Ed
 2.54e-06 1 1 0
1  25 0 0 12.7
2  30 12 0 0 12.7
0

0101000
+36 0 -34 0 *
Ed
 2.54e-06 1 1 0
1  26 0 0 12.7
2  31 12 0 0 12.7
2  32 5 0 0 12.7
0

0101000
+34 0 -79 0 *
Wi

0101100
+84 0 +70 0 +47 0 +45 0 +43 0 +41 0 +39 0 +37 0 +35 0 +33 0 
+32 0 +78 0 *
Fa
0  0 11 0

0101000
+31 0 *
Ed
 2.54e-06 1 1 0
1  27 0 0 3.429
2  33 5 0 0 3.429
0

0101000
+53 0 -34 0 *
Wi

0101100
+29 0 -77 0 -51 0 +32 0 *
Fa
0  2.54e-06 5 0

0101000
+28 0 *
Ed
 2.54e-06 1 1 0
1  28 0 0 3.429
0

0101000
+67 0 -48 0 *
Wi

0101100
+72 0 -26 0 -66 0 +47 0 *
Fa
0  2.54e-06 13 0

0101000
+25 0 *
Ed
 2.54e-06 1 1 0
1  29 0 0 3.429
0

0101000
+65 0 -46 0 *
Wi

0101100
+26 0 -23 0 -64 0 +45 0 *
Fa
0  2.54e-06 14 0

0101000
+22 0 *
Ed
 2.54e-06 1 1 0
1  30 0 0 3.429
0

0101000
+63 0 -44 0 *
Wi

0101100
+23 0 -20 0 -62 0 +43 0 *
Fa
0  2.54e-06 15 0

0101000
+19 0 *
Ed
 2.54e-06 1 1 0
1  31 0 0 3.429
0

0101000
+61 0 -42 0 *
Wi

0101100
+20 0 -17 0 -60 0 +41 0 *
Fa
0  2.54e-06 16 0

0101000
+16 0 *
Ed
 2.54e-06 1 1 0
1  32 0 0 3.429
2  34 2 0 0 3.429
0

0101000
+59 0 -40 0 *
Wi

0101100
+17 0 -14 0 -58 0 +39 0 *
Fa
0  2.54e-06 17 0

0101000
+13 0 *
Ed
 2.54e-06 1 1 0
1  33 0 0 3.429
2  35 6 0 0 3.429
2  36 10 0 0 3.429
2  37 2 0 0 3.429
0

0101000
+57 0 -38 0 *
Wi

0101100
-56 0 -11 0 +37 0 +14 0 *
Fa
0  2.54e-06 2 0

0101000
+10 0 *
Ed
 2.54e-06 1 1 0
1  34 0 0 3.429
2  38 10 0 0 3.429
0

0101000
+55 0 -36 0 *
Wi

0101100
+8 0 -29 0 -52 0 +33 0 *
Fa
0  2.54e-06 18 0

0101000
+7 0 *
Wi

0101100
+11 0 -8 0 -54 0 +35 0 *
Fa
0  2.54e-06 10 0

0101000
+5 0 *
Sh

0101100
-82 0 -75 0 -68 0 -49 0 +30 0 -27 0 -24 0 -21 0 -18 0 -15 0 
-12 0 -9 0 -6 0 -4 0 *
So

0100000
+3 0 *
Co

1100000
+2 0 *

+1 0 