DBRep_DrawableShape

CASCADE Topology V3, (c) Open Cascade
Locations 0
Curve2ds 136
1 -50.799999999999983 -19.049999999999997 1 0 
1 -50.799999999999983 -19.049999999999997 1 0 
1 -50.799999999999983 19.049999999999997 0 -1 
1 -50.799999999999983 19.049999999999997 0 -1 
1 50.800000000000011 -19.049999999999997 0 1 
1 50.800000000000011 -19.049999999999997 0 1 
1 50.800000000000011 19.049999999999997 -1 0 
1 1.7780000000000022 10.16 0 -1 
1 0 0 1 0 
1 -38.09999999999998 10.16 0 -1 
1 -1.7779999999999987 10.16 1 0 
1 0 -0 1 0 
1 -34.543999999999983 10.16 -1 0 
1 1.7780000000000022 -10.159999999999998 -1 0 
1 0 0 1 0 
1 -38.09999999999998 -10.159999999999998 1 0 
1 -1.7779999999999987 -10.159999999999998 0 1 
1 0 0 1 0 
1 -34.543999999999983 -10.159999999999998 0 1 
1 1.8414999999999964 10.16 0 -1 
1 0 0 1 0 
1 -19.049999999999983 10.16 0 -1 
1 -1.8415000000000035 10.16 1 0 
1 0 -0 1 0 
1 -15.366999999999983 10.16 -1 0 
1 1.8414999999999964 -10.159999999999998 -1 0 
1 0 0 1 0 
1 -19.049999999999983 -10.159999999999998 1 0 
1 -1.8415000000000035 -10.159999999999998 0 1 
1 0 0 1 0 
1 -15.366999999999983 -10.159999999999998 0 1 
1 1.9049999999999869 10.160000000000007 0 -1 
1 0 0 1 0 
1 1.4210854715202004e-14 10.16 0 -1 
1 -1.9050000000000082 10.160000000000007 1 0 
1 0 -0 1 0 
1 3.8100000000000094 10.16 -1 0 
1 1.9049999999999869 -10.159999999999991 -1 0 
1 0 0 1 0 
1 1.4210854715202004e-14 -10.159999999999998 1 0 
1 -1.9050000000000082 -10.159999999999991 0 1 
1 0 0 1 0 
1 3.8100000000000094 -10.159999999999998 0 1 
1 1.9684999999999917 10.160000000000004 0 -1 
1 0 0 1 0 
1 19.050000000000011 10.16 0 -1 
1 1.9684999999999917 -10.159999999999995 -1 0 
1 0 0 1 0 
1 19.050000000000011 -10.159999999999998 1 0 
1 -1.9685000000000059 -10.159999999999995 0 1 
1 0 0 1 0 
1 22.987000000000009 -10.159999999999998 0 1 
1 -1.9685000000000059 10.160000000000004 1 0 
1 0 -0 1 0 
1 22.987000000000009 10.16 -1 0 
1 50.800000000000011 19.049999999999997 -1 0 
1 1.7780000000000022 10.16 0 -1 
1 0 -3.4289999999999998 1 0 
1 -38.09999999999998 10.16 0 -1 
1 -1.7779999999999987 10.16 1 0 
1 0 -3.4289999999999998 1 0 
1 -34.543999999999983 10.16 -1 0 
1 1.7780000000000022 -10.159999999999998 -1 0 
1 0 -3.4289999999999998 1 0 
1 -38.09999999999998 -10.159999999999998 1 0 
1 -1.7779999999999987 -10.159999999999998 0 1 
1 0 -3.4289999999999998 1 0 
1 -34.543999999999983 -10.159999999999998 0 1 
1 1.8414999999999964 10.16 0 -1 
1 0 -3.4289999999999998 1 0 
1 -19.049999999999983 10.16 0 -1 
1 -1.8415000000000035 10.16 1 0 
1 0 -3.4289999999999998 1 0 
1 -15.366999999999983 10.16 -1 0 
1 1.8414999999999964 -10.159999999999998 -1 0 
1 0 -3.4289999999999998 1 0 
1 -19.049999999999983 -10.159999999999998 1 0 
1 -1.8415000000000035 -10.159999999999998 0 1 
1 0 -3.4289999999999998 1 0 
1 -15.366999999999983 -10.159999999999998 0 1 
1 1.9049999999999869 10.160000000000007 0 -1 
1 0 -3.4289999999999998 1 0 
1 1.4210854715202004e-14 10.16 0 -1 
1 -1.9050000000000082 10.160000000000007 1 0 
1 0 -3.4289999999999998 1 0 
1 3.8100000000000094 10.16 -1 0 
1 1.9049999999999869 -10.159999999999991 -1 0 
1 0 -3.4289999999999998 1 0 
1 1.4210854715202004e-14 -10.159999999999998 1 0 
1 -1.9050000000000082 -10.159999999999991 0 1 
1 0 -3.4289999999999998 1 0 
1 3.8100000000000094 -10.159999999999998 0 1 
1 1.9684999999999917 10.160000000000004 0 -1 
1 0 -3.4289999999999998 1 0 
1 19.050000000000011 10.16 0 -1 
1 1.9684999999999917 -10.159999999999995 -1 0 
1 0 -3.4289999999999998 1 0 
1 19.050000000000011 -10.159999999999998 1 0 
1 -1.9685000000000059 -10.159999999999995 0 1 
1 0 -3.4289999999999998 1 0 
1 22.987000000000009 -10.159999999999998 0 1 
1 -1.9685000000000059 10.160000000000004 1 0 
1 0 -3.4289999999999998 1 0 
1 22.987000000000009 10.16 -1 0 
1 0 0 0 -1 
1 3.5560000000000009 0 0 -1 
1 20.32 0 0 -1 
1 0 0 0 -1 
1 0 -0 0 -1 
1 20.32 0 0 -1 
1 0 0 0 -1 
1 3.5560000000000009 0 0 -1 
1 0 0 0 -1 
1 3.6829999999999998 0 0 -1 
1 20.32 0 0 -1 
1 0 0 0 -1 
1 0 -0 0 -1 
1 20.32 0 0 -1 
1 0 0 0 -1 
1 3.6829999999999998 0 0 -1 
1 0 0 0 -1 
1 3.8099999999999952 0 0 -1 
1 20.32 0 0 -1 
1 0 0 0 -1 
1 0 -0 0 -1 
1 20.32 0 0 -1 
1 0 0 0 -1 
1 3.8099999999999952 0 0 -1 
1 0 0 0 -1 
1 3.9369999999999976 0 0 -1 
1 20.32 0 0 -1 
1 0 0 0 -1 
1 0 0 0 -1 
1 3.9369999999999976 0 0 -1 
1 0 -0 0 -1 
1 20.32 0 0 -1 
Curves 60
1 0 0 0 0 0 1 
1 101.59999999999999 0 0 0 0 1 
1 0 0 0 1 0 0 
1 0 0 3.4289999999999998 1 0 0 
1 0 38.099999999999994 0 0 0 1 
1 0 38.099999999999994 0 0 -1 0 
1 0 38.099999999999994 3.4289999999999998 0 -1 0 
1 101.59999999999999 38.099999999999994 0 0 0 1 
1 101.59999999999999 0 0 0 1 0 
1 101.59999999999999 0 3.4289999999999998 0 1 0 
1 101.59999999999999 38.099999999999994 0 -1 0 0 
1 12.699999999999999 29.209999999999997 0 0 -1 0 
1 16.256 29.209999999999997 0 -1 0 0 
1 12.699999999999999 8.8899999999999988 0 1 0 0 
1 16.256 8.8899999999999988 0 0 1 0 
1 31.75 29.209999999999997 0 0 -1 0 
1 35.433 29.209999999999997 0 -1 0 0 
1 31.75 8.8899999999999988 0 1 0 0 
1 35.433 8.8899999999999988 0 0 1 0 
1 50.799999999999997 29.209999999999997 0 0 -1 0 
1 54.609999999999992 29.209999999999997 0 -1 0 0 
1 50.799999999999997 8.8899999999999988 0 1 0 0 
1 54.609999999999992 8.8899999999999988 0 0 1 0 
1 69.849999999999994 29.209999999999997 0 0 -1 0 
1 69.849999999999994 8.8899999999999988 0 1 0 0 
1 73.786999999999992 8.8899999999999988 0 0 1 0 
1 73.786999999999992 29.209999999999997 0 -1 0 0 
1 101.59999999999999 38.099999999999994 3.4289999999999998 -1 0 0 
1 12.699999999999999 29.209999999999997 3.4289999999999998 0 -1 0 
1 16.256 29.209999999999997 3.4289999999999998 -1 0 0 
1 12.699999999999999 8.8899999999999988 3.4289999999999998 1 0 0 
1 16.256 8.8899999999999988 3.4289999999999998 0 1 0 
1 31.75 29.209999999999997 3.4289999999999998 0 -1 0 
1 35.433 29.209999999999997 3.4289999999999998 -1 0 0 
1 31.75 8.8899999999999988 3.4289999999999998 1 0 0 
1 35.433 8.8899999999999988 3.4289999999999998 0 1 0 
1 50.799999999999997 29.209999999999997 3.4289999999999998 0 -1 0 
1 54.609999999999992 29.209999999999997 3.4289999999999998 -1 0 0 
1 50.799999999999997 8.8899999999999988 3.4289999999999998 1 0 0 
1 54.609999999999992 8.8899999999999988 3.4289999999999998 0 1 0 
1 69.849999999999994 29.209999999999997 3.4289999999999998 0 -1 0 
1 69.849999999999994 8.8899999999999988 3.4289999999999998 1 0 0 
1 73.786999999999992 8.8899999999999988 3.4289999999999998 0 1 0 
1 73.786999999999992 29.209999999999997 3.4289999999999998 -1 0 0 
1 12.699999999999999 29.209999999999997 0 0 0 1 
1 12.699999999999999 8.8899999999999988 0 0 0 1 
1 16.256 29.209999999999997 0 0 0 1 
1 16.256 8.8899999999999988 0 0 0 1 
1 31.75 29.209999999999997 0 0 0 1 
1 31.75 8.8899999999999988 0 0 0 1 
1 35.433 29.209999999999997 0 0 0 1 
1 35.433 8.8899999999999988 0 0 0 1 
1 50.799999999999997 29.209999999999997 0 0 0 1 
1 50.799999999999997 8.8899999999999988 0 0 0 1 
1 54.609999999999992 29.209999999999997 0 0 0 1 
1 54.609999999999992 8.8899999999999988 0 0 0 1 
1 69.849999999999994 29.209999999999997 0 0 0 1 
1 69.849999999999994 8.8899999999999988 0 0 0 1 
1 73.786999999999992 8.8899999999999988 0 0 0 1 
1 73.786999999999992 29.209999999999997 0 0 0 1 
Polygon3D 0
PolygonOnTriangulations 0
Surfaces 30
1 0 0 0 0 1 0 1 0 0 0 0 -1 
1 50.799999999999983 19.049999999999997 0 0 0 1 1 0 -0 -0 1 0 
1 50.799999999999983 19.049999999999997 3.4289999999999998 0 0 1 1 0 -0 -0 1 0 
1 0 38.099999999999994 0 1 0 -0 0 -1 0 0 -0 -1 
1 101.59999999999999 0 0 -1 0 0 0 1 0 0 0 -1 
1 14.478000000000002 19.049999999999997 0 -0 -0 -1 -1 0 0 0 1 -0 
1 12.699999999999999 29.209999999999997 0 1 0 -0 0 -1 0 0 -0 -1 
1 16.256 29.209999999999997 0 0 -1 0 -1 0 0 -0 -0 -1 
1 12.699999999999999 8.8899999999999988 0 0 1 0 1 0 0 0 0 -1 
1 16.256 8.8899999999999988 0 -1 0 0 0 1 0 0 0 -1 
1 33.591499999999996 19.049999999999997 0 -0 -0 -1 -1 0 0 0 1 -0 
1 31.75 29.209999999999997 0 1 0 -0 0 -1 0 0 -0 -1 
1 35.433 29.209999999999997 0 0 -1 0 -1 0 0 -0 -0 -1 
1 31.75 8.8899999999999988 0 0 1 0 1 0 0 0 0 -1 
1 35.433 8.8899999999999988 0 -1 0 0 0 1 0 0 0 -1 
1 52.704999999999984 19.04999999999999 0 -0 -0 -1 -1 0 0 0 1 -0 
1 50.799999999999997 29.209999999999997 0 1 0 -0 0 -1 0 0 -0 -1 
1 54.609999999999992 29.209999999999997 0 0 -1 0 -1 0 0 -0 -0 -1 
1 50.799999999999997 8.8899999999999988 0 0 1 0 1 0 0 0 0 -1 
1 54.609999999999992 8.8899999999999988 0 -1 0 0 0 1 0 0 0 -1 
1 71.818499999999986 19.049999999999994 0 -0 -0 -1 -1 0 0 0 1 -0 
1 69.849999999999994 29.209999999999997 0 1 0 -0 0 -1 0 0 -0 -1 
1 69.849999999999994 8.8899999999999988 0 0 1 0 1 0 0 0 0 -1 
1 73.786999999999992 8.8899999999999988 0 -1 0 0 0 1 0 0 0 -1 
1 73.786999999999992 29.209999999999997 0 0 -1 0 -1 0 0 -0 -0 -1 
1 14.478000000000002 19.049999999999997 3.4289999999999998 -0 -0 -1 -1 0 0 0 1 -0 
1 33.591499999999996 19.049999999999997 3.4289999999999998 -0 -0 -1 -1 0 0 0 1 -0 
1 52.704999999999984 19.04999999999999 3.4289999999999998 -0 -0 -1 -1 0 0 0 1 -0 
1 71.818499999999986 19.049999999999994 3.4289999999999998 -0 -0 -1 -1 0 0 0 1 -0 
1 101.59999999999999 38.099999999999994 0 0 -1 0 -1 0 0 -0 -0 -1 
Triangulations 0

TShapes 155
Ve
2.54e-06
0 0 0
0 0

0101101
*
Ve
2.54e-06
0 0 3.429
0 0

0101101
*
Ed
 2.54e-06 1 1 0
1  1 0 0 3.429
0

0101000
+155 0 -154 0 *
Ve
2.54e-06
101.6 0 0
0 0

0101101
*
Ve
2.54e-06
101.6 0 3.429
0 0

0101101
*
Ed
 2.54e-06 1 1 0
1  2 0 0 3.429
0

0101000
+152 0 -151 0 *
Ed
 2.54e-06 1 1 0
1  3 0 0 101.6
2  1 2 0 0 101.6
0

0101000
+155 0 -152 0 *
Ed
 2.54e-06 1 1 0
1  4 0 0 101.6
2  2 3 0 0 101.6
0

0101000
+154 0 -151 0 *
Wi

0101100
+153 0 -150 0 -149 0 +148 0 *
Fa
0  2.54e-06 1 0

0101000
+147 0 *
Ve
2.54e-06
0 38.1 0
0 0

0101101
*
Ve
2.54e-06
0 38.1 3.429
0 0

0101101
*
Ed
 2.54e-06 1 1 0
1  5 0 0 3.429
0

0101000
+145 0 -144 0 *
Ed
 2.54e-06 1 1 0
1  6 0 0 38.1
2  3 2 0 0 38.1
0

0101000
+145 0 -155 0 *
Ed
 2.54e-06 1 1 0
1  7 0 0 38.1
2  4 3 0 0 38.1
0

0101000
+144 0 -154 0 *
Wi

0101100
+143 0 -153 0 -142 0 +141 0 *
Fa
0  2.54e-06 4 0

0101000
+140 0 *
Ve
2.54e-06
101.6 38.1 0
0 0

0101101
*
Ve
2.54e-06
101.6 38.1 3.429
0 0

0101101
*
Ed
 2.54e-06 1 1 0
1  8 0 0 3.429
0

0101000
+138 0 -137 0 *
Ed
 2.54e-06 1 1 0
1  9 0 0 38.1
2  5 2 0 0 38.1
0

0101000
+152 0 -138 0 *
Ed
 2.54e-06 1 1 0
1  10 0 0 38.1
2  6 3 0 0 38.1
0

0101000
+151 0 -137 0 *
Wi

0101100
+150 0 -136 0 -135 0 +134 0 *
Fa
0  2.54e-06 5 0

0101000
+133 0 *
Ed
 2.54e-06 1 1 0
1  11 0 0 101.6
2  7 2 0 0 101.6
0

0101000
+138 0 -145 0 *
Wi

0101100
+149 0 +142 0 +135 0 +131 0 *
Ve
2.54e-06
12.7 29.21 0
0 0

0101101
*
Ve
2.54e-06
12.7 8.89 0
0 0

0101101
*
Ed
 2.54e-06 1 1 0
1  12 0 0 20.32
2  8 6 0 0 20.32
2  9 7 0 0 20.32
2  10 2 0 0 20.32
0

0101000
+129 0 -128 0 *
Ve
2.54e-06
16.256 29.21 0
0 0

0101101
*
Ed
 2.54e-06 1 1 0
1  13 0 0 3.556
2  11 6 0 0 3.556
2  12 8 0 0 3.556
2  13 2 0 0 3.556
0

0101000
+126 0 -129 0 *
Ve
2.54e-06
16.256 8.89 0
0 0

0101101
*
Ed
 2.54e-06 1 1 0
1  14 0 0 3.556
2  14 6 0 0 3.556
2  15 9 0 0 3.556
2  16 2 0 0 3.556
0

0101000
+128 0 -124 0 *
Ed
 2.54e-06 1 1 0
1  15 0 0 20.32
2  17 6 0 0 20.32
2  18 10 0 0 20.32
2  19 2 0 0 20.32
0

0101000
+124 0 -126 0 *
Wi

0101100
-127 0 -125 0 -123 0 -122 0 *
Ve
2.54e-06
31.75 29.21 0
0 0

0101101
*
Ve
2.54e-06
31.75 8.89 0
0 0

0101101
*
Ed
 2.54e-06 1 1 0
1  16 0 0 20.32
2  20 11 0 0 20.32
2  21 12 0 0 20.32
2  22 2 0 0 20.32
0

0101000
+120 0 -119 0 *
Ve
2.54e-06
35.433 29.21 0
0 0

0101101
*
Ed
 2.54e-06 1 1 0
1  17 0 0 3.683
2  23 11 0 0 3.683
2  24 13 0 0 3.683
2  25 2 0 0 3.683
0

0101000
+117 0 -120 0 *
Ve
2.54e-06
35.433 8.89 0
0 0

0101101
*
Ed
 2.54e-06 1 1 0
1  18 0 0 3.683
2  26 11 0 0 3.683
2  27 14 0 0 3.683
2  28 2 0 0 3.683
0

0101000
+119 0 -115 0 *
Ed
 2.54e-06 1 1 0
1  19 0 0 20.32
2  29 11 0 0 20.32
2  30 15 0 0 20.32
2  31 2 0 0 20.32
0

0101000
+115 0 -117 0 *
Wi

0101100
-118 0 -116 0 -114 0 -113 0 *
Ve
2.54e-06
50.8 29.21 0
0 0

0101101
*
Ve
2.54e-06
50.8 8.89 0
0 0

0101101
*
Ed
 2.54e-06 1 1 0
1  20 0 0 20.32
2  32 16 0 0 20.32
2  33 17 0 0 20.32
2  34 2 0 0 20.32
0

0101000
+111 0 -110 0 *
Ve
2.54e-06
54.61 29.21 0
0 0

0101101
*
Ed
 2.54e-06 1 1 0
1  21 0 0 3.81
2  35 16 0 0 3.81
2  36 18 0 0 3.81
2  37 2 0 0 3.81
0

0101000
+108 0 -111 0 *
Ve
2.54e-06
54.61 8.89 0
0 0

0101101
*
Ed
 2.54e-06 1 1 0
1  22 0 0 3.81
2  38 16 0 0 3.81
2  39 19 0 0 3.81
2  40 2 0 0 3.81
0

0101000
+110 0 -106 0 *
Ed
 2.54e-06 1 1 0
1  23 0 0 20.32
2  41 16 0 0 20.32
2  42 20 0 0 20.32
2  43 2 0 0 20.32
0

0101000
+106 0 -108 0 *
Wi

0101100
-109 0 -107 0 -105 0 -104 0 *
Ve
2.54e-06
69.85 29.21 0
0 0

0101101
*
Ve
2.54e-06
69.85 8.89 0
0 0

0101101
*
Ed
 2.54e-06 1 1 0
1  24 0 0 20.32
2  44 21 0 0 20.32
2  45 22 0 0 20.32
2  46 2 0 0 20.32
0

0101000
+102 0 -101 0 *
Ve
2.54e-06
73.787 8.89 0
0 0

0101101
*
Ed
 2.54e-06 1 1 0
1  25 0 0 3.93699999999999
2  47 21 0 0 3.93699999999999
2  48 23 0 0 3.93699999999999
2  49 2 0 0 3.93699999999999
0

0101000
+101 0 -99 0 *
Ve
2.54e-06
73.787 29.21 0
0 0

0101101
*
Ed
 2.54e-06 1 1 0
1  26 0 0 20.32
2  50 21 0 0 20.32
2  51 24 0 0 20.32
2  52 2 0 0 20.32
0

0101000
+99 0 -97 0 *
Ed
 2.54e-06 1 1 0
1  27 0 0 3.93699999999999
2  53 21 0 0 3.93699999999999
2  54 25 0 0 3.93699999999999
2  55 2 0 0 3.93699999999999
0

0101000
+97 0 -102 0 *
Wi

0101100
-100 0 -98 0 -96 0 -95 0 *
Fa
0  2.54e-06 2 0

0101000
+130 0 +121 0 +112 0 +103 0 +94 0 *
Ed
 2.54e-06 1 1 0
1  28 0 0 101.6
2  56 3 0 0 101.6
0

0101000
+137 0 -144 0 *
Wi

0101100
+148 0 +141 0 +134 0 +92 0 *
Ve
2.54e-06
12.7 29.21 3.429
0 0

0101101
*
Ve
2.54e-06
12.7 8.89 3.429
0 0

0101101
*
Ed
 2.54e-06 1 1 0
1  29 0 0 20.32
2  57 26 0 0 20.32
2  58 7 0 0 20.32
2  59 3 0 0 20.32
0

0101000
+90 0 -89 0 *
Ve
2.54e-06
16.256 29.21 3.429
0 0

0101101
*
Ed
 2.54e-06 1 1 0
1  30 0 0 3.556
2  60 26 0 0 3.556
2  61 8 0 0 3.556
2  62 3 0 0 3.556
0

0101000
+87 0 -90 0 *
Ve
2.54e-06
16.256 8.89 3.429
0 0

0101101
*
Ed
 2.54e-06 1 1 0
1  31 0 0 3.556
2  63 26 0 0 3.556
2  64 9 0 0 3.556
2  65 3 0 0 3.556
0

0101000
+89 0 -85 0 *
Ed
 2.54e-06 1 1 0
1  32 0 0 20.32
2  66 26 0 0 20.32
2  67 10 0 0 20.32
2  68 3 0 0 20.32
0

0101000
+85 0 -87 0 *
Wi

0101100
-88 0 -86 0 -84 0 -83 0 *
Ve
2.54e-06
31.75 29.21 3.429
0 0

0101101
*
Ve
2.54e-06
31.75 8.89 3.429
0 0

0101101
*
Ed
 2.54e-06 1 1 0
1  33 0 0 20.32
2  69 27 0 0 20.32
2  70 12 0 0 20.32
2  71 3 0 0 20.32
0

0101000
+81 0 -80 0 *
Ve
2.54e-06
35.433 29.21 3.429
0 0

0101101
*
Ed
 2.54e-06 1 1 0
1  34 0 0 3.683
2  72 27 0 0 3.683
2  73 13 0 0 3.683
2  74 3 0 0 3.683
0

0101000
+78 0 -81 0 *
Ve
2.54e-06
35.433 8.89 3.429
0 0

0101101
*
Ed
 2.54e-06 1 1 0
1  35 0 0 3.683
2  75 27 0 0 3.683
2  76 14 0 0 3.683
2  77 3 0 0 3.683
0

0101000
+80 0 -76 0 *
Ed
 2.54e-06 1 1 0
1  36 0 0 20.32
2  78 27 0 0 20.32
2  79 15 0 0 20.32
2  80 3 0 0 20.32
0

0101000
+76 0 -78 0 *
Wi

0101100
-79 0 -77 0 -75 0 -74 0 *
Ve
2.54e-06
50.8 29.21 3.429
0 0

0101101
*
Ve
2.54e-06
50.8 8.89 3.429
0 0

0101101
*
Ed
 2.54e-06 1 1 0
1  37 0 0 20.32
2  81 28 0 0 20.32
2  82 17 0 0 20.32
2  83 3 0 0 20.32
0

0101000
+72 0 -71 0 *
Ve
2.54e-06
54.61 29.21 3.429
0 0

0101101
*
Ed
 2.54e-06 1 1 0
1  38 0 0 3.81
2  84 28 0 0 3.81
2  85 18 0 0 3.81
2  86 3 0 0 3.81
0

0101000
+69 0 -72 0 *
Ve
2.54e-06
54.61 8.89 3.429
0 0

0101101
*
Ed
 2.54e-06 1 1 0
1  39 0 0 3.81
2  87 28 0 0 3.81
2  88 19 0 0 3.81
2  89 3 0 0 3.81
0

0101000
+71 0 -67 0 *
Ed
 2.54e-06 1 1 0
1  40 0 0 20.32
2  90 28 0 0 20.32
2  91 20 0 0 20.32
2  92 3 0 0 20.32
0

0101000
+67 0 -69 0 *
Wi

0101100
-70 0 -68 0 -66 0 -65 0 *
Ve
2.54e-06
69.85 29.21 3.429
0 0

0101101
*
Ve
2.54e-06
69.85 8.89 3.429
0 0

0101101
*
Ed
 2.54e-06 1 1 0
1  41 0 0 20.32
2  93 29 0 0 20.32
2  94 22 0 0 20.32
2  95 3 0 0 20.32
0

0101000
+63 0 -62 0 *
Ve
2.54e-06
73.787 8.89 3.429
0 0

0101101
*
Ed
 2.54e-06 1 1 0
1  42 0 0 3.93699999999999
2  96 29 0 0 3.93699999999999
2  97 23 0 0 3.93699999999999
2  98 3 0 0 3.93699999999999
0

0101000
+62 0 -60 0 *
Ve
2.54e-06
73.787 29.21 3.429
0 0

0101101
*
Ed
 2.54e-06 1 1 0
1  43 0 0 20.32
2  99 29 0 0 20.32
2  100 24 0 0 20.32
2  101 3 0 0 20.32
0

0101000
+60 0 -58 0 *
Ed
 2.54e-06 1 1 0
1  44 0 0 3.93699999999999
2  102 29 0 0 3.93699999999999
2  103 25 0 0 3.93699999999999
2  104 3 0 0 3.93699999999999
0

0101000
+58 0 -63 0 *
Wi

0101100
-61 0 -59 0 -57 0 -56 0 *
Fa
0  2.54e-06 3 0

0101000
+91 0 +82 0 +73 0 +64 0 +55 0 *
Wi

0101100
+136 0 -143 0 -131 0 +92 0 *
Fa
0  2.54e-06 30 0

0101000
+53 0 *
Ed
 2.54e-06 1 1 0
1  45 0 0 3.429
2  105 7 0 0 3.429
2  106 8 0 0 3.429
0

0101000
+129 0 -90 0 *
Ed
 2.54e-06 1 1 0
1  46 0 0 3.429
2  107 7 0 0 3.429
2  108 9 0 0 3.429
0

0101000
+128 0 -89 0 *
Wi

0101100
+51 0 -50 0 -127 0 +88 0 *
Fa
0  2.54e-06 7 0

0101000
+49 0 *
Ed
 2.54e-06 1 1 0
1  47 0 0 3.429
2  109 8 0 0 3.429
2  110 10 0 0 3.429
0

0101000
+126 0 -87 0 *
Wi

0101100
+47 0 -51 0 -125 0 +86 0 *
Fa
0  2.54e-06 8 0

0101000
+46 0 *
Ed
 2.54e-06 1 1 0
1  48 0 0 3.429
2  111 10 0 0 3.429
2  112 9 0 0 3.429
0

0101000
+124 0 -85 0 *
Wi

0101100
+50 0 -44 0 -123 0 +84 0 *
Fa
0  2.54e-06 9 0

0101000
+43 0 *
Wi

0101100
+44 0 -47 0 -122 0 +83 0 *
Fa
0  2.54e-06 10 0

0101000
+41 0 *
Ed
 2.54e-06 1 1 0
1  49 0 0 3.429
2  113 12 0 0 3.429
2  114 13 0 0 3.429
0

0101000
+120 0 -81 0 *
Ed
 2.54e-06 1 1 0
1  50 0 0 3.429
2  115 12 0 0 3.429
2  116 14 0 0 3.429
0

0101000
+119 0 -80 0 *
Wi

0101100
+39 0 -38 0 -118 0 +79 0 *
Fa
0  2.54e-06 12 0

0101000
+37 0 *
Ed
 2.54e-06 1 1 0
1  51 0 0 3.429
2  117 13 0 0 3.429
2  118 15 0 0 3.429
0

0101000
+117 0 -78 0 *
Wi

0101100
+35 0 -39 0 -116 0 +77 0 *
Fa
0  2.54e-06 13 0

0101000
+34 0 *
Ed
 2.54e-06 1 1 0
1  52 0 0 3.429
2  119 15 0 0 3.429
2  120 14 0 0 3.429
0

0101000
+115 0 -76 0 *
Wi

0101100
+38 0 -32 0 -114 0 +75 0 *
Fa
0  2.54e-06 14 0

0101000
+31 0 *
Wi

0101100
+32 0 -35 0 -113 0 +74 0 *
Fa
0  2.54e-06 15 0

0101000
+29 0 *
Ed
 2.54e-06 1 1 0
1  53 0 0 3.429
2  121 17 0 0 3.429
2  122 18 0 0 3.429
0

0101000
+111 0 -72 0 *
Ed
 2.54e-06 1 1 0
1  54 0 0 3.429
2  123 17 0 0 3.429
2  124 19 0 0 3.429
0

0101000
+110 0 -71 0 *
Wi

0101100
+27 0 -26 0 -109 0 +70 0 *
Fa
0  2.54e-06 17 0

0101000
+25 0 *
Ed
 2.54e-06 1 1 0
1  55 0 0 3.429
2  125 18 0 0 3.429
2  126 20 0 0 3.429
0

0101000
+108 0 -69 0 *
Wi

0101100
+23 0 -27 0 -107 0 +68 0 *
Fa
0  2.54e-06 18 0

0101000
+22 0 *
Ed
 2.54e-06 1 1 0
1  56 0 0 3.429
2  127 20 0 0 3.429
2  128 19 0 0 3.429
0

0101000
+106 0 -67 0 *
Wi

0101100
+26 0 -20 0 -105 0 +66 0 *
Fa
0  2.54e-06 19 0

0101000
+19 0 *
Wi

0101100
+20 0 -23 0 -104 0 +65 0 *
Fa
0  2.54e-06 20 0

0101000
+17 0 *
Ed
 2.54e-06 1 1 0
1  57 0 0 3.429
2  129 22 0 0 3.429
2  130 25 0 0 3.429
0

0101000
+102 0 -63 0 *
Ed
 2.54e-06 1 1 0
1  58 0 0 3.429
2  131 22 0 0 3.429
2  132 23 0 0 3.429
0

0101000
+101 0 -62 0 *
Wi

0101100
+15 0 -14 0 -100 0 +61 0 *
Fa
0  2.54e-06 22 0

0101000
+13 0 *
Ed
 2.54e-06 1 1 0
1  59 0 0 3.429
2  133 24 0 0 3.429
2  134 23 0 0 3.429
0

0101000
+99 0 -60 0 *
Wi

0101100
+14 0 -11 0 -98 0 +59 0 *
Fa
0  2.54e-06 23 0

0101000
+10 0 *
Ed
 2.54e-06 1 1 0
1  60 0 0 3.429
2  135 25 0 0 3.429
2  136 24 0 0 3.429
0

0101000
+97 0 -58 0 *
Wi

0101100
+11 0 -8 0 -96 0 +57 0 *
Fa
0  2.54e-06 24 0

0101000
+7 0 *
Wi

0101100
+8 0 -15 0 -95 0 +56 0 *
Fa
0  2.54e-06 25 0

0101000
+5 0 *
Sh

0101100
-146 0 -139 0 -132 0 -93 0 +54 0 -52 0 +48 0 +45 0 +42 0 +40 0 
+36 0 +33 0 +30 0 +28 0 +24 0 +21 0 +18 0 +16 0 +12 0 +9 0 
+6 0 +4 0 *
So

0100000
+3 0 *
Co

1100000
+2 0 *

+1 0 