0
SECTION
2
HEADER
0
ENDSEC
0
SECTION
2
ENTITIES
0
LINE
8
CUT
10
0.0000
20
0.0000
30
0
11
4.0000
21
0.0000
31
0
0
LINE
8
CUT
10
4.0000
20
0.0000
30
0
11
4.0000
21
1.5000
31
0
0
LINE
8
CUT
10
4.0000
20
1.5000
30
0
11
0.0000
21
1.5000
31
0
0
LINE
8
CUT
10
0.0000
20
1.5000
30
0
11
0.0000
21
0.0000
31
0
0
LINE
8
CUT
10
0.5000
20
0.3500
30
0
11
0.6400
21
0.3500
31
0
0
LINE
8
CUT
10
0.6400
20
0.3500
30
0
11
0.6400
21
1.1500
31
0
0
LINE
8
CUT
10
0.6400
20
1.1500
30
0
11
0.5000
21
1.1500
31
0
0
LINE
8
CUT
10
0.5000
20
1.1500
30
0
11
0.5000
21
0.3500
31
0
0
LINE
8
CUT
10
1.2500
20
0.3500
30
0
11
1.3950
21
0.3500
31
0
0
LINE
8
CUT
10
1.3950
20
0.3500
30
0
11
1.3950
21
1.1500
31
0
0
LINE
8
CUT
10
1.3950
20
1.1500
30
0
11
1.2500
21
1.1500
31
0
0
LINE
8
CUT
10
1.2500
20
1.1500
30
0
11
1.2500
21
0.3500
31
0
0
LINE
8
CUT
10
2.0000
20
0.3500
30
0
11
2.1500
21
0.3500
31
0
0
LINE
8
CUT
10
2.1500
20
0.3500
30
0
11
2.1500
21
1.1500
31
0
0
LINE
8
CUT
10
2.1500
20
1.1500
30
0
11
2.0000
21
1.1500
31
0
0
LINE
8
CUT
10
2.0000
20
1.1500
30
0
11
2.0000
21
0.3500
31
0
0
LINE
8
CUT
10
2.7500
20
0.3500
30
0
11
2.9050
21
0.3500
31
0
0
LINE
8
CUT
10
2.9050
20
0.3500
30
0
11
2.9050
21
1.1500
31
0
0
LINE
8
CUT
10
2.9050
20
1.1500
30
0
11
2.7500
21
1.1500
31
0
0
LINE
8
CUT
10
2.7500
20
1.1500
30
0
11
2.7500
21
0.3500
31
0
0
TEXT
8
ETCH
10
0.2000
20
1.1500
30
0
40
0.1600
1
WT-012_SLOT_COUPON
0
TEXT
8
ETCH
10
0.4800
20
1.2200
30
0
40
0.1200
1
0.140
0
TEXT
8
ETCH
10
1.2300
20
1.2200
30
0
40
0.1200
1
0.145
0
TEXT
8
ETCH
10
1.9800
20
1.2200
30
0
40
0.1200
1
0.150
0
TEXT
8
ETCH
10
2.7300
20
1.2200
30
0
40
0.1200
1
0.155
0
ENDSEC
0
EOF
