0
SECTION
2
HEADER
0
ENDSEC
0
SECTION
2
ENTITIES
0
LINE
8
CUT
10
0.0000
20
0.0000
30
0
11
12.0000
21
0.0000
31
0
0
LINE
8
CUT
10
12.0000
20
0.0000
30
0
11
12.0000
21
12.0000
31
0
0
LINE
8
CUT
10
12.0000
20
12.0000
30
0
11
0.0000
21
12.0000
31
0
0
LINE
8
CUT
10
0.0000
20
12.0000
30
0
11
0.0000
21
0.0000
31
0
0
LINE
8
CUT
10
1.5000
20
5.9250
30
0
11
10.5000
21
5.9250
31
0
0
LINE
8
CUT
10
10.5000
20
5.9250
30
0
11
10.5000
21
6.0750
31
0
0
LINE
8
CUT
10
10.5000
20
6.0750
30
0
11
1.5000
21
6.0750
31
0
0
LINE
8
CUT
10
1.5000
20
6.0750
30
0
11
1.5000
21
5.9250
31
0
0
LINE
8
CUT
10
5.9250
20
1.5000
30
0
11
6.0750
21
1.5000
31
0
0
LINE
8
CUT
10
6.0750
20
1.5000
30
0
11
6.0750
21
10.5000
31
0
0
LINE
8
CUT
10
6.0750
20
10.5000
30
0
11
5.9250
21
10.5000
31
0
0
LINE
8
CUT
10
5.9250
20
10.5000
30
0
11
5.9250
21
1.5000
31
0
0
LINE
8
CUT
10
1.5000
20
1.9250
30
0
11
4.5000
21
1.9250
31
0
0
LINE
8
CUT
10
4.5000
20
1.9250
30
0
11
4.5000
21
2.0750
31
0
0
LINE
8
CUT
10
4.5000
20
2.0750
30
0
11
1.5000
21
2.0750
31
0
0
LINE
8
CUT
10
1.5000
20
2.0750
30
0
11
1.5000
21
1.9250
31
0
0
LINE
8
CUT
10
7.5000
20
1.9250
30
0
11
10.5000
21
1.9250
31
0
0
LINE
8
CUT
10
10.5000
20
1.9250
30
0
11
10.5000
21
2.0750
31
0
0
LINE
8
CUT
10
10.5000
20
2.0750
30
0
11
7.5000
21
2.0750
31
0
0
LINE
8
CUT
10
7.5000
20
2.0750
30
0
11
7.5000
21
1.9250
31
0
0
LINE
8
CUT
10
9.9250
20
1.5000
30
0
11
10.0750
21
1.5000
31
0
0
LINE
8
CUT
10
10.0750
20
1.5000
30
0
11
10.0750
21
4.5000
31
0
0
LINE
8
CUT
10
10.0750
20
4.5000
30
0
11
9.9250
21
4.5000
31
0
0
LINE
8
CUT
10
9.9250
20
4.5000
30
0
11
9.9250
21
1.5000
31
0
0
LINE
8
CUT
10
1.5000
20
9.9250
30
0
11
5.5000
21
9.9250
31
0
0
LINE
8
CUT
10
5.5000
20
9.9250
30
0
11
5.5000
21
10.0750
31
0
0
LINE
8
CUT
10
5.5000
20
10.0750
30
0
11
1.5000
21
10.0750
31
0
0
LINE
8
CUT
10
1.5000
20
10.0750
30
0
11
1.5000
21
9.9250
31
0
0
LINE
8
CUT
10
6.5000
20
9.9250
30
0
11
10.5000
21
9.9250
31
0
0
LINE
8
CUT
10
10.5000
20
9.9250
30
0
11
10.5000
21
10.0750
31
0
0
LINE
8
CUT
10
10.5000
20
10.0750
30
0
11
6.5000
21
10.0750
31
0
0
LINE
8
CUT
10
6.5000
20
10.0750
30
0
11
6.5000
21
9.9250
31
0
0
CIRCLE
8
CUT
10
0.5000
20
0.5000
30
0
40
0.1250
0
CIRCLE
8
CUT
10
11.5000
20
0.5000
30
0
40
0.1250
0
CIRCLE
8
CUT
10
0.5000
20
11.5000
30
0
40
0.1250
0
CIRCLE
8
CUT
10
11.5000
20
11.5000
30
0
40
0.1250
0
TEXT
8
ETCH
10
0.2000
20
11.6500
30
0
40
0.1600
1
WT-001_BASE
0
TEXT
8
ETCH
10
2.0000
20
6.2500
30
0
40
0.1400
1
W1/W2 T-FILLETS
0
TEXT
8
ETCH
10
6.2500
20
2.0000
30
0
40
0.1400
1
W3/W4 T-FILLETS
0
TEXT
8
ETCH
10
1.6000
20
2.3000
30
0
40
0.1400
1
W5 V-UP
0
TEXT
8
ETCH
10
7.6000
20
2.3000
30
0
40
0.1400
1
W6 CORNER
0
TEXT
8
ETCH
10
1.7000
20
10.3000
30
0
40
0.1400
1
W7 LAP
0
TEXT
8
ETCH
10
5.2000
20
11.3000
30
0
40
0.1400
1
NO WELD / ID
0
ENDSEC
0
EOF
