0
SECTION
2
HEADER
0
ENDSEC
0
SECTION
2
ENTITIES
0
LINE
8
CUT
10
0.0000
20
0.0000
30
0
11
1.0000
21
0.0000
31
0
0
LINE
8
CUT
10
1.0000
20
0.0000
30
0
11
1.0000
21
-0.5000
31
0
0
LINE
8
CUT
10
1.0000
20
-0.5000
30
0
11
2.0000
21
-0.5000
31
0
0
LINE
8
CUT
10
2.0000
20
-0.5000
30
0
11
2.0000
21
0.0000
31
0
0
LINE
8
CUT
10
2.0000
20
0.0000
30
0
11
3.0000
21
0.0000
31
0
0
LINE
8
CUT
10
3.0000
20
0.0000
30
0
11
3.0000
21
6.0000
31
0
0
LINE
8
CUT
10
3.0000
20
6.0000
30
0
11
0.0000
21
6.0000
31
0
0
LINE
8
CUT
10
0.0000
20
6.0000
30
0
11
0.0000
21
0.0000
31
0
0
TEXT
8
ETCH
10
0.2000
20
5.6500
30
0
40
0.1600
1
WT-004_VERTICAL
0
ENDSEC
0
EOF
