0
SECTION
2
HEADER
0
ENDSEC
0
SECTION
2
ENTITIES
0
LINE
8
CUT
10
0.0000
20
0.0000
30
0
11
0.5000
21
0.0000
31
0
0
LINE
8
CUT
10
0.5000
20
0.0000
30
0
11
0.5000
21
-0.5000
31
0
0
LINE
8
CUT
10
0.5000
20
-0.5000
30
0
11
1.5000
21
-0.5000
31
0
0
LINE
8
CUT
10
1.5000
20
-0.5000
30
0
11
1.5000
21
0.0000
31
0
0
LINE
8
CUT
10
1.5000
20
0.0000
30
0
11
4.5000
21
0.0000
31
0
0
LINE
8
CUT
10
4.5000
20
0.0000
30
0
11
4.5000
21
-0.5000
31
0
0
LINE
8
CUT
10
4.5000
20
-0.5000
30
0
11
5.5000
21
-0.5000
31
0
0
LINE
8
CUT
10
5.5000
20
-0.5000
30
0
11
5.5000
21
0.0000
31
0
0
LINE
8
CUT
10
5.5000
20
0.0000
30
0
11
8.5000
21
0.0000
31
0
0
LINE
8
CUT
10
8.5000
20
0.0000
30
0
11
8.5000
21
-0.5000
31
0
0
LINE
8
CUT
10
8.5000
20
-0.5000
30
0
11
9.5000
21
-0.5000
31
0
0
LINE
8
CUT
10
9.5000
20
-0.5000
30
0
11
9.5000
21
0.0000
31
0
0
LINE
8
CUT
10
9.5000
20
0.0000
30
0
11
10.0000
21
0.0000
31
0
0
LINE
8
CUT
10
10.0000
20
0.0000
30
0
11
10.0000
21
4.0000
31
0
0
LINE
8
CUT
10
10.0000
20
4.0000
30
0
11
0.0000
21
4.0000
31
0
0
LINE
8
CUT
10
0.0000
20
4.0000
30
0
11
0.0000
21
0.0000
31
0
0
LINE
8
CUT
10
4.9250
20
0.0000
30
0
11
5.0750
21
0.0000
31
0
0
LINE
8
CUT
10
5.0750
20
0.0000
30
0
11
5.0750
21
2.0000
31
0
0
LINE
8
CUT
10
5.0750
20
2.0000
30
0
11
4.9250
21
2.0000
31
0
0
LINE
8
CUT
10
4.9250
20
2.0000
30
0
11
4.9250
21
0.0000
31
0
0
TEXT
8
ETCH
10
0.2000
20
3.6500
30
0
40
0.1600
1
WT-003_CROSS
0
ENDSEC
0
EOF
